%TF.GenerationSoftware,KiCad,Pcbnew,8.0.4-1.fc40*%
%TF.CreationDate,2024-08-27T20:57:41+02:00*%
%TF.ProjectId,ATU100 Alc interface,41545531-3030-4204-916c-6320696e7465,rev?*%
%TF.SameCoordinates,Original*%
%TF.FileFunction,Legend,Top*%
%TF.FilePolarity,Positive*%
%FSLAX46Y46*%
G04 Gerber Fmt 4.6, Leading zero omitted, Abs format (unit mm)*
G04 Created by KiCad (PCBNEW 8.0.4-1.fc40) date 2024-08-27 20:57:41*
%MOMM*%
%LPD*%
G01*
G04 APERTURE LIST*
%ADD10C,0.150000*%
%ADD11C,0.120000*%
%ADD12C,0.127000*%
%ADD13C,0.200000*%
G04 APERTURE END LIST*
D10*
X89284580Y-110471666D02*
X89332200Y-110519285D01*
X89332200Y-110519285D02*
X89379819Y-110662142D01*
X89379819Y-110662142D02*
X89379819Y-110757380D01*
X89379819Y-110757380D02*
X89332200Y-110900237D01*
X89332200Y-110900237D02*
X89236961Y-110995475D01*
X89236961Y-110995475D02*
X89141723Y-111043094D01*
X89141723Y-111043094D02*
X88951247Y-111090713D01*
X88951247Y-111090713D02*
X88808390Y-111090713D01*
X88808390Y-111090713D02*
X88617914Y-111043094D01*
X88617914Y-111043094D02*
X88522676Y-110995475D01*
X88522676Y-110995475D02*
X88427438Y-110900237D01*
X88427438Y-110900237D02*
X88379819Y-110757380D01*
X88379819Y-110757380D02*
X88379819Y-110662142D01*
X88379819Y-110662142D02*
X88427438Y-110519285D01*
X88427438Y-110519285D02*
X88475057Y-110471666D01*
X88475057Y-110090713D02*
X88427438Y-110043094D01*
X88427438Y-110043094D02*
X88379819Y-109947856D01*
X88379819Y-109947856D02*
X88379819Y-109709761D01*
X88379819Y-109709761D02*
X88427438Y-109614523D01*
X88427438Y-109614523D02*
X88475057Y-109566904D01*
X88475057Y-109566904D02*
X88570295Y-109519285D01*
X88570295Y-109519285D02*
X88665533Y-109519285D01*
X88665533Y-109519285D02*
X88808390Y-109566904D01*
X88808390Y-109566904D02*
X89379819Y-110138332D01*
X89379819Y-110138332D02*
X89379819Y-109519285D01*
X104995833Y-97829580D02*
X104948214Y-97877200D01*
X104948214Y-97877200D02*
X104805357Y-97924819D01*
X104805357Y-97924819D02*
X104710119Y-97924819D01*
X104710119Y-97924819D02*
X104567262Y-97877200D01*
X104567262Y-97877200D02*
X104472024Y-97781961D01*
X104472024Y-97781961D02*
X104424405Y-97686723D01*
X104424405Y-97686723D02*
X104376786Y-97496247D01*
X104376786Y-97496247D02*
X104376786Y-97353390D01*
X104376786Y-97353390D02*
X104424405Y-97162914D01*
X104424405Y-97162914D02*
X104472024Y-97067676D01*
X104472024Y-97067676D02*
X104567262Y-96972438D01*
X104567262Y-96972438D02*
X104710119Y-96924819D01*
X104710119Y-96924819D02*
X104805357Y-96924819D01*
X104805357Y-96924819D02*
X104948214Y-96972438D01*
X104948214Y-96972438D02*
X104995833Y-97020057D01*
X105948214Y-97924819D02*
X105376786Y-97924819D01*
X105662500Y-97924819D02*
X105662500Y-96924819D01*
X105662500Y-96924819D02*
X105567262Y-97067676D01*
X105567262Y-97067676D02*
X105472024Y-97162914D01*
X105472024Y-97162914D02*
X105376786Y-97210533D01*
X83404819Y-128766666D02*
X82928628Y-129099999D01*
X83404819Y-129338094D02*
X82404819Y-129338094D01*
X82404819Y-129338094D02*
X82404819Y-128957142D01*
X82404819Y-128957142D02*
X82452438Y-128861904D01*
X82452438Y-128861904D02*
X82500057Y-128814285D01*
X82500057Y-128814285D02*
X82595295Y-128766666D01*
X82595295Y-128766666D02*
X82738152Y-128766666D01*
X82738152Y-128766666D02*
X82833390Y-128814285D01*
X82833390Y-128814285D02*
X82881009Y-128861904D01*
X82881009Y-128861904D02*
X82928628Y-128957142D01*
X82928628Y-128957142D02*
X82928628Y-129338094D01*
X83404819Y-127814285D02*
X83404819Y-128385713D01*
X83404819Y-128099999D02*
X82404819Y-128099999D01*
X82404819Y-128099999D02*
X82547676Y-128195237D01*
X82547676Y-128195237D02*
X82642914Y-128290475D01*
X82642914Y-128290475D02*
X82690533Y-128385713D01*
X93458333Y-101664580D02*
X93410714Y-101712200D01*
X93410714Y-101712200D02*
X93267857Y-101759819D01*
X93267857Y-101759819D02*
X93172619Y-101759819D01*
X93172619Y-101759819D02*
X93029762Y-101712200D01*
X93029762Y-101712200D02*
X92934524Y-101616961D01*
X92934524Y-101616961D02*
X92886905Y-101521723D01*
X92886905Y-101521723D02*
X92839286Y-101331247D01*
X92839286Y-101331247D02*
X92839286Y-101188390D01*
X92839286Y-101188390D02*
X92886905Y-100997914D01*
X92886905Y-100997914D02*
X92934524Y-100902676D01*
X92934524Y-100902676D02*
X93029762Y-100807438D01*
X93029762Y-100807438D02*
X93172619Y-100759819D01*
X93172619Y-100759819D02*
X93267857Y-100759819D01*
X93267857Y-100759819D02*
X93410714Y-100807438D01*
X93410714Y-100807438D02*
X93458333Y-100855057D01*
X93791667Y-100759819D02*
X94410714Y-100759819D01*
X94410714Y-100759819D02*
X94077381Y-101140771D01*
X94077381Y-101140771D02*
X94220238Y-101140771D01*
X94220238Y-101140771D02*
X94315476Y-101188390D01*
X94315476Y-101188390D02*
X94363095Y-101236009D01*
X94363095Y-101236009D02*
X94410714Y-101331247D01*
X94410714Y-101331247D02*
X94410714Y-101569342D01*
X94410714Y-101569342D02*
X94363095Y-101664580D01*
X94363095Y-101664580D02*
X94315476Y-101712200D01*
X94315476Y-101712200D02*
X94220238Y-101759819D01*
X94220238Y-101759819D02*
X93934524Y-101759819D01*
X93934524Y-101759819D02*
X93839286Y-101712200D01*
X93839286Y-101712200D02*
X93791667Y-101664580D01*
X94461905Y-124704819D02*
X94461905Y-123704819D01*
X94461905Y-123704819D02*
X94700000Y-123704819D01*
X94700000Y-123704819D02*
X94842857Y-123752438D01*
X94842857Y-123752438D02*
X94938095Y-123847676D01*
X94938095Y-123847676D02*
X94985714Y-123942914D01*
X94985714Y-123942914D02*
X95033333Y-124133390D01*
X95033333Y-124133390D02*
X95033333Y-124276247D01*
X95033333Y-124276247D02*
X94985714Y-124466723D01*
X94985714Y-124466723D02*
X94938095Y-124561961D01*
X94938095Y-124561961D02*
X94842857Y-124657200D01*
X94842857Y-124657200D02*
X94700000Y-124704819D01*
X94700000Y-124704819D02*
X94461905Y-124704819D01*
X95985714Y-124704819D02*
X95414286Y-124704819D01*
X95700000Y-124704819D02*
X95700000Y-123704819D01*
X95700000Y-123704819D02*
X95604762Y-123847676D01*
X95604762Y-123847676D02*
X95509524Y-123942914D01*
X95509524Y-123942914D02*
X95414286Y-123990533D01*
X100341666Y-117569819D02*
X100341666Y-118284104D01*
X100341666Y-118284104D02*
X100294047Y-118426961D01*
X100294047Y-118426961D02*
X100198809Y-118522200D01*
X100198809Y-118522200D02*
X100055952Y-118569819D01*
X100055952Y-118569819D02*
X99960714Y-118569819D01*
X100770238Y-117665057D02*
X100817857Y-117617438D01*
X100817857Y-117617438D02*
X100913095Y-117569819D01*
X100913095Y-117569819D02*
X101151190Y-117569819D01*
X101151190Y-117569819D02*
X101246428Y-117617438D01*
X101246428Y-117617438D02*
X101294047Y-117665057D01*
X101294047Y-117665057D02*
X101341666Y-117760295D01*
X101341666Y-117760295D02*
X101341666Y-117855533D01*
X101341666Y-117855533D02*
X101294047Y-117998390D01*
X101294047Y-117998390D02*
X100722619Y-118569819D01*
X100722619Y-118569819D02*
X101341666Y-118569819D01*
X100261905Y-100304819D02*
X100261905Y-99304819D01*
X100833333Y-100304819D02*
X100404762Y-99733390D01*
X100833333Y-99304819D02*
X100261905Y-99876247D01*
X101785714Y-100304819D02*
X101214286Y-100304819D01*
X101500000Y-100304819D02*
X101500000Y-99304819D01*
X101500000Y-99304819D02*
X101404762Y-99447676D01*
X101404762Y-99447676D02*
X101309524Y-99542914D01*
X101309524Y-99542914D02*
X101214286Y-99590533D01*
X90969819Y-99833333D02*
X91684104Y-99833333D01*
X91684104Y-99833333D02*
X91826961Y-99880952D01*
X91826961Y-99880952D02*
X91922200Y-99976190D01*
X91922200Y-99976190D02*
X91969819Y-100119047D01*
X91969819Y-100119047D02*
X91969819Y-100214285D01*
X91969819Y-98833333D02*
X91969819Y-99404761D01*
X91969819Y-99119047D02*
X90969819Y-99119047D01*
X90969819Y-99119047D02*
X91112676Y-99214285D01*
X91112676Y-99214285D02*
X91207914Y-99309523D01*
X91207914Y-99309523D02*
X91255533Y-99404761D01*
X100054761Y-98200057D02*
X99959523Y-98152438D01*
X99959523Y-98152438D02*
X99864285Y-98057200D01*
X99864285Y-98057200D02*
X99721428Y-97914342D01*
X99721428Y-97914342D02*
X99626190Y-97866723D01*
X99626190Y-97866723D02*
X99530952Y-97866723D01*
X99578571Y-98104819D02*
X99483333Y-98057200D01*
X99483333Y-98057200D02*
X99388095Y-97961961D01*
X99388095Y-97961961D02*
X99340476Y-97771485D01*
X99340476Y-97771485D02*
X99340476Y-97438152D01*
X99340476Y-97438152D02*
X99388095Y-97247676D01*
X99388095Y-97247676D02*
X99483333Y-97152438D01*
X99483333Y-97152438D02*
X99578571Y-97104819D01*
X99578571Y-97104819D02*
X99769047Y-97104819D01*
X99769047Y-97104819D02*
X99864285Y-97152438D01*
X99864285Y-97152438D02*
X99959523Y-97247676D01*
X99959523Y-97247676D02*
X100007142Y-97438152D01*
X100007142Y-97438152D02*
X100007142Y-97771485D01*
X100007142Y-97771485D02*
X99959523Y-97961961D01*
X99959523Y-97961961D02*
X99864285Y-98057200D01*
X99864285Y-98057200D02*
X99769047Y-98104819D01*
X99769047Y-98104819D02*
X99578571Y-98104819D01*
X100959523Y-98104819D02*
X100388095Y-98104819D01*
X100673809Y-98104819D02*
X100673809Y-97104819D01*
X100673809Y-97104819D02*
X100578571Y-97247676D01*
X100578571Y-97247676D02*
X100483333Y-97342914D01*
X100483333Y-97342914D02*
X100388095Y-97390533D01*
X98809580Y-116166666D02*
X98857200Y-116214285D01*
X98857200Y-116214285D02*
X98904819Y-116357142D01*
X98904819Y-116357142D02*
X98904819Y-116452380D01*
X98904819Y-116452380D02*
X98857200Y-116595237D01*
X98857200Y-116595237D02*
X98761961Y-116690475D01*
X98761961Y-116690475D02*
X98666723Y-116738094D01*
X98666723Y-116738094D02*
X98476247Y-116785713D01*
X98476247Y-116785713D02*
X98333390Y-116785713D01*
X98333390Y-116785713D02*
X98142914Y-116738094D01*
X98142914Y-116738094D02*
X98047676Y-116690475D01*
X98047676Y-116690475D02*
X97952438Y-116595237D01*
X97952438Y-116595237D02*
X97904819Y-116452380D01*
X97904819Y-116452380D02*
X97904819Y-116357142D01*
X97904819Y-116357142D02*
X97952438Y-116214285D01*
X97952438Y-116214285D02*
X98000057Y-116166666D01*
X98238152Y-115309523D02*
X98904819Y-115309523D01*
X97857200Y-115547618D02*
X98571485Y-115785713D01*
X98571485Y-115785713D02*
X98571485Y-115166666D01*
X93038095Y-105754819D02*
X93038095Y-106564342D01*
X93038095Y-106564342D02*
X93085714Y-106659580D01*
X93085714Y-106659580D02*
X93133333Y-106707200D01*
X93133333Y-106707200D02*
X93228571Y-106754819D01*
X93228571Y-106754819D02*
X93419047Y-106754819D01*
X93419047Y-106754819D02*
X93514285Y-106707200D01*
X93514285Y-106707200D02*
X93561904Y-106659580D01*
X93561904Y-106659580D02*
X93609523Y-106564342D01*
X93609523Y-106564342D02*
X93609523Y-105754819D01*
X94609523Y-106754819D02*
X94038095Y-106754819D01*
X94323809Y-106754819D02*
X94323809Y-105754819D01*
X94323809Y-105754819D02*
X94228571Y-105897676D01*
X94228571Y-105897676D02*
X94133333Y-105992914D01*
X94133333Y-105992914D02*
X94038095Y-106040533D01*
X87069819Y-124580238D02*
X86593628Y-124913571D01*
X87069819Y-125151666D02*
X86069819Y-125151666D01*
X86069819Y-125151666D02*
X86069819Y-124770714D01*
X86069819Y-124770714D02*
X86117438Y-124675476D01*
X86117438Y-124675476D02*
X86165057Y-124627857D01*
X86165057Y-124627857D02*
X86260295Y-124580238D01*
X86260295Y-124580238D02*
X86403152Y-124580238D01*
X86403152Y-124580238D02*
X86498390Y-124627857D01*
X86498390Y-124627857D02*
X86546009Y-124675476D01*
X86546009Y-124675476D02*
X86593628Y-124770714D01*
X86593628Y-124770714D02*
X86593628Y-125151666D01*
X86069819Y-124294523D02*
X87069819Y-123961190D01*
X87069819Y-123961190D02*
X86069819Y-123627857D01*
X87069819Y-122770714D02*
X87069819Y-123342142D01*
X87069819Y-123056428D02*
X86069819Y-123056428D01*
X86069819Y-123056428D02*
X86212676Y-123151666D01*
X86212676Y-123151666D02*
X86307914Y-123246904D01*
X86307914Y-123246904D02*
X86355533Y-123342142D01*
X94804819Y-118816666D02*
X94328628Y-119149999D01*
X94804819Y-119388094D02*
X93804819Y-119388094D01*
X93804819Y-119388094D02*
X93804819Y-119007142D01*
X93804819Y-119007142D02*
X93852438Y-118911904D01*
X93852438Y-118911904D02*
X93900057Y-118864285D01*
X93900057Y-118864285D02*
X93995295Y-118816666D01*
X93995295Y-118816666D02*
X94138152Y-118816666D01*
X94138152Y-118816666D02*
X94233390Y-118864285D01*
X94233390Y-118864285D02*
X94281009Y-118911904D01*
X94281009Y-118911904D02*
X94328628Y-119007142D01*
X94328628Y-119007142D02*
X94328628Y-119388094D01*
X93900057Y-118435713D02*
X93852438Y-118388094D01*
X93852438Y-118388094D02*
X93804819Y-118292856D01*
X93804819Y-118292856D02*
X93804819Y-118054761D01*
X93804819Y-118054761D02*
X93852438Y-117959523D01*
X93852438Y-117959523D02*
X93900057Y-117911904D01*
X93900057Y-117911904D02*
X93995295Y-117864285D01*
X93995295Y-117864285D02*
X94090533Y-117864285D01*
X94090533Y-117864285D02*
X94233390Y-117911904D01*
X94233390Y-117911904D02*
X94804819Y-118483332D01*
X94804819Y-118483332D02*
X94804819Y-117864285D01*
D11*
%TO.C,C2*%
X86240000Y-107820000D02*
X86240000Y-111905000D01*
X88110000Y-107820000D02*
X86240000Y-107820000D01*
X88110000Y-111905000D02*
X88110000Y-107820000D01*
%TO.C,C1*%
X104901248Y-98415000D02*
X105423752Y-98415000D01*
X104901248Y-99885000D02*
X105423752Y-99885000D01*
%TO.C,R1*%
X83865000Y-128827064D02*
X83865000Y-128372936D01*
X85335000Y-128827064D02*
X85335000Y-128372936D01*
%TO.C,C3*%
X92075000Y-104240000D02*
X96160000Y-104240000D01*
X96160000Y-102370000D02*
X92075000Y-102370000D01*
X96160000Y-104240000D02*
X96160000Y-102370000D01*
%TO.C,D1*%
X93590000Y-125250000D02*
X93590000Y-126950000D01*
X93590000Y-125250000D02*
X96250000Y-125250000D01*
X93590000Y-126950000D02*
X96250000Y-126950000D01*
D12*
%TO.C,J2*%
X97500000Y-121250000D02*
X97500000Y-132250000D01*
X97500000Y-121250000D02*
X109500000Y-121250000D01*
X97500000Y-132250000D02*
X109500000Y-132250000D01*
X109500000Y-121250000D02*
X109500000Y-132250000D01*
D13*
X103600000Y-120550000D02*
G75*
G02*
X103400000Y-120550000I-100000J0D01*
G01*
X103400000Y-120550000D02*
G75*
G02*
X103600000Y-120550000I100000J0D01*
G01*
D11*
%TO.C,K1*%
X100150000Y-100600000D02*
X100150000Y-101800000D01*
X100150000Y-100600000D02*
X109550000Y-100600000D01*
X100150000Y-101800000D02*
X98550000Y-101800000D01*
X100150000Y-115000000D02*
X100150000Y-113800000D01*
X109550000Y-100600000D02*
X109550000Y-101800000D01*
X109550000Y-115000000D02*
X100150000Y-115000000D01*
X109550000Y-115000000D02*
X109550000Y-113800000D01*
%TO.C,J1*%
X86585000Y-98390000D02*
X86585000Y-99192470D01*
X86585000Y-99807530D02*
X86585000Y-100610000D01*
X89060000Y-98390000D02*
X86585000Y-98390000D01*
X89060000Y-98390000D02*
X89060000Y-98936529D01*
X89060000Y-100063471D02*
X89060000Y-100610000D01*
X89060000Y-100610000D02*
X86585000Y-100610000D01*
X89820000Y-98390000D02*
X90580000Y-98390000D01*
X90580000Y-98390000D02*
X90580000Y-99500000D01*
%TO.C,Q1*%
X97112500Y-97140000D02*
X96462500Y-97140000D01*
X97112500Y-97140000D02*
X97762500Y-97140000D01*
X97112500Y-100260000D02*
X96462500Y-100260000D01*
X97112500Y-100260000D02*
X97762500Y-100260000D01*
X95950000Y-97190000D02*
X95710000Y-96860000D01*
X96190000Y-96860000D01*
X95950000Y-97190000D01*
G36*
X95950000Y-97190000D02*
G01*
X95710000Y-96860000D01*
X96190000Y-96860000D01*
X95950000Y-97190000D01*
G37*
%TO.C,C4*%
X95665000Y-114750000D02*
X95665000Y-118835000D01*
X95665000Y-118835000D02*
X97535000Y-118835000D01*
X97535000Y-118835000D02*
X97535000Y-114750000D01*
%TO.C,U1*%
X93800000Y-107140000D02*
X91850000Y-107140000D01*
X93800000Y-107140000D02*
X95750000Y-107140000D01*
X93800000Y-112260000D02*
X91850000Y-112260000D01*
X93800000Y-112260000D02*
X95750000Y-112260000D01*
X91100000Y-107235000D02*
X90860000Y-106905000D01*
X91340000Y-106905000D01*
X91100000Y-107235000D01*
G36*
X91100000Y-107235000D02*
G01*
X90860000Y-106905000D01*
X91340000Y-106905000D01*
X91100000Y-107235000D01*
G37*
%TO.C,RV1*%
X87745000Y-113580000D02*
X92815000Y-113580000D01*
X87745000Y-132870000D02*
X87745000Y-113580000D01*
X87745000Y-132870000D02*
X92815000Y-132870000D01*
X88981000Y-132871000D02*
X91580000Y-132871000D01*
X88981000Y-134390000D02*
X88981000Y-132871000D01*
X88981000Y-134390000D02*
X91580000Y-134390000D01*
X90280000Y-134390000D02*
X90280000Y-133631000D01*
X91580000Y-134390000D02*
X91580000Y-132871000D01*
X92815000Y-132870000D02*
X92815000Y-113580000D01*
%TO.C,R2*%
X93515000Y-115522936D02*
X93515000Y-115977064D01*
X94985000Y-115522936D02*
X94985000Y-115977064D01*
%TD*%
M02*
