%TF.GenerationSoftware,KiCad,Pcbnew,8.0.5-1.fc40*%
%TF.CreationDate,2024-09-30T00:07:45+02:00*%
%TF.ProjectId,ATU100 Alc interface Front,41545531-3030-4204-916c-6320696e7465,rev?*%
%TF.SameCoordinates,Original*%
%TF.FileFunction,Drillmap*%
%TF.FilePolarity,Positive*%
%FSLAX45Y45*%
G04 Gerber Fmt 4.5, Leading zero omitted, Abs format (unit mm)*
G04 Created by KiCad (PCBNEW 8.0.5-1.fc40) date 2024-09-30 00:07:45*
%MOMM*%
%LPD*%
G01*
G04 APERTURE LIST*
%ADD10C,0.050000*%
%ADD11C,0.100000*%
%ADD12C,0.200000*%
G04 APERTURE END LIST*
D10*
X16800000Y-10850000D02*
G75*
G02*
X16350000Y-11300000I-450000J0D01*
G01*
X8000000Y-10850000D02*
X8000000Y-7950000D01*
X8000000Y-7950000D02*
G75*
G02*
X8450000Y-7500000I450000J0D01*
G01*
X8475000Y-10750000D02*
G75*
G02*
X8125000Y-10750000I-175000J0D01*
G01*
X8125000Y-10750000D02*
G75*
G02*
X8475000Y-10750000I175000J0D01*
G01*
X9100000Y-8600000D02*
X11600000Y-8600000D01*
X11600000Y-9950000D01*
X9100000Y-9950000D01*
X9100000Y-8600000D01*
X8475000Y-8050000D02*
G75*
G02*
X8125000Y-8050000I-175000J0D01*
G01*
X8125000Y-8050000D02*
G75*
G02*
X8475000Y-8050000I175000J0D01*
G01*
X8450000Y-11300000D02*
G75*
G02*
X8000000Y-10850000I0J450000D01*
G01*
X14420000Y-10250000D02*
X15820000Y-10250000D01*
X15820000Y-11150000D01*
X14420000Y-11150000D01*
X14420000Y-10250000D01*
X11870000Y-8675000D02*
X13000000Y-8675000D01*
X13000000Y-9935000D01*
X11870000Y-9935000D01*
X11870000Y-8675000D01*
X16675000Y-8050000D02*
G75*
G02*
X16325000Y-8050000I-175000J0D01*
G01*
X16325000Y-8050000D02*
G75*
G02*
X16675000Y-8050000I175000J0D01*
G01*
X16800000Y-7950000D02*
X16800000Y-10850000D01*
D11*
X13662500Y-8125000D02*
G75*
G02*
X13062500Y-8125000I-300000J0D01*
G01*
X13062500Y-8125000D02*
G75*
G02*
X13662500Y-8125000I300000J0D01*
G01*
D10*
X16675000Y-10750000D02*
G75*
G02*
X16325000Y-10750000I-175000J0D01*
G01*
X16325000Y-10750000D02*
G75*
G02*
X16675000Y-10750000I175000J0D01*
G01*
X13615000Y-8675000D02*
X14745000Y-8675000D01*
X14745000Y-9935000D01*
X13615000Y-9935000D01*
X13615000Y-8675000D01*
X15360000Y-8675000D02*
X16490000Y-8675000D01*
X16490000Y-9935000D01*
X15360000Y-9935000D01*
X15360000Y-8675000D01*
X12670000Y-10700000D02*
X13470000Y-10700000D01*
X13470000Y-11000000D01*
X12670000Y-11000000D01*
X12670000Y-10700000D01*
X8450000Y-7500000D02*
X16350000Y-7500000D01*
D11*
X14837500Y-8345000D02*
G75*
G02*
X14537500Y-8345000I-150000J0D01*
G01*
X14537500Y-8345000D02*
G75*
G02*
X14837500Y-8345000I150000J0D01*
G01*
D10*
X12175000Y-10525000D02*
G75*
G02*
X11675000Y-10525000I-250000J0D01*
G01*
X11675000Y-10525000D02*
G75*
G02*
X12175000Y-10525000I250000J0D01*
G01*
X16350000Y-11300000D02*
X8450000Y-11300000D01*
X16350000Y-7500000D02*
G75*
G02*
X16800000Y-7950000I0J-450000D01*
G01*
D12*
X8258277Y-11613984D02*
X8258277Y-11413984D01*
X8258277Y-11413984D02*
X8305896Y-11413984D01*
X8305896Y-11413984D02*
X8334467Y-11423508D01*
X8334467Y-11423508D02*
X8353515Y-11442555D01*
X8353515Y-11442555D02*
X8363039Y-11461603D01*
X8363039Y-11461603D02*
X8372562Y-11499698D01*
X8372562Y-11499698D02*
X8372562Y-11528269D01*
X8372562Y-11528269D02*
X8363039Y-11566365D01*
X8363039Y-11566365D02*
X8353515Y-11585412D01*
X8353515Y-11585412D02*
X8334467Y-11604460D01*
X8334467Y-11604460D02*
X8305896Y-11613984D01*
X8305896Y-11613984D02*
X8258277Y-11613984D01*
X8458277Y-11613984D02*
X8458277Y-11480650D01*
X8458277Y-11518746D02*
X8467801Y-11499698D01*
X8467801Y-11499698D02*
X8477324Y-11490174D01*
X8477324Y-11490174D02*
X8496372Y-11480650D01*
X8496372Y-11480650D02*
X8515420Y-11480650D01*
X8582086Y-11613984D02*
X8582086Y-11480650D01*
X8582086Y-11413984D02*
X8572563Y-11423508D01*
X8572563Y-11423508D02*
X8582086Y-11433031D01*
X8582086Y-11433031D02*
X8591610Y-11423508D01*
X8591610Y-11423508D02*
X8582086Y-11413984D01*
X8582086Y-11413984D02*
X8582086Y-11433031D01*
X8705896Y-11613984D02*
X8686848Y-11604460D01*
X8686848Y-11604460D02*
X8677324Y-11585412D01*
X8677324Y-11585412D02*
X8677324Y-11413984D01*
X8810658Y-11613984D02*
X8791610Y-11604460D01*
X8791610Y-11604460D02*
X8782086Y-11585412D01*
X8782086Y-11585412D02*
X8782086Y-11413984D01*
X9039229Y-11613984D02*
X9039229Y-11413984D01*
X9039229Y-11413984D02*
X9105896Y-11556841D01*
X9105896Y-11556841D02*
X9172563Y-11413984D01*
X9172563Y-11413984D02*
X9172563Y-11613984D01*
X9353515Y-11613984D02*
X9353515Y-11509222D01*
X9353515Y-11509222D02*
X9343991Y-11490174D01*
X9343991Y-11490174D02*
X9324944Y-11480650D01*
X9324944Y-11480650D02*
X9286848Y-11480650D01*
X9286848Y-11480650D02*
X9267801Y-11490174D01*
X9353515Y-11604460D02*
X9334467Y-11613984D01*
X9334467Y-11613984D02*
X9286848Y-11613984D01*
X9286848Y-11613984D02*
X9267801Y-11604460D01*
X9267801Y-11604460D02*
X9258277Y-11585412D01*
X9258277Y-11585412D02*
X9258277Y-11566365D01*
X9258277Y-11566365D02*
X9267801Y-11547317D01*
X9267801Y-11547317D02*
X9286848Y-11537793D01*
X9286848Y-11537793D02*
X9334467Y-11537793D01*
X9334467Y-11537793D02*
X9353515Y-11528269D01*
X9448753Y-11480650D02*
X9448753Y-11680650D01*
X9448753Y-11490174D02*
X9467801Y-11480650D01*
X9467801Y-11480650D02*
X9505896Y-11480650D01*
X9505896Y-11480650D02*
X9524944Y-11490174D01*
X9524944Y-11490174D02*
X9534467Y-11499698D01*
X9534467Y-11499698D02*
X9543991Y-11518746D01*
X9543991Y-11518746D02*
X9543991Y-11575888D01*
X9543991Y-11575888D02*
X9534467Y-11594936D01*
X9534467Y-11594936D02*
X9524944Y-11604460D01*
X9524944Y-11604460D02*
X9505896Y-11613984D01*
X9505896Y-11613984D02*
X9467801Y-11613984D01*
X9467801Y-11613984D02*
X9448753Y-11604460D01*
X9629705Y-11594936D02*
X9639229Y-11604460D01*
X9639229Y-11604460D02*
X9629705Y-11613984D01*
X9629705Y-11613984D02*
X9620182Y-11604460D01*
X9620182Y-11604460D02*
X9629705Y-11594936D01*
X9629705Y-11594936D02*
X9629705Y-11613984D01*
X9629705Y-11490174D02*
X9639229Y-11499698D01*
X9639229Y-11499698D02*
X9629705Y-11509222D01*
X9629705Y-11509222D02*
X9620182Y-11499698D01*
X9620182Y-11499698D02*
X9629705Y-11490174D01*
X9629705Y-11490174D02*
X9629705Y-11509222D01*
M02*
