%TF.GenerationSoftware,KiCad,Pcbnew,8.0.4-1.fc40*%
%TF.CreationDate,2024-08-27T20:57:41+02:00*%
%TF.ProjectId,ATU100 Alc interface,41545531-3030-4204-916c-6320696e7465,rev?*%
%TF.SameCoordinates,Original*%
%TF.FileFunction,Copper,L1,Top*%
%TF.FilePolarity,Positive*%
%FSLAX46Y46*%
G04 Gerber Fmt 4.6, Leading zero omitted, Abs format (unit mm)*
G04 Created by KiCad (PCBNEW 8.0.4-1.fc40) date 2024-08-27 20:57:41*
%MOMM*%
%LPD*%
G01*
G04 APERTURE LIST*
G04 Aperture macros list*
%AMRoundRect*
0 Rectangle with rounded corners*
0 $1 Rounding radius*
0 $2 $3 $4 $5 $6 $7 $8 $9 X,Y pos of 4 corners*
0 Add a 4 corners polygon primitive as box body*
4,1,4,$2,$3,$4,$5,$6,$7,$8,$9,$2,$3,0*
0 Add four circle primitives for the rounded corners*
1,1,$1+$1,$2,$3*
1,1,$1+$1,$4,$5*
1,1,$1+$1,$6,$7*
1,1,$1+$1,$8,$9*
0 Add four rect primitives between the rounded corners*
20,1,$1+$1,$2,$3,$4,$5,0*
20,1,$1+$1,$4,$5,$6,$7,0*
20,1,$1+$1,$6,$7,$8,$9,0*
20,1,$1+$1,$8,$9,$2,$3,0*%
G04 Aperture macros list end*
%TA.AperFunction,Conductor*%
%ADD10C,0.200000*%
%TD*%
%TA.AperFunction,SMDPad,CuDef*%
%ADD11RoundRect,0.250000X-0.425000X0.537500X-0.425000X-0.537500X0.425000X-0.537500X0.425000X0.537500X0*%
%TD*%
%TA.AperFunction,SMDPad,CuDef*%
%ADD12RoundRect,0.250000X-0.337500X-0.475000X0.337500X-0.475000X0.337500X0.475000X-0.337500X0.475000X0*%
%TD*%
%TA.AperFunction,SMDPad,CuDef*%
%ADD13RoundRect,0.250000X0.450000X-0.350000X0.450000X0.350000X-0.450000X0.350000X-0.450000X-0.350000X0*%
%TD*%
%TA.AperFunction,SMDPad,CuDef*%
%ADD14RoundRect,0.250000X0.537500X0.425000X-0.537500X0.425000X-0.537500X-0.425000X0.537500X-0.425000X0*%
%TD*%
%TA.AperFunction,SMDPad,CuDef*%
%ADD15RoundRect,0.112500X-0.187500X-0.112500X0.187500X-0.112500X0.187500X0.112500X-0.187500X0.112500X0*%
%TD*%
%TA.AperFunction,ComponentPad*%
%ADD16O,2.616000X1.308000*%
%TD*%
%TA.AperFunction,ComponentPad*%
%ADD17O,1.308000X2.616000*%
%TD*%
%TA.AperFunction,SMDPad,CuDef*%
%ADD18R,3.000000X1.000000*%
%TD*%
%TA.AperFunction,ComponentPad*%
%ADD19R,1.000000X1.000000*%
%TD*%
%TA.AperFunction,ComponentPad*%
%ADD20O,1.000000X1.000000*%
%TD*%
%TA.AperFunction,SMDPad,CuDef*%
%ADD21RoundRect,0.150000X-0.587500X-0.150000X0.587500X-0.150000X0.587500X0.150000X-0.587500X0.150000X0*%
%TD*%
%TA.AperFunction,SMDPad,CuDef*%
%ADD22RoundRect,0.250000X0.425000X-0.537500X0.425000X0.537500X-0.425000X0.537500X-0.425000X-0.537500X0*%
%TD*%
%TA.AperFunction,SMDPad,CuDef*%
%ADD23RoundRect,0.150000X-0.825000X-0.150000X0.825000X-0.150000X0.825000X0.150000X-0.825000X0.150000X0*%
%TD*%
%TA.AperFunction,ComponentPad*%
%ADD24C,1.800000*%
%TD*%
%TA.AperFunction,SMDPad,CuDef*%
%ADD25RoundRect,0.250000X-0.450000X0.350000X-0.450000X-0.350000X0.450000X-0.350000X0.450000X0.350000X0*%
%TD*%
%TA.AperFunction,ViaPad*%
%ADD26C,0.600000*%
%TD*%
G04 APERTURE END LIST*
D10*
%TO.N,Net-(U1-BOOST)*%
X96400000Y-107800000D02*
X100100000Y-107800000D01*
%TO.N,Net-(Q1-D)*%
X107812500Y-99150000D02*
X106162500Y-99150000D01*
%TO.N,Net-(J1-Pin_1)*%
X104050000Y-100500000D02*
X104050000Y-99150000D01*
%TO.N,Net-(Q1-D)*%
X107812500Y-99150000D02*
X107800000Y-102700000D01*
%TO.N,Net-(D1-K)*%
X94100000Y-126100000D02*
X90700000Y-126100000D01*
%TO.N,Net-(U1-VOUT)*%
X96700000Y-111600000D02*
X96650000Y-114750000D01*
%TD*%
D11*
%TO.P,C2,1*%
%TO.N,Net-(U1-CAP+)*%
X87175000Y-108867500D03*
%TO.P,C2,2*%
%TO.N,Net-(U1-CAP-)*%
X87175000Y-111742500D03*
%TD*%
D12*
%TO.P,C1,1*%
%TO.N,Net-(J1-Pin_1)*%
X104125000Y-99150000D03*
%TO.P,C1,2*%
%TO.N,Net-(Q1-D)*%
X106200000Y-99150000D03*
%TD*%
D13*
%TO.P,R1,1*%
%TO.N,Net-(R1-Pad1)*%
X84600000Y-129600000D03*
%TO.P,R1,2*%
%TO.N,GND*%
X84600000Y-127600000D03*
%TD*%
D14*
%TO.P,C3,1*%
%TO.N,Net-(U1-BOOST)*%
X95112500Y-103305000D03*
%TO.P,C3,2*%
%TO.N,GND*%
X92237500Y-103305000D03*
%TD*%
D15*
%TO.P,D1,1,K*%
%TO.N,Net-(D1-K)*%
X94150000Y-126100000D03*
%TO.P,D1,2,A*%
%TO.N,Net-(D1-A)*%
X96250000Y-126100000D03*
%TD*%
D16*
%TO.P,J2,1*%
%TO.N,GND*%
X103500000Y-128750000D03*
D17*
%TO.P,J2,2*%
%TO.N,Net-(D1-A)*%
X108500000Y-123750000D03*
%TO.P,J2,3*%
%TO.N,Net-(J2-Pad3)*%
X98500000Y-123750000D03*
%TD*%
D18*
%TO.P,K1,1*%
%TO.N,Net-(J1-Pin_1)*%
X100070000Y-102720000D03*
%TO.P,K1,2*%
%TO.N,unconnected-(K1-Pad2)*%
X100070000Y-105260000D03*
%TO.P,K1,3*%
%TO.N,Net-(U1-BOOST)*%
X100070000Y-107800000D03*
%TO.P,K1,4*%
%TO.N,Net-(J1-Pin_1)*%
X100070000Y-110340000D03*
%TO.P,K1,5*%
%TO.N,N/C*%
X100070000Y-112880000D03*
%TO.P,K1,6*%
X109630000Y-112880000D03*
%TO.P,K1,7*%
%TO.N,Net-(J2-Pad3)*%
X109630000Y-110340000D03*
%TO.P,K1,8*%
%TO.N,GND*%
X109630000Y-107800000D03*
%TO.P,K1,9*%
%TO.N,unconnected-(K1-Pad9)*%
X109630000Y-105260000D03*
%TO.P,K1,10*%
%TO.N,Net-(Q1-D)*%
X109630000Y-102720000D03*
%TD*%
D19*
%TO.P,J1,1,Pin_1*%
%TO.N,Net-(J1-Pin_1)*%
X89820000Y-99500000D03*
D20*
%TO.P,J1,2,Pin_2*%
%TO.N,Net-(J1-Pin_2)*%
X88550000Y-99500000D03*
%TO.P,J1,3,Pin_3*%
%TO.N,GND*%
X87280000Y-99500000D03*
%TD*%
D21*
%TO.P,Q1,1,G*%
%TO.N,Net-(J1-Pin_2)*%
X96175000Y-97750000D03*
%TO.P,Q1,2,S*%
%TO.N,GND*%
X96175000Y-99650000D03*
%TO.P,Q1,3,D*%
%TO.N,Net-(Q1-D)*%
X98050000Y-98700000D03*
%TD*%
D22*
%TO.P,C4,1*%
%TO.N,GND*%
X96600000Y-117787500D03*
%TO.P,C4,2*%
%TO.N,Net-(U1-VOUT)*%
X96600000Y-114912500D03*
%TD*%
D23*
%TO.P,U1,1,BOOST*%
%TO.N,Net-(U1-BOOST)*%
X91325000Y-107795000D03*
%TO.P,U1,2,CAP+*%
%TO.N,Net-(U1-CAP+)*%
X91325000Y-109065000D03*
%TO.P,U1,3,GND*%
%TO.N,GND*%
X91325000Y-110335000D03*
%TO.P,U1,4,CAP-*%
%TO.N,Net-(U1-CAP-)*%
X91325000Y-111605000D03*
%TO.P,U1,5,VOUT*%
%TO.N,Net-(U1-VOUT)*%
X96275000Y-111605000D03*
%TO.P,U1,6,LV*%
%TO.N,unconnected-(U1-LV-Pad6)*%
X96275000Y-110335000D03*
%TO.P,U1,7,OSC*%
%TO.N,unconnected-(U1-OSC-Pad7)*%
X96275000Y-109065000D03*
%TO.P,U1,8,V+*%
%TO.N,Net-(U1-BOOST)*%
X96275000Y-107795000D03*
%TD*%
D24*
%TO.P,RV1,1,1*%
%TO.N,Net-(R2-Pad2)*%
X91550000Y-116750000D03*
%TO.P,RV1,2,2*%
%TO.N,Net-(D1-K)*%
X89010000Y-124370000D03*
%TO.P,RV1,3,3*%
%TO.N,Net-(R1-Pad1)*%
X91550000Y-129450000D03*
%TD*%
D25*
%TO.P,R2,1*%
%TO.N,Net-(U1-VOUT)*%
X94250000Y-114750000D03*
%TO.P,R2,2*%
%TO.N,Net-(R2-Pad2)*%
X94250000Y-116750000D03*
%TD*%
D26*
%TO.N,GND*%
X86200000Y-132050000D03*
X94950000Y-132100000D03*
X96750000Y-101200000D03*
X110950000Y-132100000D03*
X92650000Y-101200000D03*
%TD*%
D10*
%TO.N,Net-(Q1-D)*%
X105175000Y-98125000D02*
X98625000Y-98125000D01*
X98625000Y-98125000D02*
X98050000Y-98700000D01*
X109630000Y-102720000D02*
X107828000Y-102720000D01*
X106200000Y-99150000D02*
X105175000Y-98125000D01*
%TO.N,Net-(J1-Pin_1)*%
X89820000Y-99500000D02*
X93054744Y-99500000D01*
X104055000Y-100535000D02*
X101870000Y-102720000D01*
X93054744Y-99500000D02*
X96274744Y-102720000D01*
X96274744Y-102720000D02*
X100070000Y-102720000D01*
X101872000Y-110340000D02*
X102673000Y-109538000D01*
X102673000Y-103523000D02*
X102673000Y-109538000D01*
X101870000Y-102720000D02*
X102673000Y-103523000D01*
X100070000Y-110340000D02*
X101872000Y-110340000D01*
X100070000Y-102720000D02*
X101870000Y-102720000D01*
%TO.N,Net-(U1-CAP-)*%
X87175500Y-111743000D02*
X87175000Y-111742500D01*
X91325000Y-111605000D02*
X91187500Y-111743000D01*
X91187500Y-111743000D02*
X87175500Y-111743000D01*
X87175500Y-111743000D02*
X87175000Y-111743000D01*
%TO.N,Net-(U1-CAP+)*%
X87175000Y-108867500D02*
X87175200Y-108867300D01*
X91325000Y-109065000D02*
X87372500Y-109065000D01*
X87372500Y-109065000D02*
X87175200Y-108867300D01*
%TO.N,Net-(U1-BOOST)*%
X95112500Y-107795000D02*
X91325000Y-107795000D01*
X95112500Y-107795000D02*
X95112500Y-103305000D01*
X97215000Y-107795000D02*
X96275000Y-107795000D01*
X95112500Y-107795000D02*
X96275000Y-107795000D01*
%TO.N,Net-(U1-VOUT)*%
X96437500Y-114750000D02*
X96600000Y-114912500D01*
X94250000Y-114750000D02*
X96437500Y-114750000D01*
%TO.N,Net-(J1-Pin_2)*%
X88550000Y-98792894D02*
X89592894Y-97750000D01*
X89592894Y-97750000D02*
X96175000Y-97750000D01*
X88550000Y-99500000D02*
X88550000Y-98792894D01*
%TO.N,Net-(R1-Pad1)*%
X91550000Y-129450000D02*
X84750000Y-129450000D01*
X84750000Y-129450000D02*
X84600000Y-129600000D01*
%TO.N,Net-(R2-Pad2)*%
X91550000Y-116750000D02*
X91450000Y-116650000D01*
X94250000Y-116750000D02*
X91550000Y-116750000D01*
%TO.N,GND*%
X84600000Y-127078000D02*
X84600000Y-127600000D01*
%TO.N,Net-(D1-K)*%
X90763200Y-126123000D02*
X89010000Y-124370000D01*
%TO.N,Net-(D1-A)*%
X108500000Y-125600000D02*
X108500000Y-124650000D01*
X96250000Y-126200000D02*
X97550000Y-127500000D01*
X106600000Y-127500000D02*
X108500000Y-125600000D01*
X96250000Y-126100000D02*
X96250000Y-126200000D01*
X97550000Y-127500000D02*
X106600000Y-127500000D01*
%TO.N,Net-(J2-Pad3)*%
X109630000Y-110340000D02*
X105960000Y-110340000D01*
X98500000Y-123850000D02*
X98500000Y-123650000D01*
X105960000Y-110340000D02*
X98500000Y-117800000D01*
X98500000Y-117800000D02*
X98500000Y-124650000D01*
%TD*%
%TA.AperFunction,Conductor*%
%TO.N,GND*%
G36*
X95275260Y-96820185D02*
G01*
X95321015Y-96872989D01*
X95330959Y-96942147D01*
X95301934Y-97005703D01*
X95271342Y-97031232D01*
X95185638Y-97081916D01*
X95185629Y-97081923D01*
X95154374Y-97113180D01*
X95093052Y-97146666D01*
X95066692Y-97149500D01*
X89679563Y-97149500D01*
X89679547Y-97149499D01*
X89671951Y-97149499D01*
X89513837Y-97149499D01*
X89399291Y-97180192D01*
X89361108Y-97190423D01*
X89350576Y-97196504D01*
X89347763Y-97198129D01*
X89347754Y-97198134D01*
X89347751Y-97198135D01*
X89224184Y-97269475D01*
X89224176Y-97269481D01*
X88069481Y-98424176D01*
X88069479Y-98424179D01*
X88029334Y-98493714D01*
X88029333Y-98493715D01*
X87990423Y-98561108D01*
X87990422Y-98561112D01*
X87987562Y-98571785D01*
X87951196Y-98631444D01*
X87888348Y-98661972D01*
X87818972Y-98653675D01*
X87809335Y-98649046D01*
X87664541Y-98571652D01*
X87530000Y-98530839D01*
X87530000Y-99290382D01*
X87479554Y-99239936D01*
X87405445Y-99197149D01*
X87322787Y-99175000D01*
X87237213Y-99175000D01*
X87154555Y-99197149D01*
X87080446Y-99239936D01*
X87019936Y-99300446D01*
X86977149Y-99374555D01*
X86955000Y-99457213D01*
X86955000Y-99542787D01*
X86977149Y-99625445D01*
X87019936Y-99699554D01*
X87080446Y-99760064D01*
X87154555Y-99802851D01*
X87237213Y-99825000D01*
X87322787Y-99825000D01*
X87405445Y-99802851D01*
X87479554Y-99760064D01*
X87530000Y-99709618D01*
X87530000Y-100469159D01*
X87664534Y-100428349D01*
X87838259Y-100335492D01*
X87843320Y-100332111D01*
X87844444Y-100333793D01*
X87900203Y-100310086D01*
X87969075Y-100321851D01*
X87986186Y-100332843D01*
X87986399Y-100332526D01*
X87991457Y-100335906D01*
X87991462Y-100335910D01*
X88129594Y-100409743D01*
X88163147Y-100427678D01*
X88165273Y-100428814D01*
X88353868Y-100486024D01*
X88550000Y-100505341D01*
X88746132Y-100486024D01*
X88934727Y-100428814D01*
X88936853Y-100427677D01*
X88938095Y-100427418D01*
X88940355Y-100426483D01*
X88940532Y-100426911D01*
X89005254Y-100413435D01*
X89069615Y-100437767D01*
X89077669Y-100443796D01*
X89088445Y-100447815D01*
X89212517Y-100494091D01*
X89212516Y-100494091D01*
X89219444Y-100494835D01*
X89272127Y-100500500D01*
X90367872Y-100500499D01*
X90427483Y-100494091D01*
X90562331Y-100443796D01*
X90677546Y-100357546D01*
X90763796Y-100242331D01*
X90769886Y-100226002D01*
X90786609Y-100181167D01*
X90828480Y-100125233D01*
X90893944Y-100100816D01*
X90902791Y-100100500D01*
X92754647Y-100100500D01*
X92821686Y-100120185D01*
X92842328Y-100136819D01*
X94623328Y-101917819D01*
X94656813Y-101979142D01*
X94651829Y-102048834D01*
X94609957Y-102104767D01*
X94544493Y-102129184D01*
X94535656Y-102129500D01*
X94525003Y-102129500D01*
X94524980Y-102129501D01*
X94422203Y-102140000D01*
X94422200Y-102140001D01*
X94255668Y-102195185D01*
X94255663Y-102195187D01*
X94106342Y-102287289D01*
X93982289Y-102411342D01*
X93890187Y-102560663D01*
X93890185Y-102560668D01*
X93862349Y-102644670D01*
X93835001Y-102727203D01*
X93835001Y-102727204D01*
X93835000Y-102727204D01*
X93824500Y-102829983D01*
X93824500Y-103780001D01*
X93824501Y-103780019D01*
X93835000Y-103882796D01*
X93835001Y-103882799D01*
X93890115Y-104049119D01*
X93890186Y-104049334D01*
X93982288Y-104198656D01*
X94106344Y-104322712D01*
X94255666Y-104414814D01*
X94403924Y-104463941D01*
X94427004Y-104471590D01*
X94484449Y-104511363D01*
X94511272Y-104575879D01*
X94512000Y-104589296D01*
X94512000Y-107070500D01*
X94492315Y-107137539D01*
X94439511Y-107183294D01*
X94388000Y-107194500D01*
X92670808Y-107194500D01*
X92603769Y-107174815D01*
X92583126Y-107158180D01*
X92551870Y-107126923D01*
X92551862Y-107126917D01*
X92435170Y-107057906D01*
X92410398Y-107043256D01*
X92410397Y-107043255D01*
X92410396Y-107043255D01*
X92410393Y-107043254D01*
X92252573Y-106997402D01*
X92252567Y-106997401D01*
X92215701Y-106994500D01*
X92215694Y-106994500D01*
X90434306Y-106994500D01*
X90434298Y-106994500D01*
X90397432Y-106997401D01*
X90397426Y-106997402D01*
X90239606Y-107043254D01*
X90239603Y-107043255D01*
X90098137Y-107126917D01*
X90098129Y-107126923D01*
X89981923Y-107243129D01*
X89981917Y-107243137D01*
X89898255Y-107384603D01*
X89898254Y-107384606D01*
X89852402Y-107542426D01*
X89852401Y-107542432D01*
X89849500Y-107579298D01*
X89849500Y-108010701D01*
X89852401Y-108047567D01*
X89852402Y-108047573D01*
X89898254Y-108205393D01*
X89898257Y-108205400D01*
X89940825Y-108277380D01*
X89958008Y-108345104D01*
X89935848Y-108411366D01*
X89881381Y-108455129D01*
X89834093Y-108464500D01*
X88474499Y-108464500D01*
X88407460Y-108444815D01*
X88361705Y-108392011D01*
X88350499Y-108340500D01*
X88350499Y-108279998D01*
X88350498Y-108279981D01*
X88339999Y-108177203D01*
X88339998Y-108177200D01*
X88297848Y-108050000D01*
X88284814Y-108010666D01*
X88192712Y-107861344D01*
X88068656Y-107737288D01*
X87919334Y-107645186D01*
X87752797Y-107590001D01*
X87752795Y-107590000D01*
X87650010Y-107579500D01*
X86699998Y-107579500D01*
X86699980Y-107579501D01*
X86597203Y-107590000D01*
X86597200Y-107590001D01*
X86430668Y-107645185D01*
X86430663Y-107645187D01*
X86281342Y-107737289D01*
X86157289Y-107861342D01*
X86065187Y-108010663D01*
X86065185Y-108010668D01*
X86052956Y-108047573D01*
X86010001Y-108177203D01*
X86010001Y-108177204D01*
X86010000Y-108177204D01*
X85999500Y-108279983D01*
X85999500Y-109455001D01*
X85999501Y-109455018D01*
X86010000Y-109557796D01*
X86010001Y-109557799D01*
X86065185Y-109724331D01*
X86065187Y-109724336D01*
X86070233Y-109732517D01*
X86157288Y-109873656D01*
X86281344Y-109997712D01*
X86430666Y-110089814D01*
X86597203Y-110144999D01*
X86699991Y-110155500D01*
X87650008Y-110155499D01*
X87650016Y-110155498D01*
X87650019Y-110155498D01*
X87706302Y-110149748D01*
X87752797Y-110144999D01*
X87919334Y-110089814D01*
X88068656Y-109997712D01*
X88192712Y-109873656D01*
X88284771Y-109724402D01*
X88336719Y-109677679D01*
X88390310Y-109665500D01*
X89834674Y-109665500D01*
X89901713Y-109685185D01*
X89947468Y-109737989D01*
X89957412Y-109807147D01*
X89941406Y-109852621D01*
X89898718Y-109924801D01*
X89852899Y-110082513D01*
X89852704Y-110084998D01*
X89852705Y-110085000D01*
X92797295Y-110085000D01*
X92797295Y-110084998D01*
X92797100Y-110082513D01*
X92751281Y-109924801D01*
X92667685Y-109783447D01*
X92662900Y-109777278D01*
X92665366Y-109775364D01*
X92638802Y-109726776D01*
X92643749Y-109657082D01*
X92664856Y-109624232D01*
X92663301Y-109623026D01*
X92668077Y-109616868D01*
X92668081Y-109616865D01*
X92751744Y-109475398D01*
X92797598Y-109317569D01*
X92800500Y-109280694D01*
X92800500Y-108849306D01*
X92797598Y-108812431D01*
X92794131Y-108800499D01*
X92757110Y-108673071D01*
X92751744Y-108654602D01*
X92742871Y-108639598D01*
X92709175Y-108582620D01*
X92691992Y-108514896D01*
X92714152Y-108448634D01*
X92768619Y-108404871D01*
X92815907Y-108395500D01*
X94784093Y-108395500D01*
X94851132Y-108415185D01*
X94896887Y-108467989D01*
X94906831Y-108537147D01*
X94890825Y-108582620D01*
X94848257Y-108654599D01*
X94848254Y-108654606D01*
X94802402Y-108812426D01*
X94802401Y-108812432D01*
X94799500Y-108849298D01*
X94799500Y-109280701D01*
X94802401Y-109317567D01*
X94802402Y-109317573D01*
X94848254Y-109475393D01*
X94848255Y-109475396D01*
X94848256Y-109475398D01*
X94884925Y-109537402D01*
X94931917Y-109616862D01*
X94936702Y-109623031D01*
X94934256Y-109624927D01*
X94960857Y-109673642D01*
X94955873Y-109743334D01*
X94935069Y-109775703D01*
X94936702Y-109776969D01*
X94931917Y-109783137D01*
X94848255Y-109924603D01*
X94848254Y-109924606D01*
X94802402Y-110082426D01*
X94802401Y-110082432D01*
X94799500Y-110119298D01*
X94799500Y-110550701D01*
X94802401Y-110587567D01*
X94802402Y-110587573D01*
X94848254Y-110745393D01*
X94848255Y-110745396D01*
X94848256Y-110745398D01*
X94859833Y-110764974D01*
X94931917Y-110886862D01*
X94936702Y-110893031D01*
X94934256Y-110894927D01*
X94960857Y-110943642D01*
X94955873Y-111013334D01*
X94935069Y-111045703D01*
X94936702Y-111046969D01*
X94931917Y-111053137D01*
X94848255Y-111194603D01*
X94848254Y-111194606D01*
X94802402Y-111352426D01*
X94802401Y-111352432D01*
X94799500Y-111389298D01*
X94799500Y-111820701D01*
X94802401Y-111857567D01*
X94802402Y-111857573D01*
X94848254Y-112015393D01*
X94848255Y-112015396D01*
X94848256Y-112015398D01*
X94885681Y-112078681D01*
X94931917Y-112156862D01*
X94931923Y-112156870D01*
X95048129Y-112273076D01*
X95048133Y-112273079D01*
X95048135Y-112273081D01*
X95189602Y-112356744D01*
X95231224Y-112368836D01*
X95347426Y-112402597D01*
X95347429Y-112402597D01*
X95347431Y-112402598D01*
X95384306Y-112405500D01*
X95960654Y-112405500D01*
X96027693Y-112425185D01*
X96073448Y-112477989D01*
X96084638Y-112531468D01*
X96068757Y-113531996D01*
X96048011Y-113598715D01*
X95994488Y-113643626D01*
X95983777Y-113647734D01*
X95855668Y-113690185D01*
X95855663Y-113690187D01*
X95706342Y-113782289D01*
X95582287Y-113906344D01*
X95535327Y-113982478D01*
X95483379Y-114029202D01*
X95414416Y-114040423D01*
X95350334Y-114012579D01*
X95324250Y-113982476D01*
X95292712Y-113931344D01*
X95168657Y-113807289D01*
X95168656Y-113807288D01*
X95019334Y-113715186D01*
X94852797Y-113660001D01*
X94852795Y-113660000D01*
X94750010Y-113649500D01*
X93749998Y-113649500D01*
X93749980Y-113649501D01*
X93647203Y-113660000D01*
X93647200Y-113660001D01*
X93480668Y-113715185D01*
X93480663Y-113715187D01*
X93331342Y-113807289D01*
X93207289Y-113931342D01*
X93115187Y-114080663D01*
X93115185Y-114080668D01*
X93092377Y-114149500D01*
X93060001Y-114247203D01*
X93060001Y-114247204D01*
X93060000Y-114247204D01*
X93049500Y-114349983D01*
X93049500Y-115150001D01*
X93049501Y-115150019D01*
X93060000Y-115252796D01*
X93060001Y-115252799D01*
X93104704Y-115387702D01*
X93115186Y-115419334D01*
X93164946Y-115500009D01*
X93207289Y-115568657D01*
X93300951Y-115662319D01*
X93334436Y-115723642D01*
X93329452Y-115793334D01*
X93300951Y-115837681D01*
X93207289Y-115931342D01*
X93207288Y-115931344D01*
X93138598Y-116042710D01*
X93111395Y-116086813D01*
X93109600Y-116085706D01*
X93070313Y-116130337D01*
X93004092Y-116149500D01*
X92896801Y-116149500D01*
X92829762Y-116129815D01*
X92787747Y-116084519D01*
X92785924Y-116081151D01*
X92658983Y-115886852D01*
X92658980Y-115886849D01*
X92658979Y-115886847D01*
X92501784Y-115716087D01*
X92501779Y-115716083D01*
X92501777Y-115716081D01*
X92318634Y-115573535D01*
X92318628Y-115573531D01*
X92114504Y-115463064D01*
X92114495Y-115463061D01*
X91894984Y-115387702D01*
X91723282Y-115359050D01*
X91666049Y-115349500D01*
X91433951Y-115349500D01*
X91388164Y-115357140D01*
X91205015Y-115387702D01*
X90985504Y-115463061D01*
X90985495Y-115463064D01*
X90781371Y-115573531D01*
X90781365Y-115573535D01*
X90598222Y-115716081D01*
X90598219Y-115716084D01*
X90441016Y-115886852D01*
X90314075Y-116081151D01*
X90220842Y-116293699D01*
X90163866Y-116518691D01*
X90163864Y-116518702D01*
X90144700Y-116749993D01*
X90144700Y-116750006D01*
X90163864Y-116981297D01*
X90163866Y-116981308D01*
X90220842Y-117206300D01*
X90314075Y-117418848D01*
X90441016Y-117613147D01*
X90441019Y-117613151D01*
X90441021Y-117613153D01*
X90598216Y-117783913D01*
X90598219Y-117783915D01*
X90598222Y-117783918D01*
X90781365Y-117926464D01*
X90781371Y-117926468D01*
X90781374Y-117926470D01*
X90985497Y-118036936D01*
X91099487Y-118076068D01*
X91205015Y-118112297D01*
X91205017Y-118112297D01*
X91205019Y-118112298D01*
X91433951Y-118150500D01*
X91433952Y-118150500D01*
X91666048Y-118150500D01*
X91666049Y-118150500D01*
X91894981Y-118112298D01*
X92114503Y-118036936D01*
X92318626Y-117926470D01*
X92501784Y-117783913D01*
X92658979Y-117613153D01*
X92785924Y-117418849D01*
X92785926Y-117418843D01*
X92787747Y-117415481D01*
X92836967Y-117365891D01*
X92896801Y-117350500D01*
X93004092Y-117350500D01*
X93071131Y-117370185D01*
X93109636Y-117414271D01*
X93111395Y-117413187D01*
X93115185Y-117419332D01*
X93115186Y-117419334D01*
X93207288Y-117568656D01*
X93331344Y-117692712D01*
X93480666Y-117784814D01*
X93647203Y-117839999D01*
X93749991Y-117850500D01*
X94750008Y-117850499D01*
X94750016Y-117850498D01*
X94750019Y-117850498D01*
X94806302Y-117844748D01*
X94852797Y-117839999D01*
X95019334Y-117784814D01*
X95168656Y-117692712D01*
X95287549Y-117573819D01*
X95348872Y-117540334D01*
X95375230Y-117537500D01*
X96350000Y-117537500D01*
X96350000Y-116500000D01*
X96850000Y-116500000D01*
X96850000Y-119074999D01*
X97074972Y-119074999D01*
X97074986Y-119074998D01*
X97177697Y-119064505D01*
X97344119Y-119009358D01*
X97344124Y-119009356D01*
X97493345Y-118917315D01*
X97617317Y-118793343D01*
X97669961Y-118707994D01*
X97721909Y-118661269D01*
X97790871Y-118650046D01*
X97854954Y-118677890D01*
X97893810Y-118735958D01*
X97899500Y-118773090D01*
X97899500Y-122042067D01*
X97879815Y-122109106D01*
X97848386Y-122142385D01*
X97747892Y-122215398D01*
X97619399Y-122343891D01*
X97619399Y-122343892D01*
X97619397Y-122343894D01*
X97573525Y-122407030D01*
X97512583Y-122490909D01*
X97430083Y-122652825D01*
X97430081Y-122652828D01*
X97373928Y-122825649D01*
X97373928Y-122825652D01*
X97373928Y-122825654D01*
X97345500Y-123005139D01*
X97345500Y-124494861D01*
X97346901Y-124503704D01*
X97373928Y-124674347D01*
X97373928Y-124674350D01*
X97430081Y-124847171D01*
X97430083Y-124847174D01*
X97512583Y-125009090D01*
X97619397Y-125156106D01*
X97747894Y-125284603D01*
X97894910Y-125391417D01*
X98056826Y-125473917D01*
X98056828Y-125473918D01*
X98201542Y-125520938D01*
X98229654Y-125530072D01*
X98409139Y-125558500D01*
X98409140Y-125558500D01*
X98590860Y-125558500D01*
X98590861Y-125558500D01*
X98770346Y-125530072D01*
X98770349Y-125530071D01*
X98770350Y-125530071D01*
X98943171Y-125473918D01*
X98943171Y-125473917D01*
X98943174Y-125473917D01*
X99105090Y-125391417D01*
X99252106Y-125284603D01*
X99380603Y-125156106D01*
X99487417Y-125009090D01*
X99569917Y-124847174D01*
X99576699Y-124826300D01*
X99626071Y-124674350D01*
X99626071Y-124674349D01*
X99626072Y-124674346D01*
X99654500Y-124494861D01*
X99654500Y-123666228D01*
X102649500Y-123666228D01*
X102649500Y-123833771D01*
X102682182Y-123998074D01*
X102682184Y-123998082D01*
X102746295Y-124152860D01*
X102839373Y-124292162D01*
X102957837Y-124410626D01*
X103050494Y-124472537D01*
X103097137Y-124503703D01*
X103251918Y-124567816D01*
X103416228Y-124600499D01*
X103416232Y-124600500D01*
X103416233Y-124600500D01*
X103583768Y-124600500D01*
X103583769Y-124600499D01*
X103748082Y-124567816D01*
X103902863Y-124503703D01*
X104042162Y-124410626D01*
X104160626Y-124292162D01*
X104253703Y-124152863D01*
X104317816Y-123998082D01*
X104350500Y-123833767D01*
X104350500Y-123666233D01*
X104317816Y-123501918D01*
X104253703Y-123347137D01*
X104222537Y-123300494D01*
X104160626Y-123207837D01*
X104042162Y-123089373D01*
X103902860Y-122996295D01*
X103748082Y-122932184D01*
X103748074Y-122932182D01*
X103583771Y-122899500D01*
X103583767Y-122899500D01*
X103416233Y-122899500D01*
X103416228Y-122899500D01*
X103251925Y-122932182D01*
X103251917Y-122932184D01*
X103097139Y-122996295D01*
X102957837Y-123089373D01*
X102839373Y-123207837D01*
X102746295Y-123347139D01*
X102682184Y-123501917D01*
X102682182Y-123501925D01*
X102649500Y-123666228D01*
X99654500Y-123666228D01*
X99654500Y-123005139D01*
X99626072Y-122825654D01*
X99626071Y-122825650D01*
X99626071Y-122825649D01*
X99569918Y-122652828D01*
X99569916Y-122652825D01*
X99487416Y-122490909D01*
X99380603Y-122343894D01*
X99252106Y-122215397D01*
X99151613Y-122142384D01*
X99108949Y-122087054D01*
X99100500Y-122042067D01*
X99100500Y-118100097D01*
X99120185Y-118033058D01*
X99136819Y-118012416D01*
X104817100Y-112332135D01*
X107629500Y-112332135D01*
X107629500Y-113427870D01*
X107629501Y-113427876D01*
X107635908Y-113487483D01*
X107686202Y-113622328D01*
X107686206Y-113622335D01*
X107772452Y-113737544D01*
X107772455Y-113737547D01*
X107887664Y-113823793D01*
X107887671Y-113823797D01*
X108022517Y-113874091D01*
X108022516Y-113874091D01*
X108029444Y-113874835D01*
X108082127Y-113880500D01*
X111177872Y-113880499D01*
X111237483Y-113874091D01*
X111372331Y-113823796D01*
X111487546Y-113737546D01*
X111573796Y-113622331D01*
X111624091Y-113487483D01*
X111630500Y-113427873D01*
X111630499Y-112332128D01*
X111624091Y-112272517D01*
X111573796Y-112137669D01*
X111573795Y-112137668D01*
X111573793Y-112137664D01*
X111487547Y-112022455D01*
X111487544Y-112022452D01*
X111372335Y-111936206D01*
X111372328Y-111936202D01*
X111237482Y-111885908D01*
X111237483Y-111885908D01*
X111177883Y-111879501D01*
X111177881Y-111879500D01*
X111177873Y-111879500D01*
X111177864Y-111879500D01*
X108082129Y-111879500D01*
X108082123Y-111879501D01*
X108022516Y-111885908D01*
X107887671Y-111936202D01*
X107887664Y-111936206D01*
X107772455Y-112022452D01*
X107772452Y-112022455D01*
X107686206Y-112137664D01*
X107686202Y-112137671D01*
X107635908Y-112272517D01*
X107629728Y-112330008D01*
X107629501Y-112332123D01*
X107629500Y-112332135D01*
X104817100Y-112332135D01*
X106172416Y-110976819D01*
X106233739Y-110943334D01*
X106260097Y-110940500D01*
X107547209Y-110940500D01*
X107614248Y-110960185D01*
X107660003Y-111012989D01*
X107663391Y-111021167D01*
X107686202Y-111082328D01*
X107686206Y-111082335D01*
X107772452Y-111197544D01*
X107772455Y-111197547D01*
X107887664Y-111283793D01*
X107887671Y-111283797D01*
X108022517Y-111334091D01*
X108022516Y-111334091D01*
X108029444Y-111334835D01*
X108082127Y-111340500D01*
X111177872Y-111340499D01*
X111237483Y-111334091D01*
X111372331Y-111283796D01*
X111487546Y-111197546D01*
X111573796Y-111082331D01*
X111624091Y-110947483D01*
X111630500Y-110887873D01*
X111630499Y-109792128D01*
X111624091Y-109732517D01*
X111621817Y-109726421D01*
X111573797Y-109597671D01*
X111573793Y-109597664D01*
X111487547Y-109482455D01*
X111487544Y-109482452D01*
X111372335Y-109396206D01*
X111372328Y-109396202D01*
X111237482Y-109345908D01*
X111237483Y-109345908D01*
X111177883Y-109339501D01*
X111177881Y-109339500D01*
X111177873Y-109339500D01*
X111177864Y-109339500D01*
X108082129Y-109339500D01*
X108082123Y-109339501D01*
X108022516Y-109345908D01*
X107887671Y-109396202D01*
X107887664Y-109396206D01*
X107772455Y-109482452D01*
X107772452Y-109482455D01*
X107686206Y-109597664D01*
X107686202Y-109597671D01*
X107663391Y-109658833D01*
X107621520Y-109714767D01*
X107556056Y-109739184D01*
X107547209Y-109739500D01*
X105880943Y-109739500D01*
X105728214Y-109780423D01*
X105707944Y-109792127D01*
X105707941Y-109792128D01*
X105591290Y-109859475D01*
X105591282Y-109859481D01*
X102282180Y-113168584D01*
X102220857Y-113202069D01*
X102151165Y-113197085D01*
X102095232Y-113155213D01*
X102070815Y-113089749D01*
X102070499Y-113080903D01*
X102070499Y-112332129D01*
X102070498Y-112332123D01*
X102070497Y-112332116D01*
X102064091Y-112272517D01*
X102013796Y-112137669D01*
X102013795Y-112137668D01*
X102013793Y-112137664D01*
X101927547Y-112022455D01*
X101927544Y-112022452D01*
X101812335Y-111936206D01*
X101812328Y-111936202D01*
X101677482Y-111885908D01*
X101677483Y-111885908D01*
X101617883Y-111879501D01*
X101617881Y-111879500D01*
X101617873Y-111879500D01*
X101617864Y-111879500D01*
X98522129Y-111879500D01*
X98522123Y-111879501D01*
X98462516Y-111885908D01*
X98327671Y-111936202D01*
X98327664Y-111936206D01*
X98212455Y-112022452D01*
X98212452Y-112022455D01*
X98126206Y-112137664D01*
X98126202Y-112137671D01*
X98075908Y-112272517D01*
X98069728Y-112330008D01*
X98069501Y-112332123D01*
X98069500Y-112332135D01*
X98069500Y-113427870D01*
X98069501Y-113427876D01*
X98075908Y-113487483D01*
X98126202Y-113622328D01*
X98126206Y-113622335D01*
X98212452Y-113737544D01*
X98212455Y-113737547D01*
X98327664Y-113823793D01*
X98327671Y-113823797D01*
X98462517Y-113874091D01*
X98462516Y-113874091D01*
X98469444Y-113874835D01*
X98522127Y-113880500D01*
X101270902Y-113880499D01*
X101337941Y-113900184D01*
X101383696Y-113952987D01*
X101393640Y-114022146D01*
X101364615Y-114085702D01*
X101358583Y-114092180D01*
X98131286Y-117319478D01*
X98019481Y-117431282D01*
X98019475Y-117431290D01*
X98006385Y-117453963D01*
X97955818Y-117502178D01*
X97887211Y-117515400D01*
X97822346Y-117489432D01*
X97781818Y-117432517D01*
X97774999Y-117391962D01*
X97774999Y-117200028D01*
X97774998Y-117200012D01*
X97764505Y-117097302D01*
X97709358Y-116930880D01*
X97709356Y-116930875D01*
X97617315Y-116781654D01*
X97493345Y-116657684D01*
X97344124Y-116565643D01*
X97344119Y-116565641D01*
X97177697Y-116510494D01*
X97177690Y-116510493D01*
X97074986Y-116500000D01*
X96850000Y-116500000D01*
X96350000Y-116500000D01*
X96125029Y-116500000D01*
X96125012Y-116500001D01*
X96022302Y-116510494D01*
X95855880Y-116565641D01*
X95855875Y-116565643D01*
X95706654Y-116657684D01*
X95662180Y-116702159D01*
X95600857Y-116735644D01*
X95531165Y-116730660D01*
X95475232Y-116688788D01*
X95450815Y-116623324D01*
X95450499Y-116614478D01*
X95450499Y-116349998D01*
X95450498Y-116349981D01*
X95439999Y-116247203D01*
X95439998Y-116247200D01*
X95407623Y-116149500D01*
X95384814Y-116080666D01*
X95292712Y-115931344D01*
X95199049Y-115837681D01*
X95165564Y-115776358D01*
X95170548Y-115706666D01*
X95199048Y-115662320D01*
X95200261Y-115661107D01*
X95248937Y-115612430D01*
X95310258Y-115578946D01*
X95379949Y-115583930D01*
X95435883Y-115625801D01*
X95454323Y-115661107D01*
X95490186Y-115769334D01*
X95582288Y-115918656D01*
X95706344Y-116042712D01*
X95855666Y-116134814D01*
X96022203Y-116189999D01*
X96124991Y-116200500D01*
X97075008Y-116200499D01*
X97075016Y-116200498D01*
X97075019Y-116200498D01*
X97131302Y-116194748D01*
X97177797Y-116189999D01*
X97344334Y-116134814D01*
X97493656Y-116042712D01*
X97617712Y-115918656D01*
X97709814Y-115769334D01*
X97764999Y-115602797D01*
X97775500Y-115500009D01*
X97775499Y-114324992D01*
X97764999Y-114222203D01*
X97709814Y-114055666D01*
X97617712Y-113906344D01*
X97493656Y-113782288D01*
X97344334Y-113690186D01*
X97344332Y-113690185D01*
X97344330Y-113690184D01*
X97340817Y-113688546D01*
X97338811Y-113686780D01*
X97338187Y-113686395D01*
X97338252Y-113686288D01*
X97288378Y-113642374D01*
X97269226Y-113575180D01*
X97269236Y-113574358D01*
X97286796Y-112468083D01*
X97307542Y-112401366D01*
X97354447Y-112362007D01*
X97353683Y-112360715D01*
X97360398Y-112356744D01*
X97501865Y-112273081D01*
X97618081Y-112156865D01*
X97701744Y-112015398D01*
X97747598Y-111857569D01*
X97750500Y-111820694D01*
X97750500Y-111389306D01*
X97747598Y-111352431D01*
X97744131Y-111340499D01*
X97713836Y-111236224D01*
X97701744Y-111194602D01*
X97618081Y-111053135D01*
X97618078Y-111053132D01*
X97613298Y-111046969D01*
X97615750Y-111045066D01*
X97589155Y-110996421D01*
X97594104Y-110926726D01*
X97614940Y-110894304D01*
X97613298Y-110893031D01*
X97618075Y-110886870D01*
X97618081Y-110886865D01*
X97701744Y-110745398D01*
X97747598Y-110587569D01*
X97750500Y-110550694D01*
X97750500Y-110119306D01*
X97747598Y-110082431D01*
X97701744Y-109924602D01*
X97618081Y-109783135D01*
X97618078Y-109783132D01*
X97613298Y-109776969D01*
X97615750Y-109775066D01*
X97589155Y-109726421D01*
X97594104Y-109656726D01*
X97614940Y-109624304D01*
X97613298Y-109623031D01*
X97618075Y-109616870D01*
X97618081Y-109616865D01*
X97701744Y-109475398D01*
X97747598Y-109317569D01*
X97750500Y-109280694D01*
X97750500Y-108849306D01*
X97747598Y-108812431D01*
X97744131Y-108800499D01*
X97707110Y-108673071D01*
X97701744Y-108654602D01*
X97693641Y-108640901D01*
X97662132Y-108587620D01*
X97644949Y-108519896D01*
X97667109Y-108453634D01*
X97721576Y-108409871D01*
X97768864Y-108400500D01*
X97987209Y-108400500D01*
X98054248Y-108420185D01*
X98100003Y-108472989D01*
X98103391Y-108481167D01*
X98126202Y-108542328D01*
X98126206Y-108542335D01*
X98212452Y-108657544D01*
X98212455Y-108657547D01*
X98327664Y-108743793D01*
X98327671Y-108743797D01*
X98462517Y-108794091D01*
X98462516Y-108794091D01*
X98469444Y-108794835D01*
X98522127Y-108800500D01*
X101617872Y-108800499D01*
X101677483Y-108794091D01*
X101812331Y-108743796D01*
X101874190Y-108697488D01*
X101939652Y-108673071D01*
X102007925Y-108687922D01*
X102057331Y-108737326D01*
X102072500Y-108796755D01*
X102072500Y-109238166D01*
X102052815Y-109305205D01*
X102036235Y-109325793D01*
X101976185Y-109385917D01*
X101914883Y-109419440D01*
X101845188Y-109414498D01*
X101814143Y-109397559D01*
X101812337Y-109396207D01*
X101812328Y-109396202D01*
X101677482Y-109345908D01*
X101677483Y-109345908D01*
X101617883Y-109339501D01*
X101617881Y-109339500D01*
X101617873Y-109339500D01*
X101617864Y-109339500D01*
X98522129Y-109339500D01*
X98522123Y-109339501D01*
X98462516Y-109345908D01*
X98327671Y-109396202D01*
X98327664Y-109396206D01*
X98212455Y-109482452D01*
X98212452Y-109482455D01*
X98126206Y-109597664D01*
X98126202Y-109597671D01*
X98075908Y-109732517D01*
X98069501Y-109792116D01*
X98069500Y-109792127D01*
X98069500Y-110887870D01*
X98069501Y-110887876D01*
X98075908Y-110947483D01*
X98126202Y-111082328D01*
X98126206Y-111082335D01*
X98212452Y-111197544D01*
X98212455Y-111197547D01*
X98327664Y-111283793D01*
X98327671Y-111283797D01*
X98462517Y-111334091D01*
X98462516Y-111334091D01*
X98469444Y-111334835D01*
X98522127Y-111340500D01*
X101617872Y-111340499D01*
X101677483Y-111334091D01*
X101812331Y-111283796D01*
X101927546Y-111197546D01*
X102013796Y-111082331D01*
X102014061Y-111081622D01*
X102053149Y-110976819D01*
X102060368Y-110957463D01*
X102102238Y-110901530D01*
X102114467Y-110893457D01*
X102172142Y-110860110D01*
X102240716Y-110820520D01*
X102240722Y-110820513D01*
X102240898Y-110820379D01*
X102241008Y-110820293D01*
X102241016Y-110820289D01*
X102296260Y-110764975D01*
X102296261Y-110764974D01*
X102296272Y-110764985D01*
X102296315Y-110764919D01*
X102352520Y-110708716D01*
X102352520Y-110708715D01*
X102357947Y-110703289D01*
X102358500Y-110702657D01*
X103096903Y-109963332D01*
X103153520Y-109906716D01*
X103153523Y-109906709D01*
X103153566Y-109906655D01*
X103153746Y-109906418D01*
X103153749Y-109906416D01*
X103192802Y-109838674D01*
X103192861Y-109838618D01*
X103192842Y-109838607D01*
X103219683Y-109792116D01*
X103232577Y-109769784D01*
X103232579Y-109769775D01*
X103232621Y-109769675D01*
X103232715Y-109769444D01*
X103232721Y-109769436D01*
X103253043Y-109693403D01*
X103273500Y-109617057D01*
X103273500Y-109617041D01*
X103273544Y-109616698D01*
X103273549Y-109616683D01*
X103273500Y-109537402D01*
X103273500Y-108347844D01*
X107630000Y-108347844D01*
X107636401Y-108407372D01*
X107636403Y-108407379D01*
X107686645Y-108542086D01*
X107686649Y-108542093D01*
X107772809Y-108657187D01*
X107772812Y-108657190D01*
X107887906Y-108743350D01*
X107887913Y-108743354D01*
X108022620Y-108793596D01*
X108022627Y-108793598D01*
X108082155Y-108799999D01*
X108082172Y-108800000D01*
X109380000Y-108800000D01*
X109880000Y-108800000D01*
X111177828Y-108800000D01*
X111177844Y-108799999D01*
X111237372Y-108793598D01*
X111237379Y-108793596D01*
X111372086Y-108743354D01*
X111372093Y-108743350D01*
X111487187Y-108657190D01*
X111487190Y-108657187D01*
X111573350Y-108542093D01*
X111573354Y-108542086D01*
X111623596Y-108407379D01*
X111623598Y-108407372D01*
X111629999Y-108347844D01*
X111630000Y-108347827D01*
X111630000Y-108050000D01*
X109880000Y-108050000D01*
X109880000Y-108800000D01*
X109380000Y-108800000D01*
X109380000Y-108050000D01*
X107630000Y-108050000D01*
X107630000Y-108347844D01*
X103273500Y-108347844D01*
X103273500Y-107252155D01*
X107630000Y-107252155D01*
X107630000Y-107550000D01*
X109380000Y-107550000D01*
X109880000Y-107550000D01*
X111630000Y-107550000D01*
X111630000Y-107252172D01*
X111629999Y-107252155D01*
X111623598Y-107192627D01*
X111623596Y-107192620D01*
X111573354Y-107057913D01*
X111573350Y-107057906D01*
X111487190Y-106942812D01*
X111487187Y-106942809D01*
X111372093Y-106856649D01*
X111372086Y-106856645D01*
X111237379Y-106806403D01*
X111237372Y-106806401D01*
X111177844Y-106800000D01*
X109880000Y-106800000D01*
X109880000Y-107550000D01*
X109380000Y-107550000D01*
X109380000Y-106800000D01*
X108082155Y-106800000D01*
X108022627Y-106806401D01*
X108022620Y-106806403D01*
X107887913Y-106856645D01*
X107887906Y-106856649D01*
X107772812Y-106942809D01*
X107772809Y-106942812D01*
X107686649Y-107057906D01*
X107686645Y-107057913D01*
X107636403Y-107192620D01*
X107636401Y-107192627D01*
X107630000Y-107252155D01*
X103273500Y-107252155D01*
X103273500Y-104712135D01*
X107629500Y-104712135D01*
X107629500Y-105807870D01*
X107629501Y-105807876D01*
X107635908Y-105867483D01*
X107686202Y-106002328D01*
X107686206Y-106002335D01*
X107772452Y-106117544D01*
X107772455Y-106117547D01*
X107887664Y-106203793D01*
X107887671Y-106203797D01*
X108022517Y-106254091D01*
X108022516Y-106254091D01*
X108029444Y-106254835D01*
X108082127Y-106260500D01*
X111177872Y-106260499D01*
X111237483Y-106254091D01*
X111372331Y-106203796D01*
X111487546Y-106117546D01*
X111573796Y-106002331D01*
X111624091Y-105867483D01*
X111630500Y-105807873D01*
X111630499Y-104712128D01*
X111624091Y-104652517D01*
X111573796Y-104517669D01*
X111573795Y-104517668D01*
X111573793Y-104517664D01*
X111487547Y-104402455D01*
X111487544Y-104402452D01*
X111372335Y-104316206D01*
X111372328Y-104316202D01*
X111237482Y-104265908D01*
X111237483Y-104265908D01*
X111177883Y-104259501D01*
X111177881Y-104259500D01*
X111177873Y-104259500D01*
X111177864Y-104259500D01*
X108082129Y-104259500D01*
X108082123Y-104259501D01*
X108022516Y-104265908D01*
X107887671Y-104316202D01*
X107887664Y-104316206D01*
X107772455Y-104402452D01*
X107772452Y-104402455D01*
X107686206Y-104517664D01*
X107686202Y-104517671D01*
X107635908Y-104652517D01*
X107629501Y-104712116D01*
X107629501Y-104712123D01*
X107629500Y-104712135D01*
X103273500Y-104712135D01*
X103273500Y-103443943D01*
X103232577Y-103291216D01*
X103180214Y-103200520D01*
X103153524Y-103154290D01*
X103153521Y-103154286D01*
X103153520Y-103154284D01*
X103041716Y-103042480D01*
X103041715Y-103042479D01*
X103037385Y-103038149D01*
X103037374Y-103038139D01*
X102806916Y-102807681D01*
X102773431Y-102746358D01*
X102778415Y-102676666D01*
X102806916Y-102632319D01*
X103597860Y-101841375D01*
X104535520Y-100903716D01*
X104614577Y-100766784D01*
X104655501Y-100614057D01*
X104655501Y-100455942D01*
X104655501Y-100447815D01*
X104657270Y-100447815D01*
X104666489Y-100388655D01*
X104712863Y-100336394D01*
X104739663Y-100323787D01*
X104781834Y-100309814D01*
X104931156Y-100217712D01*
X105055212Y-100093656D01*
X105056961Y-100090819D01*
X105058669Y-100089283D01*
X105059693Y-100087989D01*
X105059914Y-100088163D01*
X105108906Y-100044096D01*
X105177868Y-100032872D01*
X105241951Y-100060713D01*
X105268037Y-100090817D01*
X105269788Y-100093656D01*
X105393844Y-100217712D01*
X105543166Y-100309814D01*
X105709703Y-100364999D01*
X105812491Y-100375500D01*
X106587508Y-100375499D01*
X106587516Y-100375498D01*
X106587519Y-100375498D01*
X106643802Y-100369748D01*
X106690297Y-100364999D01*
X106856834Y-100309814D01*
X107006156Y-100217712D01*
X107006159Y-100217709D01*
X107006982Y-100217059D01*
X107007652Y-100216788D01*
X107012303Y-100213920D01*
X107012793Y-100214714D01*
X107071777Y-100190917D01*
X107140419Y-100203955D01*
X107191115Y-100252035D01*
X107207894Y-100314760D01*
X107199224Y-102776940D01*
X107213237Y-102829983D01*
X107239610Y-102929812D01*
X107318185Y-103067022D01*
X107404834Y-103154284D01*
X107429594Y-103179219D01*
X107429599Y-103179223D01*
X107435744Y-103182799D01*
X107452651Y-103195818D01*
X107452839Y-103195574D01*
X107459280Y-103200516D01*
X107459284Y-103200520D01*
X107585426Y-103273347D01*
X107633641Y-103323913D01*
X107639608Y-103337401D01*
X107686202Y-103462328D01*
X107686206Y-103462335D01*
X107772452Y-103577544D01*
X107772455Y-103577547D01*
X107887664Y-103663793D01*
X107887671Y-103663797D01*
X108022517Y-103714091D01*
X108022516Y-103714091D01*
X108029444Y-103714835D01*
X108082127Y-103720500D01*
X111177872Y-103720499D01*
X111237483Y-103714091D01*
X111372331Y-103663796D01*
X111487546Y-103577546D01*
X111573796Y-103462331D01*
X111624091Y-103327483D01*
X111630500Y-103267873D01*
X111630499Y-102172128D01*
X111624091Y-102112517D01*
X111621200Y-102104767D01*
X111573797Y-101977671D01*
X111573793Y-101977664D01*
X111487547Y-101862455D01*
X111487544Y-101862452D01*
X111372335Y-101776206D01*
X111372328Y-101776202D01*
X111237482Y-101725908D01*
X111237483Y-101725908D01*
X111177883Y-101719501D01*
X111177881Y-101719500D01*
X111177873Y-101719500D01*
X111177865Y-101719500D01*
X108528393Y-101719500D01*
X108461354Y-101699815D01*
X108415599Y-101647011D01*
X108404394Y-101595063D01*
X108412690Y-99239105D01*
X108413000Y-99234512D01*
X108413000Y-99151309D01*
X108413001Y-99150872D01*
X108413126Y-99115273D01*
X108413275Y-99073058D01*
X108413274Y-99073057D01*
X108413275Y-99073044D01*
X108413185Y-99072359D01*
X108413125Y-99071891D01*
X108413007Y-99070972D01*
X108413000Y-99070945D01*
X108413000Y-99070943D01*
X108392833Y-98995680D01*
X108372890Y-98920188D01*
X108372889Y-98920187D01*
X108372883Y-98920162D01*
X108372615Y-98919515D01*
X108372433Y-98919074D01*
X108372092Y-98918243D01*
X108372077Y-98918217D01*
X108372077Y-98918216D01*
X108333079Y-98850670D01*
X108302911Y-98797989D01*
X108294303Y-98782956D01*
X108293742Y-98782225D01*
X108293505Y-98781915D01*
X108293037Y-98781301D01*
X108238212Y-98726476D01*
X108237904Y-98726167D01*
X108182889Y-98670763D01*
X108182413Y-98670398D01*
X108182083Y-98670143D01*
X108181252Y-98669500D01*
X108113855Y-98630589D01*
X108113652Y-98630471D01*
X108046253Y-98591243D01*
X108046251Y-98591242D01*
X108046218Y-98591223D01*
X108045414Y-98590890D01*
X108045011Y-98590722D01*
X108044319Y-98590432D01*
X107969013Y-98570254D01*
X107968677Y-98570163D01*
X107935356Y-98561109D01*
X107893643Y-98549774D01*
X107892957Y-98549684D01*
X107892521Y-98549626D01*
X107891590Y-98549500D01*
X107891557Y-98549500D01*
X107813774Y-98549500D01*
X107813337Y-98549499D01*
X107730122Y-98549205D01*
X107725502Y-98549500D01*
X107376085Y-98549500D01*
X107309046Y-98529815D01*
X107263291Y-98477011D01*
X107258379Y-98464504D01*
X107252957Y-98448141D01*
X107222314Y-98355666D01*
X107130212Y-98206344D01*
X107006156Y-98082288D01*
X106856834Y-97990186D01*
X106690297Y-97935001D01*
X106690295Y-97935000D01*
X106587516Y-97924500D01*
X106587509Y-97924500D01*
X105875097Y-97924500D01*
X105808058Y-97904815D01*
X105787416Y-97888181D01*
X105662590Y-97763355D01*
X105662588Y-97763352D01*
X105543717Y-97644481D01*
X105543716Y-97644480D01*
X105456904Y-97594360D01*
X105456904Y-97594359D01*
X105456900Y-97594358D01*
X105406785Y-97565423D01*
X105254057Y-97524499D01*
X105095943Y-97524499D01*
X105088347Y-97524499D01*
X105088331Y-97524500D01*
X98711670Y-97524500D01*
X98711654Y-97524499D01*
X98704058Y-97524499D01*
X98545943Y-97524499D01*
X98393215Y-97565423D01*
X98393213Y-97565423D01*
X98393213Y-97565424D01*
X98256281Y-97644482D01*
X98037583Y-97863181D01*
X97976260Y-97896666D01*
X97949902Y-97899500D01*
X97537000Y-97899500D01*
X97469961Y-97879815D01*
X97424206Y-97827011D01*
X97413000Y-97775500D01*
X97413000Y-97534313D01*
X97412999Y-97534298D01*
X97410098Y-97497432D01*
X97410097Y-97497426D01*
X97364245Y-97339606D01*
X97364244Y-97339603D01*
X97364244Y-97339602D01*
X97280581Y-97198135D01*
X97280580Y-97198134D01*
X97280576Y-97198129D01*
X97164370Y-97081923D01*
X97164361Y-97081916D01*
X97078658Y-97031232D01*
X97030975Y-96980163D01*
X97018471Y-96911421D01*
X97045116Y-96846832D01*
X97102452Y-96806902D01*
X97141779Y-96800500D01*
X112125500Y-96800500D01*
X112192539Y-96820185D01*
X112238294Y-96872989D01*
X112249500Y-96924500D01*
X112249500Y-132525500D01*
X112229815Y-132592539D01*
X112177011Y-132638294D01*
X112125500Y-132649500D01*
X82624500Y-132649500D01*
X82557461Y-132629815D01*
X82511706Y-132577011D01*
X82500500Y-132525500D01*
X82500500Y-131166228D01*
X97649500Y-131166228D01*
X97649500Y-131333771D01*
X97682182Y-131498074D01*
X97682184Y-131498082D01*
X97746295Y-131652860D01*
X97839373Y-131792162D01*
X97957837Y-131910626D01*
X98050494Y-131972537D01*
X98097137Y-132003703D01*
X98251918Y-132067816D01*
X98416228Y-132100499D01*
X98416232Y-132100500D01*
X98416233Y-132100500D01*
X98583768Y-132100500D01*
X98583769Y-132100499D01*
X98748082Y-132067816D01*
X98902863Y-132003703D01*
X99042162Y-131910626D01*
X99160626Y-131792162D01*
X99253703Y-131652863D01*
X99317816Y-131498082D01*
X99350500Y-131333767D01*
X99350500Y-131166233D01*
X99350499Y-131166228D01*
X107649500Y-131166228D01*
X107649500Y-131333771D01*
X107682182Y-131498074D01*
X107682184Y-131498082D01*
X107746295Y-131652860D01*
X107839373Y-131792162D01*
X107957837Y-131910626D01*
X108050494Y-131972537D01*
X108097137Y-132003703D01*
X108251918Y-132067816D01*
X108416228Y-132100499D01*
X108416232Y-132100500D01*
X108416233Y-132100500D01*
X108583768Y-132100500D01*
X108583769Y-132100499D01*
X108748082Y-132067816D01*
X108902863Y-132003703D01*
X109042162Y-131910626D01*
X109160626Y-131792162D01*
X109253703Y-131652863D01*
X109317816Y-131498082D01*
X109350500Y-131333767D01*
X109350500Y-131166233D01*
X109317816Y-131001918D01*
X109253703Y-130847137D01*
X109222537Y-130800494D01*
X109160626Y-130707837D01*
X109042162Y-130589373D01*
X108902860Y-130496295D01*
X108748082Y-130432184D01*
X108748074Y-130432182D01*
X108583771Y-130399500D01*
X108583767Y-130399500D01*
X108416233Y-130399500D01*
X108416228Y-130399500D01*
X108251925Y-130432182D01*
X108251917Y-130432184D01*
X108097139Y-130496295D01*
X107957837Y-130589373D01*
X107839373Y-130707837D01*
X107746295Y-130847139D01*
X107682184Y-131001917D01*
X107682182Y-131001925D01*
X107649500Y-131166228D01*
X99350499Y-131166228D01*
X99317816Y-131001918D01*
X99253703Y-130847137D01*
X99222537Y-130800494D01*
X99160626Y-130707837D01*
X99042162Y-130589373D01*
X98902860Y-130496295D01*
X98748082Y-130432184D01*
X98748074Y-130432182D01*
X98583771Y-130399500D01*
X98583767Y-130399500D01*
X98416233Y-130399500D01*
X98416228Y-130399500D01*
X98251925Y-130432182D01*
X98251917Y-130432184D01*
X98097139Y-130496295D01*
X97957837Y-130589373D01*
X97839373Y-130707837D01*
X97746295Y-130847139D01*
X97682184Y-131001917D01*
X97682182Y-131001925D01*
X97649500Y-131166228D01*
X82500500Y-131166228D01*
X82500500Y-129199983D01*
X83399500Y-129199983D01*
X83399500Y-130000001D01*
X83399501Y-130000019D01*
X83410000Y-130102796D01*
X83410001Y-130102799D01*
X83415320Y-130118849D01*
X83465186Y-130269334D01*
X83557288Y-130418656D01*
X83681344Y-130542712D01*
X83830666Y-130634814D01*
X83997203Y-130689999D01*
X84099991Y-130700500D01*
X85100008Y-130700499D01*
X85100016Y-130700498D01*
X85100019Y-130700498D01*
X85156302Y-130694748D01*
X85202797Y-130689999D01*
X85369334Y-130634814D01*
X85518656Y-130542712D01*
X85642712Y-130418656D01*
X85734814Y-130269334D01*
X85779164Y-130135494D01*
X85818936Y-130078051D01*
X85883451Y-130051228D01*
X85896869Y-130050500D01*
X90203199Y-130050500D01*
X90270238Y-130070185D01*
X90312253Y-130115481D01*
X90314075Y-130118848D01*
X90441016Y-130313147D01*
X90441019Y-130313151D01*
X90441021Y-130313153D01*
X90598216Y-130483913D01*
X90598219Y-130483915D01*
X90598222Y-130483918D01*
X90781365Y-130626464D01*
X90781371Y-130626468D01*
X90781374Y-130626470D01*
X90985497Y-130736936D01*
X91099487Y-130776068D01*
X91205015Y-130812297D01*
X91205017Y-130812297D01*
X91205019Y-130812298D01*
X91433951Y-130850500D01*
X91433952Y-130850500D01*
X91666048Y-130850500D01*
X91666049Y-130850500D01*
X91894981Y-130812298D01*
X92114503Y-130736936D01*
X92318626Y-130626470D01*
X92501784Y-130483913D01*
X92658979Y-130313153D01*
X92785924Y-130118849D01*
X92879157Y-129906300D01*
X92936134Y-129681305D01*
X92945538Y-129567815D01*
X92955300Y-129450006D01*
X92955300Y-129449993D01*
X92936135Y-129218702D01*
X92936133Y-129218691D01*
X92879157Y-128993699D01*
X92785924Y-128781151D01*
X92658983Y-128586852D01*
X92658980Y-128586849D01*
X92658979Y-128586847D01*
X92501784Y-128416087D01*
X92501779Y-128416083D01*
X92501777Y-128416081D01*
X92318634Y-128273535D01*
X92318628Y-128273531D01*
X92114504Y-128163064D01*
X92114495Y-128163061D01*
X91894984Y-128087702D01*
X91723282Y-128059050D01*
X91666049Y-128049500D01*
X91433951Y-128049500D01*
X91388164Y-128057140D01*
X91205015Y-128087702D01*
X90985504Y-128163061D01*
X90985495Y-128163064D01*
X90781371Y-128273531D01*
X90781365Y-128273535D01*
X90598222Y-128416081D01*
X90598219Y-128416084D01*
X90598216Y-128416086D01*
X90598216Y-128416087D01*
X90585482Y-128429920D01*
X90441016Y-128586852D01*
X90314075Y-128781151D01*
X90312253Y-128784519D01*
X90263033Y-128834109D01*
X90203199Y-128849500D01*
X85753958Y-128849500D01*
X85686919Y-128829815D01*
X85648420Y-128790598D01*
X85642712Y-128781344D01*
X85548695Y-128687327D01*
X85515210Y-128626004D01*
X85520194Y-128556312D01*
X85548695Y-128511964D01*
X85642317Y-128418342D01*
X85734356Y-128269124D01*
X85734358Y-128269119D01*
X85789505Y-128102697D01*
X85789506Y-128102690D01*
X85799999Y-127999986D01*
X85800000Y-127999973D01*
X85800000Y-127850000D01*
X83400001Y-127850000D01*
X83400001Y-127999986D01*
X83410494Y-128102697D01*
X83465641Y-128269119D01*
X83465643Y-128269124D01*
X83557684Y-128418345D01*
X83651304Y-128511965D01*
X83684789Y-128573288D01*
X83679805Y-128642980D01*
X83651305Y-128687327D01*
X83557287Y-128781345D01*
X83465187Y-128930663D01*
X83465185Y-128930668D01*
X83442211Y-129000000D01*
X83410001Y-129097203D01*
X83410001Y-129097204D01*
X83410000Y-129097204D01*
X83399500Y-129199983D01*
X82500500Y-129199983D01*
X82500500Y-127200013D01*
X83400000Y-127200013D01*
X83400000Y-127350000D01*
X84350000Y-127350000D01*
X84850000Y-127350000D01*
X85799999Y-127350000D01*
X85799999Y-127200028D01*
X85799998Y-127200013D01*
X85789505Y-127097302D01*
X85734358Y-126930880D01*
X85734356Y-126930875D01*
X85642315Y-126781654D01*
X85518345Y-126657684D01*
X85369124Y-126565643D01*
X85369119Y-126565641D01*
X85202697Y-126510494D01*
X85202690Y-126510493D01*
X85099986Y-126500000D01*
X84850000Y-126500000D01*
X84850000Y-127350000D01*
X84350000Y-127350000D01*
X84350000Y-126500000D01*
X84100029Y-126500000D01*
X84100012Y-126500001D01*
X83997302Y-126510494D01*
X83830880Y-126565641D01*
X83830875Y-126565643D01*
X83681654Y-126657684D01*
X83557684Y-126781654D01*
X83465643Y-126930875D01*
X83465641Y-126930880D01*
X83410494Y-127097302D01*
X83410493Y-127097309D01*
X83400000Y-127200013D01*
X82500500Y-127200013D01*
X82500500Y-124369993D01*
X87604700Y-124369993D01*
X87604700Y-124370006D01*
X87623864Y-124601297D01*
X87623866Y-124601308D01*
X87680842Y-124826300D01*
X87774075Y-125038848D01*
X87901016Y-125233147D01*
X87901019Y-125233151D01*
X87901021Y-125233153D01*
X88058216Y-125403913D01*
X88058219Y-125403915D01*
X88058222Y-125403918D01*
X88241365Y-125546464D01*
X88241371Y-125546468D01*
X88241374Y-125546470D01*
X88445497Y-125656936D01*
X88539817Y-125689316D01*
X88665015Y-125732297D01*
X88665017Y-125732297D01*
X88665019Y-125732298D01*
X88893951Y-125770500D01*
X88893952Y-125770500D01*
X89126048Y-125770500D01*
X89126049Y-125770500D01*
X89354981Y-125732298D01*
X89354982Y-125732297D01*
X89354985Y-125732297D01*
X89380206Y-125723638D01*
X89406976Y-125714447D01*
X89476773Y-125711296D01*
X89534914Y-125744041D01*
X89759608Y-125968709D01*
X90153045Y-126362101D01*
X90172755Y-126387786D01*
X90219480Y-126468716D01*
X90331284Y-126580520D01*
X90331286Y-126580521D01*
X90331290Y-126580524D01*
X90464937Y-126657684D01*
X90468216Y-126659577D01*
X90496057Y-126667036D01*
X90525953Y-126679418D01*
X90531447Y-126682590D01*
X90684169Y-126723503D01*
X90684170Y-126723503D01*
X90684177Y-126723505D01*
X90842292Y-126723496D01*
X90912322Y-126704726D01*
X90944423Y-126700500D01*
X93549516Y-126700500D01*
X93612637Y-126717768D01*
X93717113Y-126779555D01*
X93865844Y-126822765D01*
X93900595Y-126825500D01*
X94399404Y-126825499D01*
X94434156Y-126822765D01*
X94582887Y-126779555D01*
X94716198Y-126700715D01*
X94825715Y-126591198D01*
X94904555Y-126457887D01*
X94947765Y-126309156D01*
X94950500Y-126274405D01*
X94950499Y-125925596D01*
X94950498Y-125925589D01*
X95449500Y-125925589D01*
X95449500Y-126274393D01*
X95449501Y-126274415D01*
X95452234Y-126309152D01*
X95452234Y-126309155D01*
X95452235Y-126309156D01*
X95495445Y-126457887D01*
X95501850Y-126468717D01*
X95574282Y-126591194D01*
X95574289Y-126591203D01*
X95683796Y-126700710D01*
X95683800Y-126700713D01*
X95683802Y-126700715D01*
X95817113Y-126779555D01*
X95965844Y-126822765D01*
X95982850Y-126824103D01*
X96048138Y-126848985D01*
X96060804Y-126860039D01*
X97181284Y-127980520D01*
X97181286Y-127980521D01*
X97181290Y-127980524D01*
X97300762Y-128049500D01*
X97318216Y-128059577D01*
X97470943Y-128100501D01*
X97470945Y-128100501D01*
X97636654Y-128100501D01*
X97636670Y-128100500D01*
X97679107Y-128100500D01*
X97746146Y-128120185D01*
X97791901Y-128172989D01*
X97801845Y-128242147D01*
X97782209Y-128293390D01*
X97746298Y-128347134D01*
X97746296Y-128347138D01*
X97682184Y-128501917D01*
X97682182Y-128501925D01*
X97649500Y-128666228D01*
X97649500Y-128833771D01*
X97682182Y-128998074D01*
X97682184Y-128998082D01*
X97746295Y-129152860D01*
X97839373Y-129292162D01*
X97957837Y-129410626D01*
X98016765Y-129450000D01*
X98097137Y-129503703D01*
X98251918Y-129567816D01*
X98416228Y-129600499D01*
X98416232Y-129600500D01*
X98416233Y-129600500D01*
X98583768Y-129600500D01*
X98583769Y-129600499D01*
X98748082Y-129567816D01*
X98902863Y-129503703D01*
X99042162Y-129410626D01*
X99160626Y-129292162D01*
X99253703Y-129152863D01*
X99317816Y-128998082D01*
X99350500Y-128833767D01*
X99350500Y-128666233D01*
X99317816Y-128501918D01*
X99253703Y-128347137D01*
X99253701Y-128347134D01*
X99217791Y-128293390D01*
X99196913Y-128226713D01*
X99215398Y-128159333D01*
X99267377Y-128112643D01*
X99320893Y-128100500D01*
X101679423Y-128100500D01*
X101746462Y-128120185D01*
X101792217Y-128172989D01*
X101802161Y-128242147D01*
X101789908Y-128280794D01*
X101776549Y-128307012D01*
X101720415Y-128479774D01*
X101717212Y-128500000D01*
X102834314Y-128500000D01*
X102829920Y-128504394D01*
X102777259Y-128595606D01*
X102750000Y-128697339D01*
X102750000Y-128802661D01*
X102777259Y-128904394D01*
X102829920Y-128995606D01*
X102834314Y-129000000D01*
X101717212Y-129000000D01*
X101720415Y-129020225D01*
X101776548Y-129192984D01*
X101859011Y-129354828D01*
X101965780Y-129501781D01*
X101965780Y-129501782D01*
X102094217Y-129630219D01*
X102241171Y-129736988D01*
X102403015Y-129819451D01*
X102575774Y-129875584D01*
X102755179Y-129904000D01*
X103250000Y-129904000D01*
X103250000Y-129150000D01*
X103750000Y-129150000D01*
X103750000Y-129904000D01*
X104244821Y-129904000D01*
X104424225Y-129875584D01*
X104596984Y-129819451D01*
X104758828Y-129736988D01*
X104905781Y-129630219D01*
X104905782Y-129630219D01*
X105034219Y-129501782D01*
X105034219Y-129501781D01*
X105140988Y-129354828D01*
X105223451Y-129192984D01*
X105279584Y-129020225D01*
X105282788Y-129000000D01*
X104165686Y-129000000D01*
X104170080Y-128995606D01*
X104222741Y-128904394D01*
X104250000Y-128802661D01*
X104250000Y-128697339D01*
X104241664Y-128666228D01*
X107649500Y-128666228D01*
X107649500Y-128833771D01*
X107682182Y-128998074D01*
X107682184Y-128998082D01*
X107746295Y-129152860D01*
X107839373Y-129292162D01*
X107957837Y-129410626D01*
X108016765Y-129450000D01*
X108097137Y-129503703D01*
X108251918Y-129567816D01*
X108416228Y-129600499D01*
X108416232Y-129600500D01*
X108416233Y-129600500D01*
X108583768Y-129600500D01*
X108583769Y-129600499D01*
X108748082Y-129567816D01*
X108902863Y-129503703D01*
X109042162Y-129410626D01*
X109160626Y-129292162D01*
X109253703Y-129152863D01*
X109317816Y-128998082D01*
X109350500Y-128833767D01*
X109350500Y-128666233D01*
X109317816Y-128501918D01*
X109253703Y-128347137D01*
X109173238Y-128226713D01*
X109160626Y-128207837D01*
X109042162Y-128089373D01*
X108902860Y-127996295D01*
X108748082Y-127932184D01*
X108748074Y-127932182D01*
X108583771Y-127899500D01*
X108583767Y-127899500D01*
X108416233Y-127899500D01*
X108416228Y-127899500D01*
X108251925Y-127932182D01*
X108251917Y-127932184D01*
X108097139Y-127996295D01*
X107957837Y-128089373D01*
X107839373Y-128207837D01*
X107746295Y-128347139D01*
X107682184Y-128501917D01*
X107682182Y-128501925D01*
X107649500Y-128666228D01*
X104241664Y-128666228D01*
X104222741Y-128595606D01*
X104170080Y-128504394D01*
X104165686Y-128500000D01*
X105282788Y-128500000D01*
X105279584Y-128479774D01*
X105223450Y-128307012D01*
X105210092Y-128280794D01*
X105197196Y-128212125D01*
X105223473Y-128147385D01*
X105280579Y-128107128D01*
X105320577Y-128100500D01*
X106513331Y-128100500D01*
X106513347Y-128100501D01*
X106520943Y-128100501D01*
X106679054Y-128100501D01*
X106679057Y-128100501D01*
X106831785Y-128059577D01*
X106881904Y-128030639D01*
X106968716Y-127980520D01*
X107080520Y-127868716D01*
X107080520Y-127868714D01*
X107090728Y-127858507D01*
X107090729Y-127858504D01*
X108980520Y-125968716D01*
X109059577Y-125831784D01*
X109100501Y-125679057D01*
X109100501Y-125520942D01*
X109100501Y-125513347D01*
X109100500Y-125513329D01*
X109100500Y-125457932D01*
X109120185Y-125390893D01*
X109151613Y-125357615D01*
X109252106Y-125284603D01*
X109380603Y-125156106D01*
X109487417Y-125009090D01*
X109569917Y-124847174D01*
X109576699Y-124826300D01*
X109626071Y-124674350D01*
X109626071Y-124674349D01*
X109626072Y-124674346D01*
X109654500Y-124494861D01*
X109654500Y-123005139D01*
X109626072Y-122825654D01*
X109626071Y-122825650D01*
X109626071Y-122825649D01*
X109569918Y-122652828D01*
X109569916Y-122652825D01*
X109487416Y-122490909D01*
X109380603Y-122343894D01*
X109252106Y-122215397D01*
X109105090Y-122108583D01*
X108943174Y-122026083D01*
X108943171Y-122026081D01*
X108770348Y-121969928D01*
X108650689Y-121950976D01*
X108590861Y-121941500D01*
X108409139Y-121941500D01*
X108349310Y-121950976D01*
X108229652Y-121969928D01*
X108229649Y-121969928D01*
X108056828Y-122026081D01*
X108056825Y-122026083D01*
X107894909Y-122108583D01*
X107811030Y-122169525D01*
X107747894Y-122215397D01*
X107747892Y-122215399D01*
X107747891Y-122215399D01*
X107619399Y-122343891D01*
X107619399Y-122343892D01*
X107619397Y-122343894D01*
X107573525Y-122407030D01*
X107512583Y-122490909D01*
X107430083Y-122652825D01*
X107430081Y-122652828D01*
X107373928Y-122825649D01*
X107373928Y-122825652D01*
X107373928Y-122825654D01*
X107345500Y-123005139D01*
X107345500Y-124494861D01*
X107346901Y-124503704D01*
X107373928Y-124674347D01*
X107373928Y-124674350D01*
X107430081Y-124847171D01*
X107430083Y-124847174D01*
X107512583Y-125009090D01*
X107619397Y-125156106D01*
X107747894Y-125284603D01*
X107756855Y-125291114D01*
X107799520Y-125346444D01*
X107805499Y-125416057D01*
X107772893Y-125477852D01*
X107771650Y-125479112D01*
X106387584Y-126863181D01*
X106326261Y-126896666D01*
X106299903Y-126899500D01*
X97850098Y-126899500D01*
X97783059Y-126879815D01*
X97762417Y-126863181D01*
X97086818Y-126187582D01*
X97053333Y-126126259D01*
X97050499Y-126099901D01*
X97050499Y-125925606D01*
X97050498Y-125925584D01*
X97047765Y-125890847D01*
X97047765Y-125890844D01*
X97004555Y-125742113D01*
X96925715Y-125608802D01*
X96925713Y-125608800D01*
X96925710Y-125608796D01*
X96816203Y-125499289D01*
X96816194Y-125499282D01*
X96735111Y-125451330D01*
X96682887Y-125420445D01*
X96534156Y-125377235D01*
X96534153Y-125377234D01*
X96534151Y-125377234D01*
X96503395Y-125374814D01*
X96499405Y-125374500D01*
X96499404Y-125374500D01*
X96000606Y-125374500D01*
X96000584Y-125374501D01*
X95965847Y-125377234D01*
X95965844Y-125377235D01*
X95817113Y-125420445D01*
X95817111Y-125420445D01*
X95817111Y-125420446D01*
X95683805Y-125499282D01*
X95683796Y-125499289D01*
X95574289Y-125608796D01*
X95574282Y-125608805D01*
X95495446Y-125742111D01*
X95452234Y-125890847D01*
X95452234Y-125890849D01*
X95449500Y-125925589D01*
X94950498Y-125925589D01*
X94947765Y-125890844D01*
X94904555Y-125742113D01*
X94825715Y-125608802D01*
X94825713Y-125608800D01*
X94825710Y-125608796D01*
X94716203Y-125499289D01*
X94716194Y-125499282D01*
X94635111Y-125451330D01*
X94582887Y-125420445D01*
X94434156Y-125377235D01*
X94434153Y-125377234D01*
X94434151Y-125377234D01*
X94403395Y-125374814D01*
X94399405Y-125374500D01*
X94399404Y-125374500D01*
X93900606Y-125374500D01*
X93900584Y-125374501D01*
X93865847Y-125377234D01*
X93865844Y-125377235D01*
X93717113Y-125420445D01*
X93717111Y-125420445D01*
X93717111Y-125420446D01*
X93612637Y-125482232D01*
X93549516Y-125499500D01*
X91040270Y-125499500D01*
X90973231Y-125479815D01*
X90952594Y-125463186D01*
X90384231Y-124894888D01*
X90350742Y-124833567D01*
X90351702Y-124776761D01*
X90396131Y-124601317D01*
X90396133Y-124601308D01*
X90396134Y-124601305D01*
X90398909Y-124567815D01*
X90415300Y-124370006D01*
X90415300Y-124369993D01*
X90396135Y-124138702D01*
X90396133Y-124138691D01*
X90339157Y-123913699D01*
X90245924Y-123701151D01*
X90118983Y-123506852D01*
X90118980Y-123506849D01*
X90118979Y-123506847D01*
X89961784Y-123336087D01*
X89961779Y-123336083D01*
X89961777Y-123336081D01*
X89778634Y-123193535D01*
X89778628Y-123193531D01*
X89574504Y-123083064D01*
X89574495Y-123083061D01*
X89354984Y-123007702D01*
X89183282Y-122979050D01*
X89126049Y-122969500D01*
X88893951Y-122969500D01*
X88848164Y-122977140D01*
X88665015Y-123007702D01*
X88445504Y-123083061D01*
X88445495Y-123083064D01*
X88241371Y-123193531D01*
X88241365Y-123193535D01*
X88058222Y-123336081D01*
X88058219Y-123336084D01*
X87901016Y-123506852D01*
X87774075Y-123701151D01*
X87680842Y-123913699D01*
X87623866Y-124138691D01*
X87623864Y-124138702D01*
X87604700Y-124369993D01*
X82500500Y-124369993D01*
X82500500Y-118374986D01*
X95425001Y-118374986D01*
X95435494Y-118477697D01*
X95490641Y-118644119D01*
X95490643Y-118644124D01*
X95582684Y-118793345D01*
X95706654Y-118917315D01*
X95855875Y-119009356D01*
X95855880Y-119009358D01*
X96022302Y-119064505D01*
X96022309Y-119064506D01*
X96125019Y-119074999D01*
X96349999Y-119074999D01*
X96350000Y-119074998D01*
X96350000Y-118037500D01*
X95425001Y-118037500D01*
X95425001Y-118374986D01*
X82500500Y-118374986D01*
X82500500Y-111154983D01*
X85999500Y-111154983D01*
X85999500Y-112330001D01*
X85999501Y-112330018D01*
X86010000Y-112432796D01*
X86010001Y-112432799D01*
X86021694Y-112468085D01*
X86065186Y-112599334D01*
X86157288Y-112748656D01*
X86281344Y-112872712D01*
X86430666Y-112964814D01*
X86597203Y-113019999D01*
X86699991Y-113030500D01*
X87650008Y-113030499D01*
X87650016Y-113030498D01*
X87650019Y-113030498D01*
X87706302Y-113024748D01*
X87752797Y-113019999D01*
X87919334Y-112964814D01*
X88068656Y-112872712D01*
X88192712Y-112748656D01*
X88284814Y-112599334D01*
X88339999Y-112432797D01*
X88339999Y-112432795D01*
X88341424Y-112428496D01*
X88381197Y-112371051D01*
X88445713Y-112344228D01*
X88459130Y-112343500D01*
X90183317Y-112343500D01*
X90232563Y-112353698D01*
X90239597Y-112356741D01*
X90239602Y-112356744D01*
X90281224Y-112368836D01*
X90397426Y-112402597D01*
X90397429Y-112402597D01*
X90397431Y-112402598D01*
X90434306Y-112405500D01*
X90434314Y-112405500D01*
X92215686Y-112405500D01*
X92215694Y-112405500D01*
X92252569Y-112402598D01*
X92252571Y-112402597D01*
X92252573Y-112402597D01*
X92361153Y-112371051D01*
X92410398Y-112356744D01*
X92551865Y-112273081D01*
X92668081Y-112156865D01*
X92751744Y-112015398D01*
X92797598Y-111857569D01*
X92800500Y-111820694D01*
X92800500Y-111389306D01*
X92797598Y-111352431D01*
X92794131Y-111340499D01*
X92763836Y-111236224D01*
X92751744Y-111194602D01*
X92668081Y-111053135D01*
X92668078Y-111053132D01*
X92663298Y-111046969D01*
X92665635Y-111045155D01*
X92638798Y-110996050D01*
X92643756Y-110926356D01*
X92664554Y-110893998D01*
X92662903Y-110892717D01*
X92667686Y-110886550D01*
X92751281Y-110745198D01*
X92797100Y-110587486D01*
X92797295Y-110585001D01*
X92797295Y-110585000D01*
X89852705Y-110585000D01*
X89852704Y-110585001D01*
X89852899Y-110587486D01*
X89898718Y-110745198D01*
X89982314Y-110886552D01*
X89987100Y-110892722D01*
X89984640Y-110894629D01*
X90011210Y-110943288D01*
X90006226Y-111012980D01*
X89985162Y-111045781D01*
X89986699Y-111046974D01*
X89981917Y-111053137D01*
X89965072Y-111081622D01*
X89914002Y-111129305D01*
X89858340Y-111142500D01*
X88459462Y-111142500D01*
X88392423Y-111122815D01*
X88346668Y-111070011D01*
X88341756Y-111057504D01*
X88315019Y-110976819D01*
X88284814Y-110885666D01*
X88192712Y-110736344D01*
X88068656Y-110612288D01*
X87919334Y-110520186D01*
X87752797Y-110465001D01*
X87752795Y-110465000D01*
X87650010Y-110454500D01*
X86699998Y-110454500D01*
X86699980Y-110454501D01*
X86597203Y-110465000D01*
X86597200Y-110465001D01*
X86430668Y-110520185D01*
X86430663Y-110520187D01*
X86281342Y-110612289D01*
X86157289Y-110736342D01*
X86065187Y-110885663D01*
X86065185Y-110885668D01*
X86051580Y-110926726D01*
X86010001Y-111052203D01*
X86010001Y-111052204D01*
X86010000Y-111052204D01*
X85999500Y-111154983D01*
X82500500Y-111154983D01*
X82500500Y-103779986D01*
X90950001Y-103779986D01*
X90960494Y-103882697D01*
X91015641Y-104049119D01*
X91015643Y-104049124D01*
X91107684Y-104198345D01*
X91231654Y-104322315D01*
X91380875Y-104414356D01*
X91380880Y-104414358D01*
X91547302Y-104469505D01*
X91547309Y-104469506D01*
X91650019Y-104479999D01*
X91987499Y-104479999D01*
X92487500Y-104479999D01*
X92824972Y-104479999D01*
X92824986Y-104479998D01*
X92927697Y-104469505D01*
X93094119Y-104414358D01*
X93094124Y-104414356D01*
X93243345Y-104322315D01*
X93367315Y-104198345D01*
X93459356Y-104049124D01*
X93459358Y-104049119D01*
X93514505Y-103882697D01*
X93514506Y-103882690D01*
X93524999Y-103779986D01*
X93525000Y-103779973D01*
X93525000Y-103555000D01*
X92487500Y-103555000D01*
X92487500Y-104479999D01*
X91987499Y-104479999D01*
X91987500Y-104479998D01*
X91987500Y-103555000D01*
X90950001Y-103555000D01*
X90950001Y-103779986D01*
X82500500Y-103779986D01*
X82500500Y-102830013D01*
X90950000Y-102830013D01*
X90950000Y-103055000D01*
X91987500Y-103055000D01*
X92487500Y-103055000D01*
X93524999Y-103055000D01*
X93524999Y-102830028D01*
X93524998Y-102830013D01*
X93514505Y-102727302D01*
X93459358Y-102560880D01*
X93459356Y-102560875D01*
X93367315Y-102411654D01*
X93243345Y-102287684D01*
X93094124Y-102195643D01*
X93094119Y-102195641D01*
X92927697Y-102140494D01*
X92927690Y-102140493D01*
X92824986Y-102130000D01*
X92487500Y-102130000D01*
X92487500Y-103055000D01*
X91987500Y-103055000D01*
X91987500Y-102130000D01*
X91650028Y-102130000D01*
X91650012Y-102130001D01*
X91547302Y-102140494D01*
X91380880Y-102195641D01*
X91380875Y-102195643D01*
X91231654Y-102287684D01*
X91107684Y-102411654D01*
X91015643Y-102560875D01*
X91015641Y-102560880D01*
X90960494Y-102727302D01*
X90960493Y-102727309D01*
X90950000Y-102830013D01*
X82500500Y-102830013D01*
X82500500Y-99750000D01*
X86310840Y-99750000D01*
X86351652Y-99884541D01*
X86444503Y-100058253D01*
X86444507Y-100058260D01*
X86569471Y-100210528D01*
X86721739Y-100335491D01*
X86895465Y-100428349D01*
X87030000Y-100469159D01*
X87030000Y-99750000D01*
X86310840Y-99750000D01*
X82500500Y-99750000D01*
X82500500Y-99249999D01*
X86310839Y-99249999D01*
X86310840Y-99250000D01*
X87030000Y-99250000D01*
X87030000Y-98530839D01*
X87029999Y-98530839D01*
X86895458Y-98571652D01*
X86721746Y-98664503D01*
X86721739Y-98664507D01*
X86569471Y-98789471D01*
X86444507Y-98941739D01*
X86444503Y-98941746D01*
X86351652Y-99115458D01*
X86310839Y-99249999D01*
X82500500Y-99249999D01*
X82500500Y-96924500D01*
X82520185Y-96857461D01*
X82572989Y-96811706D01*
X82624500Y-96800500D01*
X95208221Y-96800500D01*
X95275260Y-96820185D01*
G37*
%TD.AperFunction*%
%TA.AperFunction,Conductor*%
G36*
X95133731Y-98370185D02*
G01*
X95154374Y-98386820D01*
X95185629Y-98418076D01*
X95185633Y-98418079D01*
X95185635Y-98418081D01*
X95327102Y-98501744D01*
X95341438Y-98505909D01*
X95484926Y-98547597D01*
X95484929Y-98547597D01*
X95484931Y-98547598D01*
X95521806Y-98550500D01*
X96688000Y-98550500D01*
X96755039Y-98570185D01*
X96800794Y-98622989D01*
X96812000Y-98674500D01*
X96812000Y-98726000D01*
X96792315Y-98793039D01*
X96739511Y-98838794D01*
X96688000Y-98850000D01*
X96425000Y-98850000D01*
X96425000Y-99400000D01*
X97080685Y-99400000D01*
X97143806Y-99417268D01*
X97202102Y-99451744D01*
X97243724Y-99463836D01*
X97359926Y-99497597D01*
X97359929Y-99497597D01*
X97359931Y-99497598D01*
X97396806Y-99500500D01*
X97396814Y-99500500D01*
X98703186Y-99500500D01*
X98703194Y-99500500D01*
X98740069Y-99497598D01*
X98740071Y-99497597D01*
X98740073Y-99497597D01*
X98781691Y-99485505D01*
X98897898Y-99451744D01*
X99039365Y-99368081D01*
X99155581Y-99251865D01*
X99239244Y-99110398D01*
X99285098Y-98952569D01*
X99288000Y-98915694D01*
X99288000Y-98849500D01*
X99307685Y-98782461D01*
X99360489Y-98736706D01*
X99412000Y-98725500D01*
X102913000Y-98725500D01*
X102980039Y-98745185D01*
X103025794Y-98797989D01*
X103037000Y-98849500D01*
X103037000Y-99675001D01*
X103037001Y-99675019D01*
X103047500Y-99777796D01*
X103047501Y-99777799D01*
X103082934Y-99884727D01*
X103102686Y-99944334D01*
X103194788Y-100093656D01*
X103318844Y-100217712D01*
X103318846Y-100217713D01*
X103323581Y-100221457D01*
X103363960Y-100278477D01*
X103367102Y-100348276D01*
X103334355Y-100406407D01*
X101975365Y-101765398D01*
X101914042Y-101798883D01*
X101844350Y-101793899D01*
X101813374Y-101776984D01*
X101812335Y-101776206D01*
X101812328Y-101776202D01*
X101677482Y-101725908D01*
X101677483Y-101725908D01*
X101617883Y-101719501D01*
X101617881Y-101719500D01*
X101617873Y-101719500D01*
X101617864Y-101719500D01*
X98522129Y-101719500D01*
X98522123Y-101719501D01*
X98462516Y-101725908D01*
X98327671Y-101776202D01*
X98327664Y-101776206D01*
X98212455Y-101862452D01*
X98212452Y-101862455D01*
X98126206Y-101977664D01*
X98126202Y-101977671D01*
X98103391Y-102038833D01*
X98061520Y-102094767D01*
X97996056Y-102119184D01*
X97987209Y-102119500D01*
X96574842Y-102119500D01*
X96507803Y-102099815D01*
X96487161Y-102083181D01*
X94303980Y-99900001D01*
X94940204Y-99900001D01*
X94940399Y-99902486D01*
X94986218Y-100060198D01*
X95069814Y-100201552D01*
X95069821Y-100201561D01*
X95185938Y-100317678D01*
X95185947Y-100317685D01*
X95327303Y-100401282D01*
X95327306Y-100401283D01*
X95485004Y-100447099D01*
X95485010Y-100447100D01*
X95521850Y-100449999D01*
X95521866Y-100450000D01*
X95925000Y-100450000D01*
X96425000Y-100450000D01*
X96828134Y-100450000D01*
X96828149Y-100449999D01*
X96864989Y-100447100D01*
X96864995Y-100447099D01*
X97022693Y-100401283D01*
X97022696Y-100401282D01*
X97164052Y-100317685D01*
X97164061Y-100317678D01*
X97280178Y-100201561D01*
X97280185Y-100201552D01*
X97363781Y-100060198D01*
X97409600Y-99902486D01*
X97409795Y-99900001D01*
X97409795Y-99900000D01*
X96425000Y-99900000D01*
X96425000Y-100450000D01*
X95925000Y-100450000D01*
X95925000Y-99900000D01*
X94940205Y-99900000D01*
X94940204Y-99900001D01*
X94303980Y-99900001D01*
X93803977Y-99399998D01*
X94940204Y-99399998D01*
X94940205Y-99400000D01*
X95925000Y-99400000D01*
X95925000Y-98850000D01*
X95521850Y-98850000D01*
X95485010Y-98852899D01*
X95485004Y-98852900D01*
X95327306Y-98898716D01*
X95327303Y-98898717D01*
X95185947Y-98982314D01*
X95185938Y-98982321D01*
X95069821Y-99098438D01*
X95069814Y-99098447D01*
X94986218Y-99239801D01*
X94940399Y-99397513D01*
X94940204Y-99399998D01*
X93803977Y-99399998D01*
X93542334Y-99138355D01*
X93542332Y-99138352D01*
X93423461Y-99019481D01*
X93423453Y-99019475D01*
X93306803Y-98952128D01*
X93306800Y-98952127D01*
X93286529Y-98940423D01*
X93133801Y-98899499D01*
X92975687Y-98899499D01*
X92968091Y-98899499D01*
X92968075Y-98899500D01*
X90902791Y-98899500D01*
X90835752Y-98879815D01*
X90789997Y-98827011D01*
X90786609Y-98818833D01*
X90763797Y-98757671D01*
X90763793Y-98757664D01*
X90677547Y-98642455D01*
X90677544Y-98642452D01*
X90585792Y-98573766D01*
X90543921Y-98517832D01*
X90538937Y-98448141D01*
X90572423Y-98386818D01*
X90633746Y-98353334D01*
X90660103Y-98350500D01*
X95066692Y-98350500D01*
X95133731Y-98370185D01*
G37*
%TD.AperFunction*%
%TD*%
M02*
