%TF.GenerationSoftware,KiCad,Pcbnew,8.0.4-1.fc40*%
%TF.CreationDate,2024-08-27T20:57:41+02:00*%
%TF.ProjectId,ATU100 Alc interface,41545531-3030-4204-916c-6320696e7465,rev?*%
%TF.SameCoordinates,Original*%
%TF.FileFunction,Copper,L2,Bot*%
%TF.FilePolarity,Positive*%
%FSLAX46Y46*%
G04 Gerber Fmt 4.6, Leading zero omitted, Abs format (unit mm)*
G04 Created by KiCad (PCBNEW 8.0.4-1.fc40) date 2024-08-27 20:57:41*
%MOMM*%
%LPD*%
G01*
G04 APERTURE LIST*
%TA.AperFunction,ComponentPad*%
%ADD10O,2.616000X1.308000*%
%TD*%
%TA.AperFunction,ComponentPad*%
%ADD11O,1.308000X2.616000*%
%TD*%
%TA.AperFunction,ComponentPad*%
%ADD12R,1.000000X1.000000*%
%TD*%
%TA.AperFunction,ComponentPad*%
%ADD13O,1.000000X1.000000*%
%TD*%
%TA.AperFunction,ComponentPad*%
%ADD14C,1.800000*%
%TD*%
%TA.AperFunction,ViaPad*%
%ADD15C,0.600000*%
%TD*%
%TA.AperFunction,Conductor*%
%ADD16C,0.200000*%
%TD*%
G04 APERTURE END LIST*
D10*
%TO.P,J2,1*%
%TO.N,GND*%
X103500000Y-128750000D03*
D11*
%TO.P,J2,2*%
%TO.N,Net-(D1-A)*%
X108500000Y-123750000D03*
%TO.P,J2,3*%
%TO.N,Net-(J2-Pad3)*%
X98500000Y-123750000D03*
%TD*%
D12*
%TO.P,J1,1,Pin_1*%
%TO.N,Net-(J1-Pin_1)*%
X89820000Y-99500000D03*
D13*
%TO.P,J1,2,Pin_2*%
%TO.N,Net-(J1-Pin_2)*%
X88550000Y-99500000D03*
%TO.P,J1,3,Pin_3*%
%TO.N,GND*%
X87280000Y-99500000D03*
%TD*%
D14*
%TO.P,RV1,1,1*%
%TO.N,Net-(R2-Pad2)*%
X91550000Y-116750000D03*
%TO.P,RV1,2,2*%
%TO.N,Net-(D1-K)*%
X89010000Y-124370000D03*
%TO.P,RV1,3,3*%
%TO.N,Net-(R1-Pad1)*%
X91550000Y-129450000D03*
%TD*%
D15*
%TO.N,GND*%
X86200000Y-132050000D03*
X94950000Y-132100000D03*
X96750000Y-101200000D03*
X110950000Y-132100000D03*
X92650000Y-101200000D03*
%TD*%
D16*
%TO.N,GND*%
X92650000Y-101200000D02*
X96750000Y-101200000D01*
%TD*%
%TA.AperFunction,Conductor*%
%TO.N,GND*%
G36*
X112192370Y-130820589D02*
G01*
X112238211Y-130873318D01*
X112249500Y-130925013D01*
X112249500Y-132525500D01*
X112229815Y-132592539D01*
X112177011Y-132638294D01*
X112125500Y-132649500D01*
X82624500Y-132649500D01*
X82557461Y-132629815D01*
X82511706Y-132577011D01*
X82500500Y-132525500D01*
X82500500Y-130972905D01*
X82520185Y-130905866D01*
X82572989Y-130860111D01*
X82624296Y-130848905D01*
X91329245Y-130834774D01*
X91349831Y-130836463D01*
X91433951Y-130850500D01*
X91433953Y-130850500D01*
X91666044Y-130850500D01*
X91666049Y-130850500D01*
X91754502Y-130835739D01*
X91774685Y-130834050D01*
X97569833Y-130824643D01*
X97636904Y-130844219D01*
X97682745Y-130896949D01*
X97692800Y-130966091D01*
X97684598Y-130996089D01*
X97682185Y-131001915D01*
X97682182Y-131001925D01*
X97649500Y-131166228D01*
X97649500Y-131333771D01*
X97682182Y-131498074D01*
X97682184Y-131498082D01*
X97746295Y-131652860D01*
X97839373Y-131792162D01*
X97957837Y-131910626D01*
X98050494Y-131972537D01*
X98097137Y-132003703D01*
X98251918Y-132067816D01*
X98416228Y-132100499D01*
X98416232Y-132100500D01*
X98416233Y-132100500D01*
X98583768Y-132100500D01*
X98583769Y-132100499D01*
X98748082Y-132067816D01*
X98902863Y-132003703D01*
X99042162Y-131910626D01*
X99160626Y-131792162D01*
X99253703Y-131652863D01*
X99317816Y-131498082D01*
X99350500Y-131333767D01*
X99350500Y-131166233D01*
X99317816Y-131001918D01*
X99314152Y-130993074D01*
X99306686Y-130923606D01*
X99337961Y-130861127D01*
X99398051Y-130825475D01*
X99428499Y-130821625D01*
X107576566Y-130808398D01*
X107643633Y-130827973D01*
X107689474Y-130880703D01*
X107699529Y-130949845D01*
X107691326Y-130979846D01*
X107682184Y-131001918D01*
X107682182Y-131001925D01*
X107649500Y-131166228D01*
X107649500Y-131333771D01*
X107682182Y-131498074D01*
X107682184Y-131498082D01*
X107746295Y-131652860D01*
X107839373Y-131792162D01*
X107957837Y-131910626D01*
X108050494Y-131972537D01*
X108097137Y-132003703D01*
X108251918Y-132067816D01*
X108416228Y-132100499D01*
X108416232Y-132100500D01*
X108416233Y-132100500D01*
X108583768Y-132100500D01*
X108583769Y-132100499D01*
X108748082Y-132067816D01*
X108902863Y-132003703D01*
X109042162Y-131910626D01*
X109160626Y-131792162D01*
X109253703Y-131652863D01*
X109317816Y-131498082D01*
X109350500Y-131333767D01*
X109350500Y-131166233D01*
X109317816Y-131001918D01*
X109307433Y-130976853D01*
X109299965Y-130907387D01*
X109331239Y-130844907D01*
X109391328Y-130809254D01*
X109421786Y-130805402D01*
X112125302Y-130801014D01*
X112192370Y-130820589D01*
G37*
%TD.AperFunction*%
%TD*%
M02*
