%TF.GenerationSoftware,KiCad,Pcbnew,8.0.4-1.fc40*%
%TF.CreationDate,2024-08-27T20:39:50+02:00*%
%TF.ProjectId,ATU100 Alc interface Front,41545531-3030-4204-916c-6320696e7465,rev?*%
%TF.SameCoordinates,Original*%
%TF.FileFunction,Legend,Top*%
%TF.FilePolarity,Positive*%
%FSLAX46Y46*%
G04 Gerber Fmt 4.6, Leading zero omitted, Abs format (unit mm)*
G04 Created by KiCad (PCBNEW 8.0.4-1.fc40) date 2024-08-27 20:39:50*
%MOMM*%
%LPD*%
G01*
G04 APERTURE LIST*
%ADD10C,0.050000*%
%ADD11C,0.400000*%
%ADD12C,0.100000*%
G04 APERTURE END LIST*
D10*
X134850000Y-86050000D02*
X148850000Y-86050000D01*
X148850000Y-100050000D01*
X134850000Y-100050000D01*
X134850000Y-86050000D01*
X117400000Y-86050000D02*
X131400000Y-86050000D01*
X131400000Y-100050000D01*
X117400000Y-100050000D01*
X117400000Y-86050000D01*
X152300000Y-86050000D02*
X166300000Y-86050000D01*
X166300000Y-100050000D01*
X152300000Y-100050000D01*
X152300000Y-86050000D01*
D11*
X134597619Y-105284438D02*
X134597619Y-103284438D01*
X134597619Y-103284438D02*
X135359524Y-103284438D01*
X135359524Y-103284438D02*
X135550000Y-103379676D01*
X135550000Y-103379676D02*
X135645238Y-103474914D01*
X135645238Y-103474914D02*
X135740476Y-103665390D01*
X135740476Y-103665390D02*
X135740476Y-103951104D01*
X135740476Y-103951104D02*
X135645238Y-104141580D01*
X135645238Y-104141580D02*
X135550000Y-104236819D01*
X135550000Y-104236819D02*
X135359524Y-104332057D01*
X135359524Y-104332057D02*
X134597619Y-104332057D01*
X136883333Y-105284438D02*
X136692857Y-105189200D01*
X136692857Y-105189200D02*
X136597619Y-105093961D01*
X136597619Y-105093961D02*
X136502381Y-104903485D01*
X136502381Y-104903485D02*
X136502381Y-104332057D01*
X136502381Y-104332057D02*
X136597619Y-104141580D01*
X136597619Y-104141580D02*
X136692857Y-104046342D01*
X136692857Y-104046342D02*
X136883333Y-103951104D01*
X136883333Y-103951104D02*
X137169048Y-103951104D01*
X137169048Y-103951104D02*
X137359524Y-104046342D01*
X137359524Y-104046342D02*
X137454762Y-104141580D01*
X137454762Y-104141580D02*
X137550000Y-104332057D01*
X137550000Y-104332057D02*
X137550000Y-104903485D01*
X137550000Y-104903485D02*
X137454762Y-105093961D01*
X137454762Y-105093961D02*
X137359524Y-105189200D01*
X137359524Y-105189200D02*
X137169048Y-105284438D01*
X137169048Y-105284438D02*
X136883333Y-105284438D01*
X138216667Y-103951104D02*
X138597619Y-105284438D01*
X138597619Y-105284438D02*
X138978572Y-104332057D01*
X138978572Y-104332057D02*
X139359524Y-105284438D01*
X139359524Y-105284438D02*
X139740476Y-103951104D01*
X141264286Y-105189200D02*
X141073810Y-105284438D01*
X141073810Y-105284438D02*
X140692857Y-105284438D01*
X140692857Y-105284438D02*
X140502381Y-105189200D01*
X140502381Y-105189200D02*
X140407143Y-104998723D01*
X140407143Y-104998723D02*
X140407143Y-104236819D01*
X140407143Y-104236819D02*
X140502381Y-104046342D01*
X140502381Y-104046342D02*
X140692857Y-103951104D01*
X140692857Y-103951104D02*
X141073810Y-103951104D01*
X141073810Y-103951104D02*
X141264286Y-104046342D01*
X141264286Y-104046342D02*
X141359524Y-104236819D01*
X141359524Y-104236819D02*
X141359524Y-104427295D01*
X141359524Y-104427295D02*
X140407143Y-104617771D01*
X142216667Y-105284438D02*
X142216667Y-103951104D01*
X142216667Y-104332057D02*
X142311905Y-104141580D01*
X142311905Y-104141580D02*
X142407143Y-104046342D01*
X142407143Y-104046342D02*
X142597619Y-103951104D01*
X142597619Y-103951104D02*
X142788096Y-103951104D01*
D12*
X129006265Y-80836704D02*
X129482455Y-80836704D01*
X128911027Y-81122419D02*
X129244360Y-80122419D01*
X129244360Y-80122419D02*
X129577693Y-81122419D01*
X130387217Y-81122419D02*
X129911027Y-81122419D01*
X129911027Y-81122419D02*
X129911027Y-80122419D01*
X131291979Y-81027180D02*
X131244360Y-81074800D01*
X131244360Y-81074800D02*
X131101503Y-81122419D01*
X131101503Y-81122419D02*
X131006265Y-81122419D01*
X131006265Y-81122419D02*
X130863408Y-81074800D01*
X130863408Y-81074800D02*
X130768170Y-80979561D01*
X130768170Y-80979561D02*
X130720551Y-80884323D01*
X130720551Y-80884323D02*
X130672932Y-80693847D01*
X130672932Y-80693847D02*
X130672932Y-80550990D01*
X130672932Y-80550990D02*
X130720551Y-80360514D01*
X130720551Y-80360514D02*
X130768170Y-80265276D01*
X130768170Y-80265276D02*
X130863408Y-80170038D01*
X130863408Y-80170038D02*
X131006265Y-80122419D01*
X131006265Y-80122419D02*
X131101503Y-80122419D01*
X131101503Y-80122419D02*
X131244360Y-80170038D01*
X131244360Y-80170038D02*
X131291979Y-80217657D01*
X132434837Y-80836704D02*
X132911027Y-80836704D01*
X132339599Y-81122419D02*
X132672932Y-80122419D01*
X132672932Y-80122419D02*
X133006265Y-81122419D01*
X133768170Y-81122419D02*
X133768170Y-80122419D01*
X133768170Y-81074800D02*
X133672932Y-81122419D01*
X133672932Y-81122419D02*
X133482456Y-81122419D01*
X133482456Y-81122419D02*
X133387218Y-81074800D01*
X133387218Y-81074800D02*
X133339599Y-81027180D01*
X133339599Y-81027180D02*
X133291980Y-80931942D01*
X133291980Y-80931942D02*
X133291980Y-80646228D01*
X133291980Y-80646228D02*
X133339599Y-80550990D01*
X133339599Y-80550990D02*
X133387218Y-80503371D01*
X133387218Y-80503371D02*
X133482456Y-80455752D01*
X133482456Y-80455752D02*
X133672932Y-80455752D01*
X133672932Y-80455752D02*
X133768170Y-80503371D01*
X134244361Y-80455752D02*
X134244361Y-81312895D01*
X134244361Y-81312895D02*
X134196742Y-81408133D01*
X134196742Y-81408133D02*
X134101504Y-81455752D01*
X134101504Y-81455752D02*
X134053885Y-81455752D01*
X134244361Y-80122419D02*
X134196742Y-80170038D01*
X134196742Y-80170038D02*
X134244361Y-80217657D01*
X134244361Y-80217657D02*
X134291980Y-80170038D01*
X134291980Y-80170038D02*
X134244361Y-80122419D01*
X134244361Y-80122419D02*
X134244361Y-80217657D01*
X135149122Y-80455752D02*
X135149122Y-81122419D01*
X134720551Y-80455752D02*
X134720551Y-80979561D01*
X134720551Y-80979561D02*
X134768170Y-81074800D01*
X134768170Y-81074800D02*
X134863408Y-81122419D01*
X134863408Y-81122419D02*
X135006265Y-81122419D01*
X135006265Y-81122419D02*
X135101503Y-81074800D01*
X135101503Y-81074800D02*
X135149122Y-81027180D01*
X135577694Y-81074800D02*
X135672932Y-81122419D01*
X135672932Y-81122419D02*
X135863408Y-81122419D01*
X135863408Y-81122419D02*
X135958646Y-81074800D01*
X135958646Y-81074800D02*
X136006265Y-80979561D01*
X136006265Y-80979561D02*
X136006265Y-80931942D01*
X136006265Y-80931942D02*
X135958646Y-80836704D01*
X135958646Y-80836704D02*
X135863408Y-80789085D01*
X135863408Y-80789085D02*
X135720551Y-80789085D01*
X135720551Y-80789085D02*
X135625313Y-80741466D01*
X135625313Y-80741466D02*
X135577694Y-80646228D01*
X135577694Y-80646228D02*
X135577694Y-80598609D01*
X135577694Y-80598609D02*
X135625313Y-80503371D01*
X135625313Y-80503371D02*
X135720551Y-80455752D01*
X135720551Y-80455752D02*
X135863408Y-80455752D01*
X135863408Y-80455752D02*
X135958646Y-80503371D01*
X136291980Y-80455752D02*
X136672932Y-80455752D01*
X136434837Y-80122419D02*
X136434837Y-80979561D01*
X136434837Y-80979561D02*
X136482456Y-81074800D01*
X136482456Y-81074800D02*
X136577694Y-81122419D01*
X136577694Y-81122419D02*
X136672932Y-81122419D01*
X157706265Y-84636704D02*
X158182455Y-84636704D01*
X157611027Y-84922419D02*
X157944360Y-83922419D01*
X157944360Y-83922419D02*
X158277693Y-84922419D01*
X159039598Y-84255752D02*
X159039598Y-84922419D01*
X158611027Y-84255752D02*
X158611027Y-84779561D01*
X158611027Y-84779561D02*
X158658646Y-84874800D01*
X158658646Y-84874800D02*
X158753884Y-84922419D01*
X158753884Y-84922419D02*
X158896741Y-84922419D01*
X158896741Y-84922419D02*
X158991979Y-84874800D01*
X158991979Y-84874800D02*
X159039598Y-84827180D01*
X159372932Y-84255752D02*
X159753884Y-84255752D01*
X159515789Y-83922419D02*
X159515789Y-84779561D01*
X159515789Y-84779561D02*
X159563408Y-84874800D01*
X159563408Y-84874800D02*
X159658646Y-84922419D01*
X159658646Y-84922419D02*
X159753884Y-84922419D01*
X160230075Y-84922419D02*
X160134837Y-84874800D01*
X160134837Y-84874800D02*
X160087218Y-84827180D01*
X160087218Y-84827180D02*
X160039599Y-84731942D01*
X160039599Y-84731942D02*
X160039599Y-84446228D01*
X160039599Y-84446228D02*
X160087218Y-84350990D01*
X160087218Y-84350990D02*
X160134837Y-84303371D01*
X160134837Y-84303371D02*
X160230075Y-84255752D01*
X160230075Y-84255752D02*
X160372932Y-84255752D01*
X160372932Y-84255752D02*
X160468170Y-84303371D01*
X160468170Y-84303371D02*
X160515789Y-84350990D01*
X160515789Y-84350990D02*
X160563408Y-84446228D01*
X160563408Y-84446228D02*
X160563408Y-84731942D01*
X160563408Y-84731942D02*
X160515789Y-84827180D01*
X160515789Y-84827180D02*
X160468170Y-84874800D01*
X160468170Y-84874800D02*
X160372932Y-84922419D01*
X160372932Y-84922419D02*
X160230075Y-84922419D01*
X121375312Y-109027180D02*
X121327693Y-109074800D01*
X121327693Y-109074800D02*
X121184836Y-109122419D01*
X121184836Y-109122419D02*
X121089598Y-109122419D01*
X121089598Y-109122419D02*
X120946741Y-109074800D01*
X120946741Y-109074800D02*
X120851503Y-108979561D01*
X120851503Y-108979561D02*
X120803884Y-108884323D01*
X120803884Y-108884323D02*
X120756265Y-108693847D01*
X120756265Y-108693847D02*
X120756265Y-108550990D01*
X120756265Y-108550990D02*
X120803884Y-108360514D01*
X120803884Y-108360514D02*
X120851503Y-108265276D01*
X120851503Y-108265276D02*
X120946741Y-108170038D01*
X120946741Y-108170038D02*
X121089598Y-108122419D01*
X121089598Y-108122419D02*
X121184836Y-108122419D01*
X121184836Y-108122419D02*
X121327693Y-108170038D01*
X121327693Y-108170038D02*
X121375312Y-108217657D01*
X121803884Y-109122419D02*
X121803884Y-108122419D01*
X122232455Y-109122419D02*
X122232455Y-108598609D01*
X122232455Y-108598609D02*
X122184836Y-108503371D01*
X122184836Y-108503371D02*
X122089598Y-108455752D01*
X122089598Y-108455752D02*
X121946741Y-108455752D01*
X121946741Y-108455752D02*
X121851503Y-108503371D01*
X121851503Y-108503371D02*
X121803884Y-108550990D01*
X123137217Y-109122419D02*
X123137217Y-108598609D01*
X123137217Y-108598609D02*
X123089598Y-108503371D01*
X123089598Y-108503371D02*
X122994360Y-108455752D01*
X122994360Y-108455752D02*
X122803884Y-108455752D01*
X122803884Y-108455752D02*
X122708646Y-108503371D01*
X123137217Y-109074800D02*
X123041979Y-109122419D01*
X123041979Y-109122419D02*
X122803884Y-109122419D01*
X122803884Y-109122419D02*
X122708646Y-109074800D01*
X122708646Y-109074800D02*
X122661027Y-108979561D01*
X122661027Y-108979561D02*
X122661027Y-108884323D01*
X122661027Y-108884323D02*
X122708646Y-108789085D01*
X122708646Y-108789085D02*
X122803884Y-108741466D01*
X122803884Y-108741466D02*
X123041979Y-108741466D01*
X123041979Y-108741466D02*
X123137217Y-108693847D01*
X123613408Y-109122419D02*
X123613408Y-108455752D01*
X123613408Y-108646228D02*
X123661027Y-108550990D01*
X123661027Y-108550990D02*
X123708646Y-108503371D01*
X123708646Y-108503371D02*
X123803884Y-108455752D01*
X123803884Y-108455752D02*
X123899122Y-108455752D01*
X124661027Y-108455752D02*
X124661027Y-109265276D01*
X124661027Y-109265276D02*
X124613408Y-109360514D01*
X124613408Y-109360514D02*
X124565789Y-109408133D01*
X124565789Y-109408133D02*
X124470551Y-109455752D01*
X124470551Y-109455752D02*
X124327694Y-109455752D01*
X124327694Y-109455752D02*
X124232456Y-109408133D01*
X124661027Y-109074800D02*
X124565789Y-109122419D01*
X124565789Y-109122419D02*
X124375313Y-109122419D01*
X124375313Y-109122419D02*
X124280075Y-109074800D01*
X124280075Y-109074800D02*
X124232456Y-109027180D01*
X124232456Y-109027180D02*
X124184837Y-108931942D01*
X124184837Y-108931942D02*
X124184837Y-108646228D01*
X124184837Y-108646228D02*
X124232456Y-108550990D01*
X124232456Y-108550990D02*
X124280075Y-108503371D01*
X124280075Y-108503371D02*
X124375313Y-108455752D01*
X124375313Y-108455752D02*
X124565789Y-108455752D01*
X124565789Y-108455752D02*
X124661027Y-108503371D01*
X125518170Y-109074800D02*
X125422932Y-109122419D01*
X125422932Y-109122419D02*
X125232456Y-109122419D01*
X125232456Y-109122419D02*
X125137218Y-109074800D01*
X125137218Y-109074800D02*
X125089599Y-108979561D01*
X125089599Y-108979561D02*
X125089599Y-108598609D01*
X125089599Y-108598609D02*
X125137218Y-108503371D01*
X125137218Y-108503371D02*
X125232456Y-108455752D01*
X125232456Y-108455752D02*
X125422932Y-108455752D01*
X125422932Y-108455752D02*
X125518170Y-108503371D01*
X125518170Y-108503371D02*
X125565789Y-108598609D01*
X125565789Y-108598609D02*
X125565789Y-108693847D01*
X125565789Y-108693847D02*
X125089599Y-108789085D01*
X150661027Y-77902531D02*
X151232455Y-77902531D01*
X150946741Y-78902531D02*
X150946741Y-77902531D01*
X152327694Y-78378721D02*
X153089599Y-78378721D01*
X153089599Y-78664435D02*
X152327694Y-78664435D01*
X154280075Y-78616816D02*
X154756265Y-78616816D01*
X154184837Y-78902531D02*
X154518170Y-77902531D01*
X154518170Y-77902531D02*
X154851503Y-78902531D01*
X155661027Y-78902531D02*
X155184837Y-78902531D01*
X155184837Y-78902531D02*
X155184837Y-77902531D01*
X156565789Y-78807292D02*
X156518170Y-78854912D01*
X156518170Y-78854912D02*
X156375313Y-78902531D01*
X156375313Y-78902531D02*
X156280075Y-78902531D01*
X156280075Y-78902531D02*
X156137218Y-78854912D01*
X156137218Y-78854912D02*
X156041980Y-78759673D01*
X156041980Y-78759673D02*
X155994361Y-78664435D01*
X155994361Y-78664435D02*
X155946742Y-78473959D01*
X155946742Y-78473959D02*
X155946742Y-78331102D01*
X155946742Y-78331102D02*
X155994361Y-78140626D01*
X155994361Y-78140626D02*
X156041980Y-78045388D01*
X156041980Y-78045388D02*
X156137218Y-77950150D01*
X156137218Y-77950150D02*
X156280075Y-77902531D01*
X156280075Y-77902531D02*
X156375313Y-77902531D01*
X156375313Y-77902531D02*
X156518170Y-77950150D01*
X156518170Y-77950150D02*
X156565789Y-77997769D01*
X151375312Y-80512475D02*
X151041979Y-80036284D01*
X150803884Y-80512475D02*
X150803884Y-79512475D01*
X150803884Y-79512475D02*
X151184836Y-79512475D01*
X151184836Y-79512475D02*
X151280074Y-79560094D01*
X151280074Y-79560094D02*
X151327693Y-79607713D01*
X151327693Y-79607713D02*
X151375312Y-79702951D01*
X151375312Y-79702951D02*
X151375312Y-79845808D01*
X151375312Y-79845808D02*
X151327693Y-79941046D01*
X151327693Y-79941046D02*
X151280074Y-79988665D01*
X151280074Y-79988665D02*
X151184836Y-80036284D01*
X151184836Y-80036284D02*
X150803884Y-80036284D01*
X152565789Y-79988665D02*
X153327694Y-79988665D01*
X153327694Y-80274379D02*
X152565789Y-80274379D01*
X154422932Y-79512475D02*
X154994360Y-79512475D01*
X154708646Y-80512475D02*
X154708646Y-79512475D01*
X155232456Y-79512475D02*
X155899122Y-80512475D01*
X155899122Y-79512475D02*
X155232456Y-80512475D01*
X150756265Y-82074800D02*
X150899122Y-82122419D01*
X150899122Y-82122419D02*
X151137217Y-82122419D01*
X151137217Y-82122419D02*
X151232455Y-82074800D01*
X151232455Y-82074800D02*
X151280074Y-82027180D01*
X151280074Y-82027180D02*
X151327693Y-81931942D01*
X151327693Y-81931942D02*
X151327693Y-81836704D01*
X151327693Y-81836704D02*
X151280074Y-81741466D01*
X151280074Y-81741466D02*
X151232455Y-81693847D01*
X151232455Y-81693847D02*
X151137217Y-81646228D01*
X151137217Y-81646228D02*
X150946741Y-81598609D01*
X150946741Y-81598609D02*
X150851503Y-81550990D01*
X150851503Y-81550990D02*
X150803884Y-81503371D01*
X150803884Y-81503371D02*
X150756265Y-81408133D01*
X150756265Y-81408133D02*
X150756265Y-81312895D01*
X150756265Y-81312895D02*
X150803884Y-81217657D01*
X150803884Y-81217657D02*
X150851503Y-81170038D01*
X150851503Y-81170038D02*
X150946741Y-81122419D01*
X150946741Y-81122419D02*
X151184836Y-81122419D01*
X151184836Y-81122419D02*
X151327693Y-81170038D01*
X152518170Y-81598609D02*
X153280075Y-81598609D01*
X153280075Y-81884323D02*
X152518170Y-81884323D01*
X155041979Y-81170038D02*
X154946741Y-81122419D01*
X154946741Y-81122419D02*
X154803884Y-81122419D01*
X154803884Y-81122419D02*
X154661027Y-81170038D01*
X154661027Y-81170038D02*
X154565789Y-81265276D01*
X154565789Y-81265276D02*
X154518170Y-81360514D01*
X154518170Y-81360514D02*
X154470551Y-81550990D01*
X154470551Y-81550990D02*
X154470551Y-81693847D01*
X154470551Y-81693847D02*
X154518170Y-81884323D01*
X154518170Y-81884323D02*
X154565789Y-81979561D01*
X154565789Y-81979561D02*
X154661027Y-82074800D01*
X154661027Y-82074800D02*
X154803884Y-82122419D01*
X154803884Y-82122419D02*
X154899122Y-82122419D01*
X154899122Y-82122419D02*
X155041979Y-82074800D01*
X155041979Y-82074800D02*
X155089598Y-82027180D01*
X155089598Y-82027180D02*
X155089598Y-81693847D01*
X155089598Y-81693847D02*
X154899122Y-81693847D01*
X155518170Y-82122419D02*
X155518170Y-81122419D01*
X155518170Y-81122419D02*
X156089598Y-82122419D01*
X156089598Y-82122419D02*
X156089598Y-81122419D01*
X156565789Y-82122419D02*
X156565789Y-81122419D01*
X156565789Y-81122419D02*
X156803884Y-81122419D01*
X156803884Y-81122419D02*
X156946741Y-81170038D01*
X156946741Y-81170038D02*
X157041979Y-81265276D01*
X157041979Y-81265276D02*
X157089598Y-81360514D01*
X157089598Y-81360514D02*
X157137217Y-81550990D01*
X157137217Y-81550990D02*
X157137217Y-81693847D01*
X157137217Y-81693847D02*
X157089598Y-81884323D01*
X157089598Y-81884323D02*
X157041979Y-81979561D01*
X157041979Y-81979561D02*
X156946741Y-82074800D01*
X156946741Y-82074800D02*
X156803884Y-82122419D01*
X156803884Y-82122419D02*
X156565789Y-82122419D01*
X139937217Y-84398609D02*
X140080074Y-84446228D01*
X140080074Y-84446228D02*
X140127693Y-84493847D01*
X140127693Y-84493847D02*
X140175312Y-84589085D01*
X140175312Y-84589085D02*
X140175312Y-84731942D01*
X140175312Y-84731942D02*
X140127693Y-84827180D01*
X140127693Y-84827180D02*
X140080074Y-84874800D01*
X140080074Y-84874800D02*
X139984836Y-84922419D01*
X139984836Y-84922419D02*
X139603884Y-84922419D01*
X139603884Y-84922419D02*
X139603884Y-83922419D01*
X139603884Y-83922419D02*
X139937217Y-83922419D01*
X139937217Y-83922419D02*
X140032455Y-83970038D01*
X140032455Y-83970038D02*
X140080074Y-84017657D01*
X140080074Y-84017657D02*
X140127693Y-84112895D01*
X140127693Y-84112895D02*
X140127693Y-84208133D01*
X140127693Y-84208133D02*
X140080074Y-84303371D01*
X140080074Y-84303371D02*
X140032455Y-84350990D01*
X140032455Y-84350990D02*
X139937217Y-84398609D01*
X139937217Y-84398609D02*
X139603884Y-84398609D01*
X140508646Y-84255752D02*
X140746741Y-84922419D01*
X140984836Y-84255752D02*
X140746741Y-84922419D01*
X140746741Y-84922419D02*
X140651503Y-85160514D01*
X140651503Y-85160514D02*
X140603884Y-85208133D01*
X140603884Y-85208133D02*
X140508646Y-85255752D01*
X141365789Y-84255752D02*
X141365789Y-85255752D01*
X141365789Y-84303371D02*
X141461027Y-84255752D01*
X141461027Y-84255752D02*
X141651503Y-84255752D01*
X141651503Y-84255752D02*
X141746741Y-84303371D01*
X141746741Y-84303371D02*
X141794360Y-84350990D01*
X141794360Y-84350990D02*
X141841979Y-84446228D01*
X141841979Y-84446228D02*
X141841979Y-84731942D01*
X141841979Y-84731942D02*
X141794360Y-84827180D01*
X141794360Y-84827180D02*
X141746741Y-84874800D01*
X141746741Y-84874800D02*
X141651503Y-84922419D01*
X141651503Y-84922419D02*
X141461027Y-84922419D01*
X141461027Y-84922419D02*
X141365789Y-84874800D01*
X142699122Y-84922419D02*
X142699122Y-84398609D01*
X142699122Y-84398609D02*
X142651503Y-84303371D01*
X142651503Y-84303371D02*
X142556265Y-84255752D01*
X142556265Y-84255752D02*
X142365789Y-84255752D01*
X142365789Y-84255752D02*
X142270551Y-84303371D01*
X142699122Y-84874800D02*
X142603884Y-84922419D01*
X142603884Y-84922419D02*
X142365789Y-84922419D01*
X142365789Y-84922419D02*
X142270551Y-84874800D01*
X142270551Y-84874800D02*
X142222932Y-84779561D01*
X142222932Y-84779561D02*
X142222932Y-84684323D01*
X142222932Y-84684323D02*
X142270551Y-84589085D01*
X142270551Y-84589085D02*
X142365789Y-84541466D01*
X142365789Y-84541466D02*
X142603884Y-84541466D01*
X142603884Y-84541466D02*
X142699122Y-84493847D01*
X143127694Y-84874800D02*
X143222932Y-84922419D01*
X143222932Y-84922419D02*
X143413408Y-84922419D01*
X143413408Y-84922419D02*
X143508646Y-84874800D01*
X143508646Y-84874800D02*
X143556265Y-84779561D01*
X143556265Y-84779561D02*
X143556265Y-84731942D01*
X143556265Y-84731942D02*
X143508646Y-84636704D01*
X143508646Y-84636704D02*
X143413408Y-84589085D01*
X143413408Y-84589085D02*
X143270551Y-84589085D01*
X143270551Y-84589085D02*
X143175313Y-84541466D01*
X143175313Y-84541466D02*
X143127694Y-84446228D01*
X143127694Y-84446228D02*
X143127694Y-84398609D01*
X143127694Y-84398609D02*
X143175313Y-84303371D01*
X143175313Y-84303371D02*
X143270551Y-84255752D01*
X143270551Y-84255752D02*
X143413408Y-84255752D01*
X143413408Y-84255752D02*
X143508646Y-84303371D01*
X143937218Y-84874800D02*
X144032456Y-84922419D01*
X144032456Y-84922419D02*
X144222932Y-84922419D01*
X144222932Y-84922419D02*
X144318170Y-84874800D01*
X144318170Y-84874800D02*
X144365789Y-84779561D01*
X144365789Y-84779561D02*
X144365789Y-84731942D01*
X144365789Y-84731942D02*
X144318170Y-84636704D01*
X144318170Y-84636704D02*
X144222932Y-84589085D01*
X144222932Y-84589085D02*
X144080075Y-84589085D01*
X144080075Y-84589085D02*
X143984837Y-84541466D01*
X143984837Y-84541466D02*
X143937218Y-84446228D01*
X143937218Y-84446228D02*
X143937218Y-84398609D01*
X143937218Y-84398609D02*
X143984837Y-84303371D01*
X143984837Y-84303371D02*
X144080075Y-84255752D01*
X144080075Y-84255752D02*
X144222932Y-84255752D01*
X144222932Y-84255752D02*
X144318170Y-84303371D01*
D11*
X97369047Y-77723233D02*
X98321428Y-77723233D01*
X97178571Y-78294662D02*
X97845237Y-76294662D01*
X97845237Y-76294662D02*
X98511904Y-78294662D01*
X98892857Y-76294662D02*
X100035714Y-76294662D01*
X99464285Y-78294662D02*
X99464285Y-76294662D01*
X100702381Y-76294662D02*
X100702381Y-77913709D01*
X100702381Y-77913709D02*
X100797619Y-78104185D01*
X100797619Y-78104185D02*
X100892857Y-78199424D01*
X100892857Y-78199424D02*
X101083333Y-78294662D01*
X101083333Y-78294662D02*
X101464286Y-78294662D01*
X101464286Y-78294662D02*
X101654762Y-78199424D01*
X101654762Y-78199424D02*
X101750000Y-78104185D01*
X101750000Y-78104185D02*
X101845238Y-77913709D01*
X101845238Y-77913709D02*
X101845238Y-76294662D01*
X102797619Y-77532757D02*
X104321429Y-77532757D01*
X106321428Y-78294662D02*
X105178571Y-78294662D01*
X105749999Y-78294662D02*
X105749999Y-76294662D01*
X105749999Y-76294662D02*
X105559523Y-76580376D01*
X105559523Y-76580376D02*
X105369047Y-76770852D01*
X105369047Y-76770852D02*
X105178571Y-76866090D01*
X107559523Y-76294662D02*
X107750000Y-76294662D01*
X107750000Y-76294662D02*
X107940476Y-76389900D01*
X107940476Y-76389900D02*
X108035714Y-76485138D01*
X108035714Y-76485138D02*
X108130952Y-76675614D01*
X108130952Y-76675614D02*
X108226190Y-77056566D01*
X108226190Y-77056566D02*
X108226190Y-77532757D01*
X108226190Y-77532757D02*
X108130952Y-77913709D01*
X108130952Y-77913709D02*
X108035714Y-78104185D01*
X108035714Y-78104185D02*
X107940476Y-78199424D01*
X107940476Y-78199424D02*
X107750000Y-78294662D01*
X107750000Y-78294662D02*
X107559523Y-78294662D01*
X107559523Y-78294662D02*
X107369047Y-78199424D01*
X107369047Y-78199424D02*
X107273809Y-78104185D01*
X107273809Y-78104185D02*
X107178571Y-77913709D01*
X107178571Y-77913709D02*
X107083333Y-77532757D01*
X107083333Y-77532757D02*
X107083333Y-77056566D01*
X107083333Y-77056566D02*
X107178571Y-76675614D01*
X107178571Y-76675614D02*
X107273809Y-76485138D01*
X107273809Y-76485138D02*
X107369047Y-76389900D01*
X107369047Y-76389900D02*
X107559523Y-76294662D01*
X109464285Y-76294662D02*
X109654762Y-76294662D01*
X109654762Y-76294662D02*
X109845238Y-76389900D01*
X109845238Y-76389900D02*
X109940476Y-76485138D01*
X109940476Y-76485138D02*
X110035714Y-76675614D01*
X110035714Y-76675614D02*
X110130952Y-77056566D01*
X110130952Y-77056566D02*
X110130952Y-77532757D01*
X110130952Y-77532757D02*
X110035714Y-77913709D01*
X110035714Y-77913709D02*
X109940476Y-78104185D01*
X109940476Y-78104185D02*
X109845238Y-78199424D01*
X109845238Y-78199424D02*
X109654762Y-78294662D01*
X109654762Y-78294662D02*
X109464285Y-78294662D01*
X109464285Y-78294662D02*
X109273809Y-78199424D01*
X109273809Y-78199424D02*
X109178571Y-78104185D01*
X109178571Y-78104185D02*
X109083333Y-77913709D01*
X109083333Y-77913709D02*
X108988095Y-77532757D01*
X108988095Y-77532757D02*
X108988095Y-77056566D01*
X108988095Y-77056566D02*
X109083333Y-76675614D01*
X109083333Y-76675614D02*
X109178571Y-76485138D01*
X109178571Y-76485138D02*
X109273809Y-76389900D01*
X109273809Y-76389900D02*
X109464285Y-76294662D01*
X97654761Y-80466931D02*
X97940475Y-80562169D01*
X97940475Y-80562169D02*
X98035713Y-80657407D01*
X98035713Y-80657407D02*
X98130951Y-80847883D01*
X98130951Y-80847883D02*
X98130951Y-81133597D01*
X98130951Y-81133597D02*
X98035713Y-81324073D01*
X98035713Y-81324073D02*
X97940475Y-81419312D01*
X97940475Y-81419312D02*
X97749999Y-81514550D01*
X97749999Y-81514550D02*
X96988094Y-81514550D01*
X96988094Y-81514550D02*
X96988094Y-79514550D01*
X96988094Y-79514550D02*
X97654761Y-79514550D01*
X97654761Y-79514550D02*
X97845237Y-79609788D01*
X97845237Y-79609788D02*
X97940475Y-79705026D01*
X97940475Y-79705026D02*
X98035713Y-79895502D01*
X98035713Y-79895502D02*
X98035713Y-80085978D01*
X98035713Y-80085978D02*
X97940475Y-80276454D01*
X97940475Y-80276454D02*
X97845237Y-80371692D01*
X97845237Y-80371692D02*
X97654761Y-80466931D01*
X97654761Y-80466931D02*
X96988094Y-80466931D01*
X98797618Y-80181216D02*
X99273808Y-81514550D01*
X99749999Y-80181216D02*
X99273808Y-81514550D01*
X99273808Y-81514550D02*
X99083332Y-81990740D01*
X99083332Y-81990740D02*
X98988094Y-82085978D01*
X98988094Y-82085978D02*
X98797618Y-82181216D01*
X102035714Y-81514550D02*
X102035714Y-79514550D01*
X102035714Y-79514550D02*
X102797619Y-79514550D01*
X102797619Y-79514550D02*
X102988095Y-79609788D01*
X102988095Y-79609788D02*
X103083333Y-79705026D01*
X103083333Y-79705026D02*
X103178571Y-79895502D01*
X103178571Y-79895502D02*
X103178571Y-80181216D01*
X103178571Y-80181216D02*
X103083333Y-80371692D01*
X103083333Y-80371692D02*
X102988095Y-80466931D01*
X102988095Y-80466931D02*
X102797619Y-80562169D01*
X102797619Y-80562169D02*
X102035714Y-80562169D01*
X103940476Y-80943121D02*
X104892857Y-80943121D01*
X103750000Y-81514550D02*
X104416666Y-79514550D01*
X104416666Y-79514550D02*
X105083333Y-81514550D01*
X105654762Y-79705026D02*
X105750000Y-79609788D01*
X105750000Y-79609788D02*
X105940476Y-79514550D01*
X105940476Y-79514550D02*
X106416667Y-79514550D01*
X106416667Y-79514550D02*
X106607143Y-79609788D01*
X106607143Y-79609788D02*
X106702381Y-79705026D01*
X106702381Y-79705026D02*
X106797619Y-79895502D01*
X106797619Y-79895502D02*
X106797619Y-80085978D01*
X106797619Y-80085978D02*
X106702381Y-80371692D01*
X106702381Y-80371692D02*
X105559524Y-81514550D01*
X105559524Y-81514550D02*
X106797619Y-81514550D01*
X107654762Y-80466931D02*
X108321429Y-80466931D01*
X108607143Y-81514550D02*
X107654762Y-81514550D01*
X107654762Y-81514550D02*
X107654762Y-79514550D01*
X107654762Y-79514550D02*
X108607143Y-79514550D01*
X110607143Y-81514550D02*
X109940476Y-80562169D01*
X109464286Y-81514550D02*
X109464286Y-79514550D01*
X109464286Y-79514550D02*
X110226191Y-79514550D01*
X110226191Y-79514550D02*
X110416667Y-79609788D01*
X110416667Y-79609788D02*
X110511905Y-79705026D01*
X110511905Y-79705026D02*
X110607143Y-79895502D01*
X110607143Y-79895502D02*
X110607143Y-80181216D01*
X110607143Y-80181216D02*
X110511905Y-80371692D01*
X110511905Y-80371692D02*
X110416667Y-80466931D01*
X110416667Y-80466931D02*
X110226191Y-80562169D01*
X110226191Y-80562169D02*
X109464286Y-80562169D01*
X100321428Y-82924914D02*
X100416666Y-82829676D01*
X100416666Y-82829676D02*
X100607142Y-82734438D01*
X100607142Y-82734438D02*
X101083333Y-82734438D01*
X101083333Y-82734438D02*
X101273809Y-82829676D01*
X101273809Y-82829676D02*
X101369047Y-82924914D01*
X101369047Y-82924914D02*
X101464285Y-83115390D01*
X101464285Y-83115390D02*
X101464285Y-83305866D01*
X101464285Y-83305866D02*
X101369047Y-83591580D01*
X101369047Y-83591580D02*
X100226190Y-84734438D01*
X100226190Y-84734438D02*
X101464285Y-84734438D01*
X102702380Y-82734438D02*
X102892857Y-82734438D01*
X102892857Y-82734438D02*
X103083333Y-82829676D01*
X103083333Y-82829676D02*
X103178571Y-82924914D01*
X103178571Y-82924914D02*
X103273809Y-83115390D01*
X103273809Y-83115390D02*
X103369047Y-83496342D01*
X103369047Y-83496342D02*
X103369047Y-83972533D01*
X103369047Y-83972533D02*
X103273809Y-84353485D01*
X103273809Y-84353485D02*
X103178571Y-84543961D01*
X103178571Y-84543961D02*
X103083333Y-84639200D01*
X103083333Y-84639200D02*
X102892857Y-84734438D01*
X102892857Y-84734438D02*
X102702380Y-84734438D01*
X102702380Y-84734438D02*
X102511904Y-84639200D01*
X102511904Y-84639200D02*
X102416666Y-84543961D01*
X102416666Y-84543961D02*
X102321428Y-84353485D01*
X102321428Y-84353485D02*
X102226190Y-83972533D01*
X102226190Y-83972533D02*
X102226190Y-83496342D01*
X102226190Y-83496342D02*
X102321428Y-83115390D01*
X102321428Y-83115390D02*
X102416666Y-82924914D01*
X102416666Y-82924914D02*
X102511904Y-82829676D01*
X102511904Y-82829676D02*
X102702380Y-82734438D01*
X104130952Y-82924914D02*
X104226190Y-82829676D01*
X104226190Y-82829676D02*
X104416666Y-82734438D01*
X104416666Y-82734438D02*
X104892857Y-82734438D01*
X104892857Y-82734438D02*
X105083333Y-82829676D01*
X105083333Y-82829676D02*
X105178571Y-82924914D01*
X105178571Y-82924914D02*
X105273809Y-83115390D01*
X105273809Y-83115390D02*
X105273809Y-83305866D01*
X105273809Y-83305866D02*
X105178571Y-83591580D01*
X105178571Y-83591580D02*
X104035714Y-84734438D01*
X104035714Y-84734438D02*
X105273809Y-84734438D01*
X106988095Y-83401104D02*
X106988095Y-84734438D01*
X106511904Y-82639200D02*
X106035714Y-84067771D01*
X106035714Y-84067771D02*
X107273809Y-84067771D01*
D12*
X120361027Y-83922419D02*
X120932455Y-83922419D01*
X120646741Y-84922419D02*
X120646741Y-83922419D01*
X121694360Y-84255752D02*
X121694360Y-84922419D01*
X121265789Y-84255752D02*
X121265789Y-84779561D01*
X121265789Y-84779561D02*
X121313408Y-84874800D01*
X121313408Y-84874800D02*
X121408646Y-84922419D01*
X121408646Y-84922419D02*
X121551503Y-84922419D01*
X121551503Y-84922419D02*
X121646741Y-84874800D01*
X121646741Y-84874800D02*
X121694360Y-84827180D01*
X122170551Y-84255752D02*
X122170551Y-84922419D01*
X122170551Y-84350990D02*
X122218170Y-84303371D01*
X122218170Y-84303371D02*
X122313408Y-84255752D01*
X122313408Y-84255752D02*
X122456265Y-84255752D01*
X122456265Y-84255752D02*
X122551503Y-84303371D01*
X122551503Y-84303371D02*
X122599122Y-84398609D01*
X122599122Y-84398609D02*
X122599122Y-84922419D01*
X123456265Y-84874800D02*
X123361027Y-84922419D01*
X123361027Y-84922419D02*
X123170551Y-84922419D01*
X123170551Y-84922419D02*
X123075313Y-84874800D01*
X123075313Y-84874800D02*
X123027694Y-84779561D01*
X123027694Y-84779561D02*
X123027694Y-84398609D01*
X123027694Y-84398609D02*
X123075313Y-84303371D01*
X123075313Y-84303371D02*
X123170551Y-84255752D01*
X123170551Y-84255752D02*
X123361027Y-84255752D01*
X123361027Y-84255752D02*
X123456265Y-84303371D01*
X123456265Y-84303371D02*
X123503884Y-84398609D01*
X123503884Y-84398609D02*
X123503884Y-84493847D01*
X123503884Y-84493847D02*
X123027694Y-84589085D01*
X124646741Y-83874800D02*
X123789599Y-85160514D01*
X124980075Y-84922419D02*
X124980075Y-83922419D01*
X124980075Y-83922419D02*
X125313408Y-84636704D01*
X125313408Y-84636704D02*
X125646741Y-83922419D01*
X125646741Y-83922419D02*
X125646741Y-84922419D01*
X126503884Y-84874800D02*
X126408646Y-84922419D01*
X126408646Y-84922419D02*
X126218170Y-84922419D01*
X126218170Y-84922419D02*
X126122932Y-84874800D01*
X126122932Y-84874800D02*
X126075313Y-84779561D01*
X126075313Y-84779561D02*
X126075313Y-84398609D01*
X126075313Y-84398609D02*
X126122932Y-84303371D01*
X126122932Y-84303371D02*
X126218170Y-84255752D01*
X126218170Y-84255752D02*
X126408646Y-84255752D01*
X126408646Y-84255752D02*
X126503884Y-84303371D01*
X126503884Y-84303371D02*
X126551503Y-84398609D01*
X126551503Y-84398609D02*
X126551503Y-84493847D01*
X126551503Y-84493847D02*
X126075313Y-84589085D01*
X126980075Y-84255752D02*
X126980075Y-84922419D01*
X126980075Y-84350990D02*
X127027694Y-84303371D01*
X127027694Y-84303371D02*
X127122932Y-84255752D01*
X127122932Y-84255752D02*
X127265789Y-84255752D01*
X127265789Y-84255752D02*
X127361027Y-84303371D01*
X127361027Y-84303371D02*
X127408646Y-84398609D01*
X127408646Y-84398609D02*
X127408646Y-84922419D01*
X128313408Y-84255752D02*
X128313408Y-84922419D01*
X127884837Y-84255752D02*
X127884837Y-84779561D01*
X127884837Y-84779561D02*
X127932456Y-84874800D01*
X127932456Y-84874800D02*
X128027694Y-84922419D01*
X128027694Y-84922419D02*
X128170551Y-84922419D01*
X128170551Y-84922419D02*
X128265789Y-84874800D01*
X128265789Y-84874800D02*
X128313408Y-84827180D01*
M02*
