%TF.GenerationSoftware,KiCad,Pcbnew,8.0.4-1.fc40*%
%TF.CreationDate,2024-08-27T20:57:50+02:00*%
%TF.ProjectId,ATU100 Alc interface,41545531-3030-4204-916c-6320696e7465,rev?*%
%TF.SameCoordinates,Original*%
%TF.FileFunction,Drillmap*%
%TF.FilePolarity,Positive*%
%FSLAX45Y45*%
G04 Gerber Fmt 4.5, Leading zero omitted, Abs format (unit mm)*
G04 Created by KiCad (PCBNEW 8.0.4-1.fc40) date 2024-08-27 20:57:50*
%MOMM*%
%LPD*%
G01*
G04 APERTURE LIST*
%ADD10C,0.050000*%
%ADD11C,0.200000*%
%ADD12C,0.120000*%
G04 APERTURE END LIST*
D10*
X8200000Y-9630000D02*
X11275000Y-9630000D01*
X11275000Y-13315000D01*
X8200000Y-13315000D01*
X8200000Y-9630000D01*
D11*
D12*
X9790000Y-12815000D02*
X9910000Y-12935000D01*
X9910000Y-12815000D02*
X9790000Y-12935000D01*
X9790000Y-13065000D02*
X9910000Y-13185000D01*
X9910000Y-13065000D02*
X9790000Y-13185000D01*
X10290000Y-12315000D02*
X10410000Y-12435000D01*
X10410000Y-12315000D02*
X10290000Y-12435000D01*
X10790000Y-12815000D02*
X10910000Y-12935000D01*
X10910000Y-12815000D02*
X10790000Y-12935000D01*
X10790000Y-13065000D02*
X10910000Y-13185000D01*
X10910000Y-13065000D02*
X10790000Y-13185000D01*
D11*
X8458277Y-13628984D02*
X8458277Y-13428984D01*
X8458277Y-13428984D02*
X8505896Y-13428984D01*
X8505896Y-13428984D02*
X8534467Y-13438508D01*
X8534467Y-13438508D02*
X8553515Y-13457555D01*
X8553515Y-13457555D02*
X8563039Y-13476603D01*
X8563039Y-13476603D02*
X8572563Y-13514698D01*
X8572563Y-13514698D02*
X8572563Y-13543269D01*
X8572563Y-13543269D02*
X8563039Y-13581365D01*
X8563039Y-13581365D02*
X8553515Y-13600412D01*
X8553515Y-13600412D02*
X8534467Y-13619460D01*
X8534467Y-13619460D02*
X8505896Y-13628984D01*
X8505896Y-13628984D02*
X8458277Y-13628984D01*
X8658277Y-13628984D02*
X8658277Y-13495650D01*
X8658277Y-13533746D02*
X8667801Y-13514698D01*
X8667801Y-13514698D02*
X8677324Y-13505174D01*
X8677324Y-13505174D02*
X8696372Y-13495650D01*
X8696372Y-13495650D02*
X8715420Y-13495650D01*
X8782086Y-13628984D02*
X8782086Y-13495650D01*
X8782086Y-13428984D02*
X8772563Y-13438508D01*
X8772563Y-13438508D02*
X8782086Y-13448031D01*
X8782086Y-13448031D02*
X8791610Y-13438508D01*
X8791610Y-13438508D02*
X8782086Y-13428984D01*
X8782086Y-13428984D02*
X8782086Y-13448031D01*
X8905896Y-13628984D02*
X8886848Y-13619460D01*
X8886848Y-13619460D02*
X8877324Y-13600412D01*
X8877324Y-13600412D02*
X8877324Y-13428984D01*
X9010658Y-13628984D02*
X8991610Y-13619460D01*
X8991610Y-13619460D02*
X8982086Y-13600412D01*
X8982086Y-13600412D02*
X8982086Y-13428984D01*
X9239229Y-13628984D02*
X9239229Y-13428984D01*
X9239229Y-13428984D02*
X9305896Y-13571841D01*
X9305896Y-13571841D02*
X9372563Y-13428984D01*
X9372563Y-13428984D02*
X9372563Y-13628984D01*
X9553515Y-13628984D02*
X9553515Y-13524222D01*
X9553515Y-13524222D02*
X9543991Y-13505174D01*
X9543991Y-13505174D02*
X9524944Y-13495650D01*
X9524944Y-13495650D02*
X9486848Y-13495650D01*
X9486848Y-13495650D02*
X9467801Y-13505174D01*
X9553515Y-13619460D02*
X9534467Y-13628984D01*
X9534467Y-13628984D02*
X9486848Y-13628984D01*
X9486848Y-13628984D02*
X9467801Y-13619460D01*
X9467801Y-13619460D02*
X9458277Y-13600412D01*
X9458277Y-13600412D02*
X9458277Y-13581365D01*
X9458277Y-13581365D02*
X9467801Y-13562317D01*
X9467801Y-13562317D02*
X9486848Y-13552793D01*
X9486848Y-13552793D02*
X9534467Y-13552793D01*
X9534467Y-13552793D02*
X9553515Y-13543269D01*
X9648753Y-13495650D02*
X9648753Y-13695650D01*
X9648753Y-13505174D02*
X9667801Y-13495650D01*
X9667801Y-13495650D02*
X9705896Y-13495650D01*
X9705896Y-13495650D02*
X9724944Y-13505174D01*
X9724944Y-13505174D02*
X9734467Y-13514698D01*
X9734467Y-13514698D02*
X9743991Y-13533746D01*
X9743991Y-13533746D02*
X9743991Y-13590888D01*
X9743991Y-13590888D02*
X9734467Y-13609936D01*
X9734467Y-13609936D02*
X9724944Y-13619460D01*
X9724944Y-13619460D02*
X9705896Y-13628984D01*
X9705896Y-13628984D02*
X9667801Y-13628984D01*
X9667801Y-13628984D02*
X9648753Y-13619460D01*
X9829705Y-13609936D02*
X9839229Y-13619460D01*
X9839229Y-13619460D02*
X9829705Y-13628984D01*
X9829705Y-13628984D02*
X9820182Y-13619460D01*
X9820182Y-13619460D02*
X9829705Y-13609936D01*
X9829705Y-13609936D02*
X9829705Y-13628984D01*
X9829705Y-13505174D02*
X9839229Y-13514698D01*
X9839229Y-13514698D02*
X9829705Y-13524222D01*
X9829705Y-13524222D02*
X9820182Y-13514698D01*
X9820182Y-13514698D02*
X9829705Y-13505174D01*
X9829705Y-13505174D02*
X9829705Y-13524222D01*
D12*
X8077500Y-13897500D02*
X8197500Y-14017500D01*
X8197500Y-13897500D02*
X8077500Y-14017500D01*
D11*
X8563039Y-14048984D02*
X8448753Y-14048984D01*
X8505896Y-14048984D02*
X8505896Y-13848984D01*
X8505896Y-13848984D02*
X8486848Y-13877555D01*
X8486848Y-13877555D02*
X8467801Y-13896603D01*
X8467801Y-13896603D02*
X8448753Y-13906127D01*
X8648753Y-14029936D02*
X8658277Y-14039460D01*
X8658277Y-14039460D02*
X8648753Y-14048984D01*
X8648753Y-14048984D02*
X8639229Y-14039460D01*
X8639229Y-14039460D02*
X8648753Y-14029936D01*
X8648753Y-14029936D02*
X8648753Y-14048984D01*
X8734467Y-13868031D02*
X8743991Y-13858508D01*
X8743991Y-13858508D02*
X8763039Y-13848984D01*
X8763039Y-13848984D02*
X8810658Y-13848984D01*
X8810658Y-13848984D02*
X8829705Y-13858508D01*
X8829705Y-13858508D02*
X8839229Y-13868031D01*
X8839229Y-13868031D02*
X8848753Y-13887079D01*
X8848753Y-13887079D02*
X8848753Y-13906127D01*
X8848753Y-13906127D02*
X8839229Y-13934698D01*
X8839229Y-13934698D02*
X8724944Y-14048984D01*
X8724944Y-14048984D02*
X8848753Y-14048984D01*
X8972563Y-13848984D02*
X8991610Y-13848984D01*
X8991610Y-13848984D02*
X9010658Y-13858508D01*
X9010658Y-13858508D02*
X9020182Y-13868031D01*
X9020182Y-13868031D02*
X9029705Y-13887079D01*
X9029705Y-13887079D02*
X9039229Y-13925174D01*
X9039229Y-13925174D02*
X9039229Y-13972793D01*
X9039229Y-13972793D02*
X9029705Y-14010888D01*
X9029705Y-14010888D02*
X9020182Y-14029936D01*
X9020182Y-14029936D02*
X9010658Y-14039460D01*
X9010658Y-14039460D02*
X8991610Y-14048984D01*
X8991610Y-14048984D02*
X8972563Y-14048984D01*
X8972563Y-14048984D02*
X8953515Y-14039460D01*
X8953515Y-14039460D02*
X8943991Y-14029936D01*
X8943991Y-14029936D02*
X8934467Y-14010888D01*
X8934467Y-14010888D02*
X8924944Y-13972793D01*
X8924944Y-13972793D02*
X8924944Y-13925174D01*
X8924944Y-13925174D02*
X8934467Y-13887079D01*
X8934467Y-13887079D02*
X8943991Y-13868031D01*
X8943991Y-13868031D02*
X8953515Y-13858508D01*
X8953515Y-13858508D02*
X8972563Y-13848984D01*
X9163039Y-13848984D02*
X9182086Y-13848984D01*
X9182086Y-13848984D02*
X9201134Y-13858508D01*
X9201134Y-13858508D02*
X9210658Y-13868031D01*
X9210658Y-13868031D02*
X9220182Y-13887079D01*
X9220182Y-13887079D02*
X9229705Y-13925174D01*
X9229705Y-13925174D02*
X9229705Y-13972793D01*
X9229705Y-13972793D02*
X9220182Y-14010888D01*
X9220182Y-14010888D02*
X9210658Y-14029936D01*
X9210658Y-14029936D02*
X9201134Y-14039460D01*
X9201134Y-14039460D02*
X9182086Y-14048984D01*
X9182086Y-14048984D02*
X9163039Y-14048984D01*
X9163039Y-14048984D02*
X9143991Y-14039460D01*
X9143991Y-14039460D02*
X9134467Y-14029936D01*
X9134467Y-14029936D02*
X9124944Y-14010888D01*
X9124944Y-14010888D02*
X9115420Y-13972793D01*
X9115420Y-13972793D02*
X9115420Y-13925174D01*
X9115420Y-13925174D02*
X9124944Y-13887079D01*
X9124944Y-13887079D02*
X9134467Y-13868031D01*
X9134467Y-13868031D02*
X9143991Y-13858508D01*
X9143991Y-13858508D02*
X9163039Y-13848984D01*
X9315420Y-14048984D02*
X9315420Y-13915650D01*
X9315420Y-13934698D02*
X9324944Y-13925174D01*
X9324944Y-13925174D02*
X9343991Y-13915650D01*
X9343991Y-13915650D02*
X9372563Y-13915650D01*
X9372563Y-13915650D02*
X9391610Y-13925174D01*
X9391610Y-13925174D02*
X9401134Y-13944222D01*
X9401134Y-13944222D02*
X9401134Y-14048984D01*
X9401134Y-13944222D02*
X9410658Y-13925174D01*
X9410658Y-13925174D02*
X9429705Y-13915650D01*
X9429705Y-13915650D02*
X9458277Y-13915650D01*
X9458277Y-13915650D02*
X9477325Y-13925174D01*
X9477325Y-13925174D02*
X9486848Y-13944222D01*
X9486848Y-13944222D02*
X9486848Y-14048984D01*
X9582086Y-14048984D02*
X9582086Y-13915650D01*
X9582086Y-13934698D02*
X9591610Y-13925174D01*
X9591610Y-13925174D02*
X9610658Y-13915650D01*
X9610658Y-13915650D02*
X9639229Y-13915650D01*
X9639229Y-13915650D02*
X9658277Y-13925174D01*
X9658277Y-13925174D02*
X9667801Y-13944222D01*
X9667801Y-13944222D02*
X9667801Y-14048984D01*
X9667801Y-13944222D02*
X9677325Y-13925174D01*
X9677325Y-13925174D02*
X9696372Y-13915650D01*
X9696372Y-13915650D02*
X9724944Y-13915650D01*
X9724944Y-13915650D02*
X9743991Y-13925174D01*
X9743991Y-13925174D02*
X9753515Y-13944222D01*
X9753515Y-13944222D02*
X9753515Y-14048984D01*
X10143991Y-13839460D02*
X9972563Y-14096603D01*
X10401134Y-13848984D02*
X10420182Y-13848984D01*
X10420182Y-13848984D02*
X10439229Y-13858508D01*
X10439229Y-13858508D02*
X10448753Y-13868031D01*
X10448753Y-13868031D02*
X10458277Y-13887079D01*
X10458277Y-13887079D02*
X10467801Y-13925174D01*
X10467801Y-13925174D02*
X10467801Y-13972793D01*
X10467801Y-13972793D02*
X10458277Y-14010888D01*
X10458277Y-14010888D02*
X10448753Y-14029936D01*
X10448753Y-14029936D02*
X10439229Y-14039460D01*
X10439229Y-14039460D02*
X10420182Y-14048984D01*
X10420182Y-14048984D02*
X10401134Y-14048984D01*
X10401134Y-14048984D02*
X10382087Y-14039460D01*
X10382087Y-14039460D02*
X10372563Y-14029936D01*
X10372563Y-14029936D02*
X10363039Y-14010888D01*
X10363039Y-14010888D02*
X10353515Y-13972793D01*
X10353515Y-13972793D02*
X10353515Y-13925174D01*
X10353515Y-13925174D02*
X10363039Y-13887079D01*
X10363039Y-13887079D02*
X10372563Y-13868031D01*
X10372563Y-13868031D02*
X10382087Y-13858508D01*
X10382087Y-13858508D02*
X10401134Y-13848984D01*
X10553515Y-14029936D02*
X10563039Y-14039460D01*
X10563039Y-14039460D02*
X10553515Y-14048984D01*
X10553515Y-14048984D02*
X10543991Y-14039460D01*
X10543991Y-14039460D02*
X10553515Y-14029936D01*
X10553515Y-14029936D02*
X10553515Y-14048984D01*
X10686848Y-13848984D02*
X10705896Y-13848984D01*
X10705896Y-13848984D02*
X10724944Y-13858508D01*
X10724944Y-13858508D02*
X10734468Y-13868031D01*
X10734468Y-13868031D02*
X10743991Y-13887079D01*
X10743991Y-13887079D02*
X10753515Y-13925174D01*
X10753515Y-13925174D02*
X10753515Y-13972793D01*
X10753515Y-13972793D02*
X10743991Y-14010888D01*
X10743991Y-14010888D02*
X10734468Y-14029936D01*
X10734468Y-14029936D02*
X10724944Y-14039460D01*
X10724944Y-14039460D02*
X10705896Y-14048984D01*
X10705896Y-14048984D02*
X10686848Y-14048984D01*
X10686848Y-14048984D02*
X10667801Y-14039460D01*
X10667801Y-14039460D02*
X10658277Y-14029936D01*
X10658277Y-14029936D02*
X10648753Y-14010888D01*
X10648753Y-14010888D02*
X10639229Y-13972793D01*
X10639229Y-13972793D02*
X10639229Y-13925174D01*
X10639229Y-13925174D02*
X10648753Y-13887079D01*
X10648753Y-13887079D02*
X10658277Y-13868031D01*
X10658277Y-13868031D02*
X10667801Y-13858508D01*
X10667801Y-13858508D02*
X10686848Y-13848984D01*
X10924944Y-13915650D02*
X10924944Y-14048984D01*
X10877325Y-13839460D02*
X10829706Y-13982317D01*
X10829706Y-13982317D02*
X10953515Y-13982317D01*
X11010658Y-13848984D02*
X11143991Y-13848984D01*
X11143991Y-13848984D02*
X11058277Y-14048984D01*
X11210658Y-13868031D02*
X11220182Y-13858508D01*
X11220182Y-13858508D02*
X11239229Y-13848984D01*
X11239229Y-13848984D02*
X11286848Y-13848984D01*
X11286848Y-13848984D02*
X11305896Y-13858508D01*
X11305896Y-13858508D02*
X11315420Y-13868031D01*
X11315420Y-13868031D02*
X11324944Y-13887079D01*
X11324944Y-13887079D02*
X11324944Y-13906127D01*
X11324944Y-13906127D02*
X11315420Y-13934698D01*
X11315420Y-13934698D02*
X11201134Y-14048984D01*
X11201134Y-14048984D02*
X11324944Y-14048984D01*
X11401134Y-13848984D02*
X11401134Y-13887079D01*
X11477325Y-13848984D02*
X11477325Y-13887079D01*
X11772563Y-14125174D02*
X11763039Y-14115650D01*
X11763039Y-14115650D02*
X11743991Y-14087079D01*
X11743991Y-14087079D02*
X11734468Y-14068031D01*
X11734468Y-14068031D02*
X11724944Y-14039460D01*
X11724944Y-14039460D02*
X11715420Y-13991841D01*
X11715420Y-13991841D02*
X11715420Y-13953746D01*
X11715420Y-13953746D02*
X11724944Y-13906127D01*
X11724944Y-13906127D02*
X11734468Y-13877555D01*
X11734468Y-13877555D02*
X11743991Y-13858508D01*
X11743991Y-13858508D02*
X11763039Y-13829936D01*
X11763039Y-13829936D02*
X11772563Y-13820412D01*
X11943991Y-13848984D02*
X11848753Y-13848984D01*
X11848753Y-13848984D02*
X11839229Y-13944222D01*
X11839229Y-13944222D02*
X11848753Y-13934698D01*
X11848753Y-13934698D02*
X11867801Y-13925174D01*
X11867801Y-13925174D02*
X11915420Y-13925174D01*
X11915420Y-13925174D02*
X11934468Y-13934698D01*
X11934468Y-13934698D02*
X11943991Y-13944222D01*
X11943991Y-13944222D02*
X11953515Y-13963269D01*
X11953515Y-13963269D02*
X11953515Y-14010888D01*
X11953515Y-14010888D02*
X11943991Y-14029936D01*
X11943991Y-14029936D02*
X11934468Y-14039460D01*
X11934468Y-14039460D02*
X11915420Y-14048984D01*
X11915420Y-14048984D02*
X11867801Y-14048984D01*
X11867801Y-14048984D02*
X11848753Y-14039460D01*
X11848753Y-14039460D02*
X11839229Y-14029936D01*
X12191610Y-14048984D02*
X12191610Y-13848984D01*
X12277325Y-14048984D02*
X12277325Y-13944222D01*
X12277325Y-13944222D02*
X12267801Y-13925174D01*
X12267801Y-13925174D02*
X12248753Y-13915650D01*
X12248753Y-13915650D02*
X12220182Y-13915650D01*
X12220182Y-13915650D02*
X12201134Y-13925174D01*
X12201134Y-13925174D02*
X12191610Y-13934698D01*
X12401134Y-14048984D02*
X12382087Y-14039460D01*
X12382087Y-14039460D02*
X12372563Y-14029936D01*
X12372563Y-14029936D02*
X12363039Y-14010888D01*
X12363039Y-14010888D02*
X12363039Y-13953746D01*
X12363039Y-13953746D02*
X12372563Y-13934698D01*
X12372563Y-13934698D02*
X12382087Y-13925174D01*
X12382087Y-13925174D02*
X12401134Y-13915650D01*
X12401134Y-13915650D02*
X12429706Y-13915650D01*
X12429706Y-13915650D02*
X12448753Y-13925174D01*
X12448753Y-13925174D02*
X12458277Y-13934698D01*
X12458277Y-13934698D02*
X12467801Y-13953746D01*
X12467801Y-13953746D02*
X12467801Y-14010888D01*
X12467801Y-14010888D02*
X12458277Y-14029936D01*
X12458277Y-14029936D02*
X12448753Y-14039460D01*
X12448753Y-14039460D02*
X12429706Y-14048984D01*
X12429706Y-14048984D02*
X12401134Y-14048984D01*
X12582087Y-14048984D02*
X12563039Y-14039460D01*
X12563039Y-14039460D02*
X12553515Y-14020412D01*
X12553515Y-14020412D02*
X12553515Y-13848984D01*
X12734468Y-14039460D02*
X12715420Y-14048984D01*
X12715420Y-14048984D02*
X12677325Y-14048984D01*
X12677325Y-14048984D02*
X12658277Y-14039460D01*
X12658277Y-14039460D02*
X12648753Y-14020412D01*
X12648753Y-14020412D02*
X12648753Y-13944222D01*
X12648753Y-13944222D02*
X12658277Y-13925174D01*
X12658277Y-13925174D02*
X12677325Y-13915650D01*
X12677325Y-13915650D02*
X12715420Y-13915650D01*
X12715420Y-13915650D02*
X12734468Y-13925174D01*
X12734468Y-13925174D02*
X12743991Y-13944222D01*
X12743991Y-13944222D02*
X12743991Y-13963269D01*
X12743991Y-13963269D02*
X12648753Y-13982317D01*
X12820182Y-14039460D02*
X12839230Y-14048984D01*
X12839230Y-14048984D02*
X12877325Y-14048984D01*
X12877325Y-14048984D02*
X12896372Y-14039460D01*
X12896372Y-14039460D02*
X12905896Y-14020412D01*
X12905896Y-14020412D02*
X12905896Y-14010888D01*
X12905896Y-14010888D02*
X12896372Y-13991841D01*
X12896372Y-13991841D02*
X12877325Y-13982317D01*
X12877325Y-13982317D02*
X12848753Y-13982317D01*
X12848753Y-13982317D02*
X12829706Y-13972793D01*
X12829706Y-13972793D02*
X12820182Y-13953746D01*
X12820182Y-13953746D02*
X12820182Y-13944222D01*
X12820182Y-13944222D02*
X12829706Y-13925174D01*
X12829706Y-13925174D02*
X12848753Y-13915650D01*
X12848753Y-13915650D02*
X12877325Y-13915650D01*
X12877325Y-13915650D02*
X12896372Y-13925174D01*
X12972563Y-14125174D02*
X12982087Y-14115650D01*
X12982087Y-14115650D02*
X13001134Y-14087079D01*
X13001134Y-14087079D02*
X13010658Y-14068031D01*
X13010658Y-14068031D02*
X13020182Y-14039460D01*
X13020182Y-14039460D02*
X13029706Y-13991841D01*
X13029706Y-13991841D02*
X13029706Y-13953746D01*
X13029706Y-13953746D02*
X13020182Y-13906127D01*
X13020182Y-13906127D02*
X13010658Y-13877555D01*
X13010658Y-13877555D02*
X13001134Y-13858508D01*
X13001134Y-13858508D02*
X12982087Y-13829936D01*
X12982087Y-13829936D02*
X12972563Y-13820412D01*
X13334468Y-14125174D02*
X13324944Y-14115650D01*
X13324944Y-14115650D02*
X13305896Y-14087079D01*
X13305896Y-14087079D02*
X13296372Y-14068031D01*
X13296372Y-14068031D02*
X13286849Y-14039460D01*
X13286849Y-14039460D02*
X13277325Y-13991841D01*
X13277325Y-13991841D02*
X13277325Y-13953746D01*
X13277325Y-13953746D02*
X13286849Y-13906127D01*
X13286849Y-13906127D02*
X13296372Y-13877555D01*
X13296372Y-13877555D02*
X13305896Y-13858508D01*
X13305896Y-13858508D02*
X13324944Y-13829936D01*
X13324944Y-13829936D02*
X13334468Y-13820412D01*
X13410658Y-13915650D02*
X13410658Y-14048984D01*
X13410658Y-13934698D02*
X13420182Y-13925174D01*
X13420182Y-13925174D02*
X13439230Y-13915650D01*
X13439230Y-13915650D02*
X13467801Y-13915650D01*
X13467801Y-13915650D02*
X13486849Y-13925174D01*
X13486849Y-13925174D02*
X13496372Y-13944222D01*
X13496372Y-13944222D02*
X13496372Y-14048984D01*
X13620182Y-14048984D02*
X13601134Y-14039460D01*
X13601134Y-14039460D02*
X13591611Y-14029936D01*
X13591611Y-14029936D02*
X13582087Y-14010888D01*
X13582087Y-14010888D02*
X13582087Y-13953746D01*
X13582087Y-13953746D02*
X13591611Y-13934698D01*
X13591611Y-13934698D02*
X13601134Y-13925174D01*
X13601134Y-13925174D02*
X13620182Y-13915650D01*
X13620182Y-13915650D02*
X13648753Y-13915650D01*
X13648753Y-13915650D02*
X13667801Y-13925174D01*
X13667801Y-13925174D02*
X13677325Y-13934698D01*
X13677325Y-13934698D02*
X13686849Y-13953746D01*
X13686849Y-13953746D02*
X13686849Y-14010888D01*
X13686849Y-14010888D02*
X13677325Y-14029936D01*
X13677325Y-14029936D02*
X13667801Y-14039460D01*
X13667801Y-14039460D02*
X13648753Y-14048984D01*
X13648753Y-14048984D02*
X13620182Y-14048984D01*
X13743992Y-13915650D02*
X13820182Y-13915650D01*
X13772563Y-13848984D02*
X13772563Y-14020412D01*
X13772563Y-14020412D02*
X13782087Y-14039460D01*
X13782087Y-14039460D02*
X13801134Y-14048984D01*
X13801134Y-14048984D02*
X13820182Y-14048984D01*
X14039230Y-13915650D02*
X14039230Y-14115650D01*
X14039230Y-13925174D02*
X14058277Y-13915650D01*
X14058277Y-13915650D02*
X14096373Y-13915650D01*
X14096373Y-13915650D02*
X14115420Y-13925174D01*
X14115420Y-13925174D02*
X14124944Y-13934698D01*
X14124944Y-13934698D02*
X14134468Y-13953746D01*
X14134468Y-13953746D02*
X14134468Y-14010888D01*
X14134468Y-14010888D02*
X14124944Y-14029936D01*
X14124944Y-14029936D02*
X14115420Y-14039460D01*
X14115420Y-14039460D02*
X14096373Y-14048984D01*
X14096373Y-14048984D02*
X14058277Y-14048984D01*
X14058277Y-14048984D02*
X14039230Y-14039460D01*
X14248753Y-14048984D02*
X14229706Y-14039460D01*
X14229706Y-14039460D02*
X14220182Y-14020412D01*
X14220182Y-14020412D02*
X14220182Y-13848984D01*
X14410658Y-14048984D02*
X14410658Y-13944222D01*
X14410658Y-13944222D02*
X14401134Y-13925174D01*
X14401134Y-13925174D02*
X14382087Y-13915650D01*
X14382087Y-13915650D02*
X14343992Y-13915650D01*
X14343992Y-13915650D02*
X14324944Y-13925174D01*
X14410658Y-14039460D02*
X14391611Y-14048984D01*
X14391611Y-14048984D02*
X14343992Y-14048984D01*
X14343992Y-14048984D02*
X14324944Y-14039460D01*
X14324944Y-14039460D02*
X14315420Y-14020412D01*
X14315420Y-14020412D02*
X14315420Y-14001365D01*
X14315420Y-14001365D02*
X14324944Y-13982317D01*
X14324944Y-13982317D02*
X14343992Y-13972793D01*
X14343992Y-13972793D02*
X14391611Y-13972793D01*
X14391611Y-13972793D02*
X14410658Y-13963269D01*
X14477325Y-13915650D02*
X14553515Y-13915650D01*
X14505896Y-13848984D02*
X14505896Y-14020412D01*
X14505896Y-14020412D02*
X14515420Y-14039460D01*
X14515420Y-14039460D02*
X14534468Y-14048984D01*
X14534468Y-14048984D02*
X14553515Y-14048984D01*
X14696373Y-14039460D02*
X14677325Y-14048984D01*
X14677325Y-14048984D02*
X14639230Y-14048984D01*
X14639230Y-14048984D02*
X14620182Y-14039460D01*
X14620182Y-14039460D02*
X14610658Y-14020412D01*
X14610658Y-14020412D02*
X14610658Y-13944222D01*
X14610658Y-13944222D02*
X14620182Y-13925174D01*
X14620182Y-13925174D02*
X14639230Y-13915650D01*
X14639230Y-13915650D02*
X14677325Y-13915650D01*
X14677325Y-13915650D02*
X14696373Y-13925174D01*
X14696373Y-13925174D02*
X14705896Y-13944222D01*
X14705896Y-13944222D02*
X14705896Y-13963269D01*
X14705896Y-13963269D02*
X14610658Y-13982317D01*
X14877325Y-14048984D02*
X14877325Y-13848984D01*
X14877325Y-14039460D02*
X14858277Y-14048984D01*
X14858277Y-14048984D02*
X14820182Y-14048984D01*
X14820182Y-14048984D02*
X14801134Y-14039460D01*
X14801134Y-14039460D02*
X14791611Y-14029936D01*
X14791611Y-14029936D02*
X14782087Y-14010888D01*
X14782087Y-14010888D02*
X14782087Y-13953746D01*
X14782087Y-13953746D02*
X14791611Y-13934698D01*
X14791611Y-13934698D02*
X14801134Y-13925174D01*
X14801134Y-13925174D02*
X14820182Y-13915650D01*
X14820182Y-13915650D02*
X14858277Y-13915650D01*
X14858277Y-13915650D02*
X14877325Y-13925174D01*
X14953515Y-14125174D02*
X14963039Y-14115650D01*
X14963039Y-14115650D02*
X14982087Y-14087079D01*
X14982087Y-14087079D02*
X14991611Y-14068031D01*
X14991611Y-14068031D02*
X15001134Y-14039460D01*
X15001134Y-14039460D02*
X15010658Y-13991841D01*
X15010658Y-13991841D02*
X15010658Y-13953746D01*
X15010658Y-13953746D02*
X15001134Y-13906127D01*
X15001134Y-13906127D02*
X14991611Y-13877555D01*
X14991611Y-13877555D02*
X14982087Y-13858508D01*
X14982087Y-13858508D02*
X14963039Y-13829936D01*
X14963039Y-13829936D02*
X14953515Y-13820412D01*
M02*
