%TF.GenerationSoftware,KiCad,Pcbnew,8.0.4-1.fc40*%
%TF.CreationDate,2024-08-27T20:39:51+02:00*%
%TF.ProjectId,ATU100 Alc interface Front,41545531-3030-4204-916c-6320696e7465,rev?*%
%TF.SameCoordinates,Original*%
%TF.FileFunction,Profile,NP*%
%FSLAX46Y46*%
G04 Gerber Fmt 4.6, Leading zero omitted, Abs format (unit mm)*
G04 Created by KiCad (PCBNEW 8.0.4-1.fc40) date 2024-08-27 20:39:51*
%MOMM*%
%LPD*%
G01*
G04 APERTURE LIST*
%TA.AperFunction,Profile*%
%ADD10C,0.050000*%
%TD*%
%TA.AperFunction,Profile*%
%ADD11C,0.100000*%
%TD*%
G04 APERTURE END LIST*
D10*
X168000000Y-108500000D02*
G75*
G02*
X163500000Y-113000000I-4500000J0D01*
G01*
X80000000Y-108500000D02*
X80000000Y-79500000D01*
X80000000Y-79500000D02*
G75*
G02*
X84500000Y-75000000I4500000J0D01*
G01*
X84750000Y-107500000D02*
G75*
G02*
X81250000Y-107500000I-1750000J0D01*
G01*
X81250000Y-107500000D02*
G75*
G02*
X84750000Y-107500000I1750000J0D01*
G01*
X91000000Y-86000000D02*
X116000000Y-86000000D01*
X116000000Y-99500000D01*
X91000000Y-99500000D01*
X91000000Y-86000000D01*
X84750000Y-80500000D02*
G75*
G02*
X81250000Y-80500000I-1750000J0D01*
G01*
X81250000Y-80500000D02*
G75*
G02*
X84750000Y-80500000I1750000J0D01*
G01*
X84500000Y-113000000D02*
G75*
G02*
X80000000Y-108500000I0J4500000D01*
G01*
X144200000Y-102500000D02*
X158200000Y-102500000D01*
X158200000Y-111500000D01*
X144200000Y-111500000D01*
X144200000Y-102500000D01*
X118700000Y-86750000D02*
X130000000Y-86750000D01*
X130000000Y-99350000D01*
X118700000Y-99350000D01*
X118700000Y-86750000D01*
X166750000Y-80500000D02*
G75*
G02*
X163250000Y-80500000I-1750000J0D01*
G01*
X163250000Y-80500000D02*
G75*
G02*
X166750000Y-80500000I1750000J0D01*
G01*
X168000000Y-79500000D02*
X168000000Y-108500000D01*
D11*
X149875000Y-81250000D02*
G75*
G02*
X143875000Y-81250000I-3000000J0D01*
G01*
X143875000Y-81250000D02*
G75*
G02*
X149875000Y-81250000I3000000J0D01*
G01*
D10*
X166750000Y-107500000D02*
G75*
G02*
X163250000Y-107500000I-1750000J0D01*
G01*
X163250000Y-107500000D02*
G75*
G02*
X166750000Y-107500000I1750000J0D01*
G01*
X136150000Y-86750000D02*
X147450000Y-86750000D01*
X147450000Y-99350000D01*
X136150000Y-99350000D01*
X136150000Y-86750000D01*
X153600000Y-86750000D02*
X164900000Y-86750000D01*
X164900000Y-99350000D01*
X153600000Y-99350000D01*
X153600000Y-86750000D01*
X126700000Y-107000000D02*
X134700000Y-107000000D01*
X134700000Y-110000000D01*
X126700000Y-110000000D01*
X126700000Y-107000000D01*
X84500000Y-75000000D02*
X163500000Y-75000000D01*
D11*
X135125000Y-83450000D02*
G75*
G02*
X132125000Y-83450000I-1500000J0D01*
G01*
X132125000Y-83450000D02*
G75*
G02*
X135125000Y-83450000I1500000J0D01*
G01*
D10*
X121750000Y-105250000D02*
G75*
G02*
X116750000Y-105250000I-2500000J0D01*
G01*
X116750000Y-105250000D02*
G75*
G02*
X121750000Y-105250000I2500000J0D01*
G01*
X163500000Y-113000000D02*
X84500000Y-113000000D01*
X163500000Y-75000000D02*
G75*
G02*
X168000000Y-79500000I0J-4500000D01*
G01*
M02*
