%TF.GenerationSoftware,KiCad,Pcbnew,8.0.4-1.fc40*%
%TF.CreationDate,2024-08-27T20:39:49+02:00*%
%TF.ProjectId,ATU100 Alc interface Front,41545531-3030-4204-916c-6320696e7465,rev?*%
%TF.SameCoordinates,Original*%
%TF.FileFunction,Copper,L2,Bot*%
%TF.FilePolarity,Positive*%
%FSLAX46Y46*%
G04 Gerber Fmt 4.6, Leading zero omitted, Abs format (unit mm)*
G04 Created by KiCad (PCBNEW 8.0.4-1.fc40) date 2024-08-27 20:39:49*
%MOMM*%
%LPD*%
G01*
G04 APERTURE LIST*
%TA.AperFunction,NonConductor*%
%ADD10C,0.200000*%
%TD*%
%TA.AperFunction,NonConductor*%
%ADD11C,0.050000*%
%TD*%
G04 APERTURE END LIST*
D10*
X136250000Y-77250000D02*
X140250000Y-77250000D01*
X140250000Y-81250000D01*
X136250000Y-81250000D01*
X136250000Y-77250000D01*
%TA.AperFunction,NonConductor*%
G36*
X136250000Y-77250000D02*
G01*
X140250000Y-77250000D01*
X140250000Y-81250000D01*
X136250000Y-81250000D01*
X136250000Y-77250000D01*
G37*
%TD.AperFunction*%
X106250000Y-107500000D02*
X110250000Y-107500000D01*
X110250000Y-111500000D01*
X106250000Y-111500000D01*
X106250000Y-107500000D01*
%TA.AperFunction,NonConductor*%
G36*
X106250000Y-107500000D02*
G01*
X110250000Y-107500000D01*
X110250000Y-111500000D01*
X106250000Y-111500000D01*
X106250000Y-107500000D01*
G37*
%TD.AperFunction*%
D11*
X96750000Y-79000000D02*
X100750000Y-79000000D01*
X100750000Y-84000000D01*
X96750000Y-84000000D01*
X96750000Y-79000000D01*
%TA.AperFunction,NonConductor*%
G36*
X96750000Y-79000000D02*
G01*
X100750000Y-79000000D01*
X100750000Y-84000000D01*
X96750000Y-84000000D01*
X96750000Y-79000000D01*
G37*
%TD.AperFunction*%
D10*
X152250000Y-77250000D02*
X156250000Y-77250000D01*
X156250000Y-81250000D01*
X152250000Y-81250000D01*
X152250000Y-77250000D01*
%TA.AperFunction,NonConductor*%
G36*
X152250000Y-77250000D02*
G01*
X156250000Y-77250000D01*
X156250000Y-81250000D01*
X152250000Y-81250000D01*
X152250000Y-77250000D01*
G37*
%TD.AperFunction*%
X136250000Y-107500000D02*
X140250000Y-107500000D01*
X140250000Y-111500000D01*
X136250000Y-111500000D01*
X136250000Y-107500000D01*
%TA.AperFunction,NonConductor*%
G36*
X136250000Y-107500000D02*
G01*
X140250000Y-107500000D01*
X140250000Y-111500000D01*
X136250000Y-111500000D01*
X136250000Y-107500000D01*
G37*
%TD.AperFunction*%
D11*
X106250000Y-79000000D02*
X110250000Y-79000000D01*
X110250000Y-84000000D01*
X106250000Y-84000000D01*
X106250000Y-79000000D01*
%TA.AperFunction,NonConductor*%
G36*
X106250000Y-79000000D02*
G01*
X110250000Y-79000000D01*
X110250000Y-84000000D01*
X106250000Y-84000000D01*
X106250000Y-79000000D01*
G37*
%TD.AperFunction*%
D10*
X121200000Y-107500000D02*
X125200000Y-107500000D01*
X125200000Y-111500000D01*
X121200000Y-111500000D01*
X121200000Y-107500000D01*
%TA.AperFunction,NonConductor*%
G36*
X121200000Y-107500000D02*
G01*
X125200000Y-107500000D01*
X125200000Y-111500000D01*
X121200000Y-111500000D01*
X121200000Y-107500000D01*
G37*
%TD.AperFunction*%
X125250000Y-77250000D02*
X129250000Y-77250000D01*
X129250000Y-81250000D01*
X125250000Y-81250000D01*
X125250000Y-77250000D01*
%TA.AperFunction,NonConductor*%
G36*
X125250000Y-77250000D02*
G01*
X129250000Y-77250000D01*
X129250000Y-81250000D01*
X125250000Y-81250000D01*
X125250000Y-77250000D01*
G37*
%TD.AperFunction*%
M02*
